<?xml version="1.0" encoding="UTF-8"?>
<svg id="a" data-name="Layer 1" xmlns="http://www.w3.org/2000/svg" xmlns:xlink="http://www.w3.org/1999/xlink" viewBox="0 0 726.13 362.13">
  <defs>
    <style>
      .k {
        fill: url(#j);
      }

      .l {
        fill: #fff;
      }

      .m {
        fill: aqua;
      }

      .n {
        fill: url(#h);
      }

      .o {
        fill: url(#i);
      }

      .p {
        fill: #4d4d4d;
      }

      .q {
        fill: url(#f);
      }

      .r {
        fill: url(#g);
      }

      .s {
        fill: #2b095a;
      }

      .t {
        fill: url(#e);
      }

      .u {
        fill: #f28705;
      }

      .v {
        fill: url(#d);
      }

      .w {
        fill: url(#b);
      }

      .x {
        fill: none;
      }

      .y {
        fill: #999;
      }

      .z {
        fill: #ccc;
      }

      .aa {
        fill: url(#c);
      }

      .ab {
        fill: #f2f2f2;
      }

      .ac {
        fill: #fcee21;
      }
    </style>
    <linearGradient id="b" x1="379.63" y1="342.25" x2="378.63" y2="344.86" gradientTransform="translate(726.13) rotate(-180) scale(1 -1)" gradientUnits="userSpaceOnUse">
      <stop offset="0" stop-color="#fff"/>
      <stop offset=".15" stop-color="#fbfbfb"/>
      <stop offset=".28" stop-color="#f1f1f1"/>
      <stop offset=".4" stop-color="#dfdfdf"/>
      <stop offset=".52" stop-color="#c6c6c6"/>
      <stop offset=".63" stop-color="#a5a5a5"/>
      <stop offset=".74" stop-color="#7e7e7e"/>
      <stop offset=".85" stop-color="#4f4f4f"/>
      <stop offset=".95" stop-color="#1a1a1a"/>
      <stop offset="1" stop-color="#000"/>
    </linearGradient>
    <linearGradient id="c" x1="378.77" y1="341.92" x2="377.77" y2="344.53" xlink:href="#b"/>
    <linearGradient id="d" x1="380.9" y1="342.74" x2="379.9" y2="345.34" xlink:href="#b"/>
    <linearGradient id="e" x1="48.43" y1="329.07" x2="41.95" y2="345.95" xlink:href="#b"/>
    <linearGradient id="f" x1="452.07" y1="194.3" x2="450.62" y2="198.1" xlink:href="#b"/>
    <linearGradient id="g" x1="448.1" y1="192.78" x2="446.65" y2="196.57" xlink:href="#b"/>
    <linearGradient id="h" x1="452.86" y1="199.29" x2="452.64" y2="199.84" xlink:href="#b"/>
    <linearGradient id="i" x1="194.64" y1="145.19" x2="194.48" y2="145.62" xlink:href="#b"/>
    <linearGradient id="j" x1="277.98" y1="174.21" x2="277.2" y2="176.25" xlink:href="#b"/>
  </defs>
  <path class="x" d="M638.65,294.2s-.13-.13,.39-.93c-.52,.8-.39,.92-.39,.92,.23,1.37,1.84,3.39,4.33,5.77-2.49-2.38-4.1-4.39-4.33-5.77Z"/>
  <path class="x" d="M346.96,343.44l-1.65-.55s-.01,0-.02,0c0,0,.01,0,.02,0l1.65,.55Z"/>
  <path class="x" d="M377.16,91.35c-2.69,.82-5.2,1.51-7.64,1.9,2.92-.31,5.5-1.09,7.64-1.9Z"/>
  <path class="x" d="M568.94,131.76c-.09,.03-.19,.07-.28,.1h0c.09-.04,.18-.07,.28-.1Z"/>
  <path class="x" d="M451.84,81.73c6.87-5.62,21.45-18.95,22.9-20.28-1.45,1.32-16.9,13.73-22.9,20.28Z"/>
  <path class="x" d="M344.28,340.77c.05-.15,.12-.3,.23-.44,4.54-6.24,8.84-12.13,13.07-17.7-4.23,5.57-8.54,11.46-13.08,17.7-.1,.14-.17,.29-.22,.44Z"/>
  <path class="x" d="M349.22,344.2h0s0,.03-.02,.08c.01-.05,.02-.08,.02-.08Z"/>
  <path class="x" d="M408.63,273.31h0c-8.24,5.07-15.45,10.59-22.1,16.62,6.65-6.04,13.86-11.55,22.1-16.62,5.09-3.13,10.58-6.1,16.56-8.91-5.98,2.81-11.47,5.78-16.56,8.91,0,0,0,0,0,0Z"/>
  <path class="x" d="M658.33,272.08c-3.31,5.18-8.25,9.38-12.44,13.57-.07,.07-.13,.13-.19,.2,.07-.07,.12-.13,.19-.19,4.19-4.19,9.13-8.39,12.44-13.57Z"/>
  <path class="x" d="M591.09,295.52h-16.04c-4.11,0-7.44,3.33-7.44,7.44v11.43c0,4.11,3.33,7.44,7.44,7.44h10.05c7.41,0,13.43-6.01,13.43-13.43v-5.44c0-4.11-3.33-7.44-7.44-7.44Z"/>
  <path class="x" d="M530.57,296.83h-16.04c-4.11,0-7.44,3.34-7.44,7.45v11.43c0,4.1,3.33,7.44,7.44,7.44h16.04c4.11,0,7.44-3.34,7.44-7.44v-11.43c0-4.11-3.33-7.45-7.44-7.45Z"/>
  <path class="x" d="M472.02,296.83h-16.03c-4.11,0-7.44,3.34-7.44,7.45v5.44c0,7.41,6.01,13.43,13.43,13.43h10.04c4.11,0,7.44-3.34,7.44-7.44v-11.43c0-4.11-3.33-7.45-7.44-7.45Z"/>
  <path class="x" d="M200.62,158.38c-.8,.35-1.37,.62-1.37,.62,.46-.21,.91-.42,1.37-.62Z"/>
  <path class="x" d="M320.28,115.28s2.65,4.9,2.61,12.19c.1-7.38-2.61-12.19-2.61-12.19Z"/>
  <path class="x" d="M279.27,192.3c-.69,.85-1.33,1.65-1.93,2.38-.38,.46-.73,.9-1.06,1.31-.86,1.06-1.58,1.95-2.13,2.62-.14,.18-.27,.33-.39,.48-.38,.47-.63,.78-.75,.93-.05,.07-.09,.11-.09,.11,0,0-.42,1.05-1.53,2.67,.08-.12,.17-.25,.25-.37,1.44-2.2,2.96-4.34,4.63-6.38,8.81-10.7,32.22-39.51,38.75-47.9-8.21,10.16-21.52,26.58-30.97,38.25-1.74,2.15-3.35,4.13-4.77,5.88Z"/>
  <path class="x" d="M679.98,334.68s0,.07,0,.1c.01,.07,.01,.15,.01,.22,0,0,0,0,0,0,0,0,0,0,.01-.01,0-.11-.02-.21-.03-.31Z"/>
  <path class="ac" d="M587.34,289.6s-91.43,5.92-128.27,0c-10.04-1.62-18.42,8.24-18.42,18.42s8.39,16.76,18.42,18.42c51.97,8.55,128.27,0,128.27,0,10.18,0,18.42-8.25,18.42-18.42,0-5.09-2.06-9.7-5.39-13.03-3.33-3.33-7.94-5.39-13.03-5.39Zm-107.88,26.11c0,4.1-3.33,7.44-7.44,7.44h-10.04c-7.42,0-13.43-6.02-13.43-13.43v-5.44c0-4.11,3.33-7.45,7.44-7.45h16.03c4.11,0,7.44,3.34,7.44,7.45v11.43Zm58.55,0c0,4.1-3.33,7.44-7.44,7.44h-16.04c-4.11,0-7.44-3.34-7.44-7.44v-11.43c0-4.11,3.33-7.45,7.44-7.45h16.04c4.11,0,7.44,3.34,7.44,7.45v11.43Zm60.52-7.31c0,7.42-6.02,13.43-13.43,13.43h-10.05c-4.11,0-7.44-3.33-7.44-7.44v-11.43c0-4.11,3.33-7.44,7.44-7.44h16.04c4.11,0,7.44,3.33,7.44,7.44v5.44Z"/>
  <path class="ac" d="M349.22,344.2l-.12-.04-4.22-1.29c-3.98-.07-36.72-.65-41.04-.65-4.6,0-12.5-15.79-17.76-11.84-5.26,3.95-11.84,9.87-13.81,10.52s-88.8-3.29-99.99-3.95-13.16-3.29-15.79-4.6c-2.63-1.32-3.95-13.16-11.18-9.21s-5.92,8.55-13.16,8.55-69.73-12.5-78.94-15.79-35.52-16.44-43.42-25c-7.89-8.55,0-13.16,0-13.16,8.26,3.67,18.15,6.65,29.32,9.03-.19-.23-.31-.39-.35-.45-.02-.02-.02-.03-.02-.03-.02-.93-.02-1.85,0-2.75,.02-.84,.05-1.67,.09-2.49,.5-8.56,2.77-15.57,6.18-21.29,.49-.82,1-1.61,1.53-2.38,1.07-1.53,2.22-2.96,3.44-4.3l-42.14-12.83h-.02s-3.29,3.28-3.95,4.6-.66,7.24-.66,8.55-2.63,1.32-2.63,2.63-1.32,3.95,0,5.26c1.32,1.32,1.32,1.97,1.32,3.29s1.32,3.29,.66,3.95c-.66,.66-1.97,1.32-1.97,1.32v5.26c0,1.97,3.95,1.32,3.95,1.32l.66,1.97c.66,1.97-1.32,2.63-2.63,3.29-1.32,.66,0,5.92,1.32,5.92s2.63,.66,2.63,1.32-2.63,4.6-2.63,4.6c0,0,1.97,3.29,2.63,2.63,.66-.66,1.97-2.63,1.97-2.63l3.29,3.29-1.97,5.92s1.97,2.63,3.95,0c1.97-2.63,1.97-3.29,1.97-3.29l1.97,1.32s1.32,.66,.66,2.63c-.66,1.97-1.32,4.6-1.32,4.6,0,0,3.29,4.6,4.6,3.95,1.32-.66,3.29-6.58,3.29-6.58l4.6,3.29s1.32,0,.66,3.29c-.66,3.29-1.32,5.26,2.63,7.89s4.6-1.97,4.6-1.97c0,0-.66-4.6,5.92-1.97,6.58,2.63,4.6,2.63,4.6,7.89s3.95,5.26,7.24,6.58,5.26,.66,6.58-2.63c1.32-3.29,3.29-1.97,3.29-1.97,0,0,4.6,4.6,8.55,6.58,3.95,1.97,3.95-.66,3.95-.66,0-5.92,9.87-3.95,15.79-3.29,5.92,.66,4.6,5.92,4.6,5.92,0,9.87,13.81,9.21,24.34,10.52,10.52,1.32,7.24-8.55,9.87-7.89s5.26-1.32,10.52-7.24c5.26-5.92,7.89,0,9.87,3.95s8.55,3.95,9.87,12.5c1.32,8.55,18.42,5.92,19.73,5.92s14.47,2.63,15.79-3.95c1.32-6.58,11.84-5.26,15.79-5.26s19.73-1.32,20.39,5.92c.66,7.24,9.87,6.58,21.71,6.58s18.42-1.97,18.42-4.6,.66-5.26,8.55-13.81c7.89-8.55,9.21,2.63,12.5,5.26,3.29,2.63,4.6,3.95,4.6,9.87s6.58,4.6,6.58,4.6c0,0,20.39,.66,23.68,.66s7.24-1.32,7.24-5.92,1.97-4.6,1.97-4.6c7.74,3.32,9.44-.8,9.78-2.2,.01-.07,.02-.13,.03-.18,.01-.07,.02-.13,.03-.17,0-.05,.02-.08,.02-.08Z"/>
  <path class="z" d="M408.63,273.31s0,0,0,0c0,0,0,0,0,0,2.33-1.65,4.61-3.1,6.82-4.3,.74-.4,1.46-.77,2.18-1.12,0,0-37.73,3.58-74.33,9.21-5.6,.86-11.39,1.72-17.34,2.56-2.97,.42-5.99,.84-9.04,1.25-1.53,.21-3.06,.41-4.61,.62-21.62,2.87-44.97,5.53-68.91,7.69-8.98,.81-18.04,1.55-27.12,2.2-6.81,.49-13.64,.93-20.45,1.32-20.44,1.17-40.77,1.85-60.3,1.87-36.38,.04-69.99-2.2-96.41-7.83-11.17-2.38-21.06-5.36-29.32-9.03,0,0-7.89,4.6,0,13.16,7.89,8.55,34.21,21.71,43.42,25s71.7,15.79,78.94,15.79,5.92-4.6,13.16-8.55,8.55,7.89,11.18,9.21c2.63,1.32,4.6,3.95,15.79,4.6s98.01,4.6,99.99,3.95,8.55-6.58,13.81-10.52c5.26-3.95,13.16,11.84,17.76,11.84,4.32,0,37.06,.58,41.04,.65,.26,0,.4,0,.4,0h0s0,0,0,0c-.03-.01-.05-.02-.07-.04-.02,0-.04-.03-.07-.04-.08-.04-.16-.07-.23-.12-.02-.02-.04-.04-.06-.05-.11-.08-.2-.17-.28-.27-.02-.03-.04-.06-.06-.08-.09-.12-.16-.25-.21-.39,0,0,0,0,0,0h0c-.02-.06-.04-.12-.05-.17,0,0,0,0,0-.02-.01-.04-.02-.09-.03-.14,0-.02,0-.04,0-.05,0-.05-.01-.1-.01-.15,0-.02,0-.03,0-.05,0-.02,0-.04,0-.05,0-.13,.02-.26,.06-.39,0-.03,.02-.06,.03-.09,.05-.15,.12-.3,.22-.44,4.54-6.24,8.85-12.13,13.08-17.7,9.43-12.41,18.49-23.2,28.96-32.7,6.65-6.04,13.86-11.55,22.1-16.62h0Z"/>
  <path class="z" d="M680.75,228.42c-11.18,0-26.97-2.63-36.18,8.55,.11,.03,14.48,4.01,17.1,18.42,1.23,6.78-.43,12.12-3.35,16.69-3.31,5.18-8.25,9.37-12.44,13.57-.07,.07-.13,.13-.19,.19-4.28,4.3-5.99,6.41-6.65,7.43,0,0,0,0,0,0,0,0,0,0,0,0-.52,.8-.39,.93-.39,.93,.23,1.37,1.84,3.38,4.33,5.77,7,6.7,21,16.34,31.28,23.1,.13,.09,.26,.18,.38,.27,.13,.09,.25,.18,.37,.27,.14,.11,.28,.22,.41,.33,.05,.04,.1,.09,.16,.14,.03,.02,.05,.04,.07,.07,.02,.01,.03,.03,.05,.04,.09,.07,.18,.16,.27,.25l.04,.04c.14,.13,.26,.25,.38,.39,.07,.07,.14,.14,.19,.21,.03,.03,.06,.07,.09,.1,.07,.08,.13,.16,.2,.24,.03,.04,.06,.07,.09,.11l.02,.02c.07,.08,.13,.15,.18,.23,0,0,.01,0,.01,.02,.11,.14,.21,.29,.31,.44,.07,.08,.12,.16,.17,.24,0,0,0,.01,0,.01,.01,.03,.03,.05,.04,.08,0,0,0,.02,.01,.02,.09,.16,.19,.32,.28,.5,.07,.14,.15,.27,.22,.41,.01,.01,.01,.03,.02,.04,.02,.03,.03,.06,.04,.09,.02,.04,.04,.09,.06,.13,.06,.11,.11,.21,.16,.33,.02,.05,.04,.1,.06,.15,.06,.14,.12,.28,.18,.42,.07,.18,.14,.37,.2,.56,0,0,0,.02,0,.02,.03,.08,.06,.16,.09,.25,.04,.08,.06,.18,.08,.26,0,0,0,.01,0,.02,.09,.26,.16,.53,.23,.81,.04,.15,.08,.31,.11,.47,0,.01,0,.02,0,.03,.03,.13,.06,.27,.08,.4,.02,.1,.04,.19,.06,.29,.02,.06,.03,.13,.04,.19,.06,.32,.1,.64,.15,.98,0,0,0,0,0,.01,.02,.12,.03,.25,.04,.37,0,.08,.02,.15,.03,.23,.02,.13,.04,.26,.05,.39,.01,.14,.02,.28,.03,.43,0,.1,.02,.19,.02,.29,0,.11,.02,.2,.03,.31,0,.07,0,.15,0,.23,0,0,0,0,0,0,.03,.38,.04,.78,.05,1.18,0,.31,.01,.63,.02,.96,0,.09,0,.17,0,.25l40.13-17.76,4.98-8.72,.28-.49s-.66-5.92-1.97-9.21-7.24-24.34-6.58-32.23c.66-7.89,1.32-23.68,1.97-25.65,.58-1.73,.14-5.46-5.25-8.13-.77-.38-1.65-.75-2.64-1.08-7.89-2.63-19.08-5.92-30.26-5.92Z"/>
  <path class="m" d="M677.78,40.92c-.8-.39-1.58-.71-2.3-.94-.72-.22-1.38-.35-1.96-.35-4.6,0-32.89,25-32.89,36.18s6.58,19.08,15.13,27.63c.49,.49,1.11,1.09,1.84,1.79,1.11,1.06,2.48,2.35,4.05,3.82,1.05,.98,2.2,2.05,3.41,3.18,6.71,6.22,15.7,14.48,24.2,22.43,2.32,2.17,4.6,4.31,6.79,6.39s4.29,4.08,6.23,5.96c5.2,5.02,9.33,9.2,11.34,11.64h0c.8,.97,1.27,1.66,1.33,2.02l3.29-3.29s-8.55-42.1-13.16-57.23-14.47-48.68-15.79-50.65c-.65-.98-3.41-3.41-6.58-5.62-.81-.56-1.64-1.11-2.47-1.61-.83-.5-1.67-.97-2.47-1.36Z"/>
  <path class="y" d="M40.71,213.29c47.36,11.18,129.59,7.24,176.29,8.55,1.34,.04,2.64,.05,3.92,.05,.4,0,.79,0,1.19-.01,.88,0,1.74-.02,2.59-.05,.43-.01,.85-.03,1.28-.05,.83-.04,1.64-.08,2.44-.13,.37-.02,.74-.04,1.1-.07,1.05-.08,2.08-.17,3.08-.27,.08,0,.17-.01,.25-.02,1.08-.12,2.13-.25,3.15-.39,.32-.04,.62-.09,.93-.14,.71-.11,1.41-.22,2.09-.34,.34-.06,.68-.12,1.01-.19,.66-.12,1.3-.26,1.93-.39,.3-.06,.6-.13,.89-.19,.78-.18,1.55-.37,2.29-.56,.11-.03,.23-.05,.33-.08,.85-.23,1.67-.46,2.47-.71,.24-.07,.46-.15,.7-.22,.56-.18,1.11-.36,1.65-.55,.27-.09,.53-.19,.79-.28,.5-.18,1-.37,1.48-.56,.23-.09,.47-.18,.69-.28,.57-.23,1.13-.47,1.67-.72,.11-.05,.23-.1,.34-.15,.64-.29,1.26-.59,1.86-.9,.17-.09,.33-.18,.5-.26,.43-.22,.84-.44,1.25-.67,.2-.11,.39-.22,.58-.33,.37-.21,.73-.43,1.08-.64,.17-.11,.35-.21,.52-.32,.4-.25,.79-.51,1.17-.77,.09-.06,.19-.13,.29-.19,.46-.32,.91-.64,1.33-.96,.12-.09,.23-.18,.34-.26,.31-.23,.6-.47,.89-.7,.14-.11,.27-.22,.4-.33,.26-.21,.5-.43,.74-.64,.12-.11,.24-.21,.36-.32,.27-.24,.52-.48,.77-.72,.07-.07,.15-.14,.21-.2,.31-.3,.6-.6,.88-.89,.07-.08,.14-.15,.21-.22,.2-.22,.4-.43,.59-.64,.09-.1,.17-.19,.25-.29,.16-.19,.32-.37,.46-.55,.07-.09,.15-.18,.22-.27,.16-.2,.3-.39,.45-.57,.05-.06,.1-.12,.14-.19,.18-.24,.35-.48,.5-.7,.04-.06,.07-.11,.11-.16,1.11-1.63,1.53-2.67,1.53-2.67,0,0,.03-.04,.09-.11,.12-.15,.38-.47,.75-.93,.12-.15,.25-.31,.39-.48,.55-.67,1.27-1.56,2.13-2.62,.34-.41,.69-.85,1.06-1.31,.6-.74,1.24-1.53,1.93-2.38-4.62-1.27-15.91-4.47-27.92-8.46-.68-.23-1.37-.46-2.06-.69-2.63,.41-5.93,.91-9.59,1.47-13.7,2.08-32.53,4.86-40.46,5.65-13.16,1.32-34.86,3.95-38.15,3.95s-11.84-1.32-15.13-4.6c-1.97-1.97-3.23-4.4-1.95-6.47-9.6,4.21-31.28,13.19-46.73,15.68-20.39,3.29-63.15,1.97-65.78,8.55,8.55,6.58,9.21,5.92,9.21,5.92Z"/>
  <path class="z" d="M145.96,189.61c3.29,3.29,11.84,4.6,15.13,4.6s25-2.63,38.15-3.95c7.93-.79,26.75-3.57,40.46-5.65,3.67-.56,6.97-1.06,9.59-1.47-12.65-4.27-25.71-9.35-32.29-13.93-8.66-6.03-10.85-10.11-11.14-12.5-.01,0-.02,0-.04,0-1.21,0-3.66,.98-5.2,1.66-.45,.21-.91,.42-1.37,.62,1.39,9.87,.51,14.14-1.49,16.71-.56,2.3-2.62,4.02-5.1,4.02-.94,0-1.81-.27-2.58-.7-4.65-.34-10.83-2.95-9.97-11.11-4.9,2.31-8.92,4.21-11.14,5.23-8.55,3.95-14.4,5.72-18.42,6.58-3.7,.79-5.7,2.01-6.56,3.4-1.27,2.06-.02,4.5,1.95,6.47Z"/>
  <path class="z" d="M205.86,156.72c-.01-.09-.02-.18-.03-.26-.01-.15,0-.29,0-.43-.52,.23-1.05,.47-1.59,.71,.89-.03,1.46-.03,1.62-.02Z"/>
  <path class="p" d="M205.86,156.72c.05,0,.05,0,0,0,.29,2.39,2.48,6.47,11.14,12.5,6.58,4.58,19.64,9.65,32.29,13.93,.69,.23,1.37,.46,2.06,.69,12.01,3.99,23.3,7.19,27.92,8.46,1.42-1.76,3.03-3.74,4.77-5.88,9.46-11.66,22.77-28.09,30.97-38.25,6.03-7.75,7.79-14.99,7.88-20.7,.03-7.29-2.61-12.19-2.61-12.19l-13.16-23.02s2.11-1.2,5.35-3.04l.38-.28s.02,.03,.03,.04c1.32-.75,2.8-1.6,4.4-2.51h0s0,0,0,0c1.55-.89,3.21-1.83,4.91-2.81-.01-2.13,.35-4.15,.9-5.98-4.42,2.9-8.79,5.78-13.05,8.59-1.35,1.16-2.63,2.59-2.92,4.01-.47,2.33,1.97,15.79,2.63,20.39,.22,1.56,.29,4.04-.09,6.34,.05,.29,.09,.59,.09,.89,0,2.91-2.36,5.26-5.26,5.26-1.88,0-3.51-.99-4.45-2.47,0,0-.02-.01-.02-.02-11.25-8.2-9.73-17.27-7.06-23.15-1.66,1.1-3.27,2.17-4.84,3.2-.02,.02-.04,.04-.08,.07-2.05,1.36-5.26,29.6-7.24,33.55-1.63,3.25-5.3,5.16-6.54,5.72-.88,1.67-2.62,2.83-4.64,2.83-2.23,0-4.12-1.39-4.89-3.35-2.41-3.12-5.17-9.66-.37-20.99,.46-1.09,.97-2.11,1.51-3.08-.85,.57-1.54,1.03-2.05,1.36-1.81,1.03-3.61,2.06-5.41,3.08,.31-.04,.51-.06,.59-.07,0,0,.02-.01,.03-.01,.03,0,.01,0-.03,.01-.85,.21-8.5,12.63-12.4,23.7-3.95,11.18-6.83,14.98-6.83,14.98,0,0-.24,.19-.64,.45-.94,1.41-2.55,2.33-4.37,2.33s-3.26-.85-4.22-2.15c-.01-.01-.03-.02-.04-.03-4.26-3.49-7.58-8.35,0-23.22,.02-.04,.04-.07,.06-.11-6.75,3.85-11.71,6.69-13.56,7.74-9.21,5.26-10.52,10.52-10.52,10.52,0,0-.61,.63-.65,1.93,0,.14,0,.28,0,.43,0,.08,.02,.17,.03,.26Zm90.08-17.1c2.91,0,5.26,2.36,5.26,5.26s-2.36,5.26-5.26,5.26-5.26-2.36-5.26-5.26,2.36-5.26,5.26-5.26Zm-33.55,17.76c2.91,0,5.26,2.36,5.26,5.26s-2.36,5.26-5.26,5.26-5.26-2.36-5.26-5.26,2.36-5.26,5.26-5.26Z"/>
  <path class="p" d="M454.54,10.93c2.5,4.41,11.86,20.98,12.43,22.12,.33,.66-2.39,2.71-5.19,4.58-3.86-2.59-7.02-4.45-9.29-5.24-7.31-2.56-17.68-6.72-31.53-6.1-2.06,1.18-4.13,4.06-5.76,7.6,11.79-.64,19.89,4.06,26.1,6.39,2.87,1.07,6.71,3.18,10.89,5.74,.81,.5,1.63,1.01,2.46,1.54,.46-.31,.71-.48,.71-.48l1.12,1.66c1.01,.65,2.02,1.32,3.03,2,.28-.18,.43-.28,.44-.28l.68,1.03c3.06,2.06,6.07,4.18,8.83,6.15l.39-.33,1.28,1.53c1.28,.92,2.48,1.8,3.59,2.61,2.71,1.99,4.86,3.6,6.05,4.49,5.26,3.95,39.47,26.97,65.12,34.21,25.65,7.24,40.68,.16,50.65-7.89,13.93-11.26,42.76-45.39,49.34-51.97,6.58-6.58,28.29-3.29,32.89-1.97,0,0,.66-6.58-7.24-7.89-7.89-1.32-27.63-3.29-43.42,14.47s-43.42,57.89-86.83,43.42c-10.69-3.56-22.74-10.53-34.52-18.38l.75-.84s2.2-20.91-5.03-39.99c-5.19-13.67-9.36-22.27-11.31-26.05-.82-1.59-2.35-2.71-4.12-2.95-2.61-.35-6.13-.03-6.94,4,1.97,2.63,5.92,15.13,11.84,29.6,5.92,14.47,6.58,30.26,6.58,30.26l-.39,.05c-.74-.52-1.47-1.04-2.2-1.56v-.13s-15.17-41.77-19.77-49.67c-4.6-7.89-7.24-6.58-7.24-6.58,0,0-.56,.14-1.58,.4-.52,.13-1.15,.3-1.88,.5h0c-2.73,.73-6.88,1.87-11.66,3.31,.29,.13,.55,.35,.71,.64Z"/>
  <path class="m" d="M424.52,25.21c.22,.39-.19,.84-.61,.68-.94-.35-1.94-.17-2.94,.41,13.85-.62,24.22,3.54,31.53,6.1,2.26,.79,5.43,2.65,9.29,5.24,2.79-1.87,5.52-3.92,5.19-4.58-.57-1.14-9.94-17.71-12.43-22.12-.17-.3-.42-.51-.71-.64-.33-.14-.71-.17-1.07-.06-4.7,1.51-22.22,7.29-31.29,12.35,1.75,.84,2.62,1.84,3.05,2.62Z"/>
  <path class="z" d="M645.89,40.29c-6.58,6.58-35.4,40.71-49.34,51.97-9.97,8.06-25,15.13-50.65,7.89-25.65-7.24-59.86-30.26-65.12-34.21-1.19-.89-3.33-2.5-6.05-4.49-1.45,1.32-16.02,14.65-22.9,20.28-7.24,7.89-13.81,18.42-17.1,26.97-3.29,8.55,1.97,17.1,14.47,22.37,12.5,5.26,54.6,7.89,54.6,7.89l10.55,1.42,54.31-8.51c.09-.03,.19-.07,.28-.1,.29-.11,.57-.22,.85-.32,.29-.11,.57-.22,.85-.32,.25-.1,.5-.19,.74-.28,.32-.12,.63-.24,.93-.36,.18-.07,.36-.14,.53-.21,.47-.18,.92-.36,1.34-.52,18.42-7.24,45.39-13.16,53.94-12.5,8.55,.66,33.55,19.08,44.73,27.63,1.23,.94,2.72,2.04,4.4,3.25,.84,.61,1.73,1.24,2.66,1.9s1.9,1.34,2.9,2.04c2,1.4,4.12,2.86,6.3,4.35,2.72,1.86,5.54,3.77,8.3,5.62,.55,.37,1.1,.74,1.65,1.11,7.67,5.14,14.75,9.77,18.29,11.98-.7-3.41-2.18-10.46-3.73-16.48h0c-2.01-2.43-6.15-6.61-11.34-11.64-1.95-1.88-4.05-3.89-6.23-5.96s-4.47-4.22-6.79-6.39c-8.5-7.95-17.49-16.21-24.2-22.43-1.22-1.13-2.36-2.2-3.41-3.18-1.58-1.47-2.95-2.76-4.05-3.82-.74-.71-1.36-1.31-1.84-1.79-8.55-8.55-15.13-16.44-15.13-27.63s28.29-36.18,32.89-36.18c.58,0,1.24,.13,1.96,.35,.72,.22,1.5,.54,2.3,.94s1.64,.85,2.47,1.36c.83,.5,1.67,1.05,2.47,1.61-.38-2.05-.14-4.48-3.95-5.57-4.6-1.32-26.31-4.6-32.89,1.97Z"/>
  <path class="z" d="M415.21,33.9c-1.36,2.96-2.4,6.39-2.84,9.68-1.17,8.76-3.44,8.87-5.72,10.02-.82,1.85-2.66,3.14-4.81,3.14-1.58,0-2.97-.71-3.94-1.8-1.15-.66-2.64-1.48-3.96-2.14-1.05-.53-2.62-5.36-2.88-11.1-2.04,1.14-4.14,2.41-6.33,3.86-1.79,1.19-3.67,2.42-5.61,3.67-1.06,2.43-1.48,4.8-.97,6.85,3.03,12.12-3.29,17.76-3.29,17.76-.52,1.73-1.42,2.67-2.47,3.13-.81,.51-1.76,.82-2.79,.82-1.7,0-3.2-.82-4.16-2.08-.03-.02-.05-.03-.05-.03-6.03-2.82-8.9-7.06-9.91-11.68-4.25,2.59-8.6,5.2-12.99,7.82-.44,1.74-.82,3.55-1.15,5.38l7.22,8.49c7.93,6.9,15.14,8.19,20.96,7.57,2.44-.38,4.94-1.08,7.64-1.9,1.73-.65,3.18-1.31,4.3-1.73,12.86-4.82,70.39-43.42,70.39-43.42l.36-.18c-4.18-2.56-8.02-4.67-10.89-5.74-6.21-2.33-14.32-7.03-26.1-6.39Zm-21.26,44.54c-2.91,0-5.26-2.36-5.26-5.26s2.36-5.26,5.26-5.26,5.26,2.36,5.26,5.26-2.36,5.26-5.26,5.26Z"/>
  <path class="p" d="M355.49,64c-.53-2.38-.56-4.86-.27-7.3-2.93,1.9-5.94,3.86-9,5.85-1.56,2.18-2.78,5.53-3.72,9.27,4.39-2.61,8.74-5.23,12.99-7.82Z"/>
  <path class="p" d="M391.07,41.69c-.09-2.09,0-4.3,.34-6.48-5.03,3.46-10.06,8.89-12.28,14.01,1.94-1.25,3.81-2.48,5.61-3.67,2.19-1.45,4.29-2.72,6.33-3.86Z"/>
  <path class="s" d="M28.17,211.21c-.44,.49-.89,.98-1.35,1.46l1.86-.8c-.2-.23-.37-.45-.52-.66Z"/>
  <path class="s" d="M73.73,238.7c1.55-.5,3.1-.95,4.63-1.34,2.29-.59,4.55-1.08,6.72-1.47,11.57-2.08,20.76-1.55,20.76-1.55,79.59,8.55,138.8,5.26,138.8,5.26,.69-.13,1.41-.27,2.13-.41,.18-.04,.36-.07,.54-.11,.73-.15,1.46-.3,2.22-.45h.01c.75-.16,1.51-.33,2.29-.49,.19-.04,.39-.09,.59-.13,.78-.17,1.57-.35,2.38-.53,.03,0,.06-.01,.08-.02,.79-.18,1.59-.37,2.4-.56,.2-.05,.4-.1,.61-.14,.83-.2,1.68-.4,2.53-.61,.05-.01,.1-.02,.15-.04,.82-.2,1.65-.41,2.49-.61,.21-.05,.43-.11,.64-.16,.88-.22,1.77-.45,2.68-.68,.06-.02,.13-.03,.19-.05,.86-.22,1.73-.45,2.61-.68,.22-.06,.43-.11,.65-.17,.94-.25,1.88-.5,2.84-.75,.05-.01,.1-.03,.16-.04,.91-.24,1.83-.49,2.76-.75,.22-.06,.44-.12,.67-.18,.98-.27,1.96-.54,2.96-.81,.07-.02,.15-.04,.22-.06,.94-.26,1.88-.52,2.83-.79,.23-.06,.46-.13,.69-.19,1.01-.29,2.04-.57,3.07-.87,.09-.03,.18-.05,.27-.08,.97-.28,1.94-.56,2.92-.84,.22-.06,.44-.13,.66-.19,1.06-.31,2.13-.62,3.21-.93,.06-.02,.13-.04,.19-.05,1.03-.3,2.06-.61,3.1-.91,.21-.06,.43-.13,.64-.19,1.1-.33,2.21-.66,3.33-.99,.06-.02,.12-.04,.19-.06,1.07-.32,2.14-.64,3.22-.97,.2-.06,.4-.12,.59-.18,1.14-.35,2.29-.69,3.45-1.05,.06-.02,.12-.04,.18-.06,1.09-.33,2.2-.67,3.3-1.01,.2-.06,.4-.12,.6-.18,1.17-.36,2.34-.72,3.53-1.09,.06-.02,.13-.04,.19-.06,1.12-.35,2.25-.7,3.38-1.05,.19-.06,.38-.12,.58-.18,1.2-.37,2.4-.75,3.6-1.13,.05-.02,.1-.03,.16-.05,1.17-.37,2.34-.74,3.51-1.11,.16-.05,.32-.1,.48-.15,1.24-.39,2.47-.79,3.72-1.18,.03,0,.06-.02,.09-.03,1.21-.39,2.43-.78,3.64-1.17,.14-.04,.27-.09,.41-.13,1.26-.41,2.53-.81,3.79-1.22,.03,0,.05-.02,.08-.03,1.23-.4,2.46-.8,3.7-1.2,.13-.04,.26-.08,.38-.12,1.28-.42,2.56-.83,3.85-1.25,.01,0,.02,0,.03,0,1.29-.42,2.58-.85,3.88-1.27,.06-.02,.12-.04,.18-.06,1.31-.43,2.63-.86,3.94-1.3,0,0,0,0,0,0-7.07-2.19-32.22-19.68-19.59-42.55,13.81-25,36.84-33.55,36.84-33.55,0,0-.66,1.32-.66,16.45s21.71,11.18,21.71,11.18l94.52-14.81c-.3-.02-.6-.04-.91-.05l.25-3.99c1.02,.06,2,.12,2.94,.17l-.19,3.55,3-.47,.13-2.94c1.08,.05,2.07,.09,2.94,.12l-.08,2.35,2.97-.47,.04-1.79c.94,.02,1.46,.03,1.47,.03l-.02,1.53,13.99-2.19-10.55-1.42s-42.1-2.63-54.6-7.89c-12.5-5.26-17.76-13.81-14.47-22.37,3.29-8.55,9.87-19.08,17.1-26.97,6-6.55,21.45-18.95,22.9-20.28-1.11-.81-2.32-1.69-3.59-2.61l1.28,1.53-1.15,.96-2.56-3.07,.75-.63c-2.76-1.97-5.78-4.08-8.83-6.15l1.52,2.31s-.91,.6-2.56,1.66l-2.17-3.36c.97-.63,1.68-1.09,2.1-1.36-1.01-.68-2.02-1.34-3.03-2l1.12,1.65s-.9,.61-2.53,1.7l-2.23-3.32c.77-.52,1.37-.92,1.8-1.21-.83-.53-1.65-1.04-2.46-1.54l-.36,.18s-57.52,38.59-70.39,43.42c-1.12,.42-2.57,1.08-4.3,1.73-2.14,.8-4.71,1.59-7.64,1.9-5.82,.61-13.03-.67-20.96-7.57l-7.22-8.49c-.25,1.37-.47,2.75-.66,4.09l1.37-.94c.55,.8,1.12,1.59,1.7,2.34l-3.05,2.34c.3,.37,.59,.75,.89,1.11l-1.67,1.41c-.43,4.29-.57,7.34-.57,7.34,0,2.91-2.36,5.26-5.26,5.26-1.6,0-3.02-.73-3.98-1.86-5.96-4.66-7.88-9.89-7.91-14.63-1.7,.98-3.36,1.93-4.91,2.81,0,0,.33,.45,.89,1.26l-3.28,2.29c-.52-.75-.83-1.17-.84-1.18l3.22-2.36c-1.6,.91-3.08,1.76-4.4,2.51,.07,.1,.37,.51,.86,1.21l-3.28,2.29c-.53-.75-.83-1.18-.84-1.19l2.85-2.08c-3.24,1.84-5.35,3.04-5.35,3.04l13.16,23.02s2.72,4.81,2.61,12.19c-.08,5.71-1.85,12.95-7.88,20.7-6.53,8.39-29.94,37.2-38.75,47.9-1.67,2.03-3.2,4.17-4.63,6.38-.08,.12-.16,.24-.25,.37-.04,.06-.07,.11-.11,.16-.15,.22-.32,.46-.5,.7-.04,.06-.1,.12-.14,.19-.14,.19-.29,.38-.45,.57-.07,.09-.15,.18-.22,.27-.15,.18-.3,.37-.46,.55-.08,.1-.17,.19-.25,.29-.19,.21-.38,.43-.59,.64-.07,.08-.14,.15-.21,.22-.28,.29-.57,.59-.88,.89-.07,.07-.14,.14-.21,.2-.25,.24-.5,.48-.77,.72-.12,.11-.24,.21-.36,.32-.24,.21-.49,.42-.74,.64-.13,.11-.27,.22-.4,.33-.29,.23-.59,.47-.89,.7-.11,.09-.22,.18-.34,.26-.43,.32-.87,.64-1.33,.96-.09,.06-.19,.13-.29,.19-.38,.26-.77,.51-1.17,.77-.17,.11-.34,.21-.52,.32-.35,.22-.71,.43-1.08,.64-.19,.11-.38,.22-.58,.33-.4,.23-.82,.45-1.25,.67-.17,.09-.33,.18-.5,.26-.6,.3-1.22,.6-1.86,.9-.11,.05-.23,.1-.34,.15-.54,.24-1.1,.48-1.67,.72-.23,.09-.46,.18-.69,.28-.48,.19-.97,.38-1.48,.56-.26,.09-.52,.19-.79,.28-.54,.19-1.09,.37-1.65,.55-.23,.07-.46,.15-.7,.22-.8,.25-1.62,.48-2.47,.71-.11,.03-.23,.05-.33,.08-.75,.19-1.51,.38-2.29,.56-.29,.07-.59,.13-.89,.19-.63,.14-1.27,.27-1.93,.39-.34,.06-.67,.13-1.01,.19-.68,.12-1.38,.23-2.09,.34-.31,.05-.61,.1-.93,.14-1.03,.14-2.07,.28-3.15,.39-.08,0-.17,.01-.25,.02-1,.1-2.03,.19-3.08,.27-.36,.03-.73,.05-1.1,.07-.8,.05-1.61,.1-2.44,.13-.42,.02-.85,.03-1.28,.05-.85,.03-1.71,.04-2.59,.05-.4,0-.79,.01-1.19,.01-1.28,0-2.58-.01-3.92-.05-46.7-1.32-128.93,2.63-176.29-8.55,0,0-.66,.66-9.21-5.92,0,0-.81,.97-1.94,2.26l1.84-.79h0s.11,.2,.5,.61l-2.82,2.69s.04,.04,.08,.07l-2.55,3.08c-.51-.43-.89-.83-1.17-1.22-1.4,1.13-12.55,10.48-17.6,26.2l42.14,12.83c6.57-7.17,15.22-11.63,23.75-14.4ZM407.96,86.55l-1.93-3.5c.87-.48,1.74-.96,2.62-1.45l1.95,3.49c-.88,.49-1.76,.98-2.64,1.46Zm5.27-2.94l-1.96-3.48c.87-.49,1.74-.98,2.6-1.48l1.98,3.47c-.87,.5-1.75,.99-2.62,1.49Zm5.24-2.99l-2-3.46c.87-.5,1.73-1,2.59-1.5l2.01,3.46c-.86,.5-1.73,1.01-2.6,1.51Zm5.2-3.03l-2.02-3.45c.87-.51,1.73-1.02,2.58-1.52l2.04,3.44c-.86,.51-1.72,1.02-2.6,1.53Zm3.14-6.5l2.57-1.54,2.06,3.43-2.58,1.55-2.05-3.43Zm5.69,36.06c-.24,.9-.42,1.8-.55,2.68l-3.96-.58c.15-1.03,.37-2.07,.64-3.11l3.87,1.02Zm-4.79,5.84c0-.18,0-.36,0-.55l4,.09c0,.16,0,.31,0,.46,0,.76,.04,1.5,.13,2.21l-3.97,.48c-.1-.86-.16-1.77-.16-2.69Zm.88,5.99l3.78-1.3c.08,.24,.41,1.13,1.09,2.42l-3.54,1.87c-.79-1.5-1.2-2.59-1.34-2.99Zm52.69,21.09c1,.08,1.98,.16,2.93,.22l-.29,3.99c-.97-.07-1.96-.15-2.97-.23l.32-3.99Zm-5.85-.54c.98,.1,1.96,.2,2.92,.29l-.37,3.98c-.98-.09-1.97-.19-2.97-.29l.41-3.98Zm-5.82-.68c.97,.13,1.94,.25,2.91,.36l-.46,3.97c-.99-.12-1.98-.24-2.97-.37l.53-3.97Zm-5.79-.87c.95,.16,1.91,.31,2.88,.46l-.59,3.96c-1-.15-1.99-.31-2.96-.47l.67-3.94Zm-5.7-1.12c.92,.21,1.87,.41,2.84,.6l-.77,3.93c-1.01-.2-1.99-.4-2.96-.62l.88-3.9Zm-5.54-1.49c.85,.28,1.77,.55,2.74,.81l-1.03,3.86c-1.04-.28-2.03-.57-2.94-.87l1.23-3.8Zm-5.2-2.11c.82,.41,1.68,.8,2.56,1.15l-1.5,3.71c-.97-.39-1.92-.82-2.83-1.27l1.78-3.58Zm-2.45-1.34l-2.06,3.43c-.89-.53-1.77-1.11-2.61-1.71l2.33-3.25c.75,.54,1.54,1.06,2.33,1.53Zm-6.55-5.16c.64,.66,1.32,1.3,2.03,1.9l-2.61,3.03c-.79-.68-1.56-1.4-2.29-2.14l2.86-2.79Zm-3.49-4.3c.5,.76,1.06,1.51,1.64,2.23l-3.1,2.52c-.67-.82-1.3-1.67-1.87-2.53l3.33-2.22Zm-1.54-17.93l-3.75-1.4c.36-.96,.77-1.93,1.23-2.88l3.61,1.73c-.41,.85-.77,1.71-1.09,2.55Zm2.78-5.64c-.13,.21-.25,.42-.37,.62l-3.45-2.02c.13-.23,.27-.46,.41-.69,.39-.63,.78-1.27,1.18-1.9l3.38,2.15c-.39,.61-.77,1.22-1.14,1.83Zm-4.16-30.88c.87-.52,1.72-1.04,2.56-1.56l2.08,3.42c-.85,.52-1.71,1.04-2.58,1.56l-2.07-3.42Zm6.9,26.61l-3.32-2.23c.56-.83,1.13-1.66,1.7-2.48l3.28,2.29c-.55,.79-1.11,1.6-1.65,2.41Zm-1.78-29.73l2.56-1.57,2.1,3.4-2.56,1.58-2.09-3.41Zm5.12,24.95l-3.23-2.36c.6-.82,1.2-1.62,1.79-2.41l3.19,2.42c-.58,.76-1.16,1.55-1.74,2.34Zm3.53-4.66l-3.14-2.48c.64-.81,1.26-1.59,1.88-2.34l3.1,2.53c-.6,.73-1.21,1.49-1.83,2.28Zm-3.55-23.44l2.55-1.59,2.12,3.39-2.56,1.59-2.11-3.4Zm7.25,18.92l-3.04-2.6c.7-.82,1.36-1.57,1.98-2.27l2.98,2.67c-.6,.67-1.24,1.4-1.92,2.19Zm-2.16-22.1l2.54-1.6,2.14,3.38-2.55,1.61-2.13-3.39Zm6.04,17.8l-2.87-2.79c.98-1.01,1.77-1.75,2.36-2.21l2.47,3.15c-.25,.2-.84,.7-1.95,1.85Zm13.18-16.23l2.56,3.07-2.28,1.9-2.56-3.08,2.27-1.89Zm-4.55,3.79l2.56,3.08-2.29,1.89-2.55-3.08,2.28-1.89Zm-2.02,6.86c-.84,.69-1.62,1.33-2.3,1.88l-2.52-3.11c.68-.55,1.45-1.18,2.28-1.87l2.54,3.09Zm-5.03-17.04l2.16,3.37-2.54,1.62-2.15-3.38,2.53-1.62Zm-4.53-3.28l2.22,3.33-2.52,1.67-2.21-3.34,2.5-1.66Zm-5.01,3.32l2.2,3.34-2.52,1.65-2.19-3.35,2.51-1.65Zm-5.03,3.29l2.18,3.35-2.53,1.64-2.17-3.36,2.52-1.63Zm-5.04,3.26l2.16,3.37-2.53,1.62-2.15-3.37,2.53-1.62Zm-5.06,3.23l2.14,3.38-2.54,1.61-2.13-3.38,2.54-1.6Zm-5.07,3.2l2.12,3.39-2.55,1.59-2.11-3.4,2.54-1.59Zm-5.09,3.17l2.1,3.4c-.85,.53-1.71,1.05-2.57,1.58l-2.09-3.41c.86-.52,1.71-1.05,2.55-1.57Zm-5.11,3.13l2.08,3.42c-.86,.52-1.72,1.04-2.58,1.56l-2.06-3.43c.86-.52,1.71-1.03,2.57-1.55Zm-5.14,3.09l2.04,3.44c-.87,.51-1.73,1.03-2.59,1.54l-2.03-3.45c.86-.5,1.72-1.01,2.58-1.52Zm-5.16,3.04l2.01,3.46c-.87,.51-1.75,1.01-2.61,1.51l-1.99-3.47c.86-.49,1.73-.99,2.59-1.5Zm-5.19,2.97l1.94,3.44c.67-.36,1.34-.72,2.02-1.09l1.9,3.52c-.89,.48-1.78,.96-2.66,1.43l-1.85-3.47c-.68,.38-1.35,.76-2.02,1.13l-1.94-3.5c.86-.48,1.73-.96,2.61-1.46Zm-5.23,2.9l1.82,3.35c.69-.36,1.39-.71,2.09-1.08l1.86,3.54c-.9,.47-1.8,.94-2.69,1.39l-1.73-3.38c-.7,.38-1.41,.76-2.1,1.13l-1.88-3.53c.87-.46,1.74-.93,2.63-1.41Zm-5.27,2.79l1.68,3.27c.72-.35,1.44-.71,2.18-1.07l1.79,3.58c-.92,.46-1.82,.91-2.71,1.34l-1.61-3.31c-.74,.38-1.49,.76-2.21,1.12l-1.78-3.58c.87-.43,1.76-.88,2.66-1.35Zm-5.33,2.65l1.53,3.22c.76-.34,1.52-.69,2.3-1.06l1.7,3.62c-.94,.44-1.86,.86-2.76,1.27l-1.46-3.25c-.8,.38-1.6,.75-2.36,1.09l-1.63-3.65c.87-.39,1.77-.8,2.69-1.24Zm-5.4,2.41l1.32,3.21c.81-.32,1.63-.66,2.49-1.03l1.57,3.68c-.97,.41-1.91,.8-2.83,1.17l-1.28-3.23c-.92,.38-1.81,.72-2.63,1.02l-1.36-3.76c.86-.31,1.77-.67,2.72-1.06Zm-1.67,4.35l1.35,3.76c-1.03,.37-2.02,.7-2.94,.98l-1.17-3.83c.86-.26,1.79-.57,2.76-.92Zm-6.92,1.93c.33-.05,.69-.13,1.04-.2l-.6-3.52c.76-.13,1.54-.3,2.32-.51l.4-.11,1.09,3.85-.46,.13c-.76,.2-1.53,.37-2.29,.51l.78,3.49c-.58,.13-1.13,.24-1.66,.32-.51,.08-1.03,.15-1.53,.2l-.42-3.98c.44-.05,.88-.1,1.32-.18Zm-6.84,.12c.5,.06,1.01,.11,1.52,.14l.27-3.71c.89,.06,1.81,.08,2.75,.03l.21,3.99c-.46,.02-.91,.04-1.36,.04-.21,0-.42-.02-.63-.02l-.04,3.72c-1.07-.01-2.16-.08-3.22-.22l.5-3.97Zm-4.76-1.1l1.17-3.54c.88,.29,1.77,.53,2.66,.71l-.79,3.92c-.36-.07-.71-.16-1.07-.25l-.89,3.64c-1.03-.25-2.06-.57-3.07-.93l1.37-3.76c.21,.07,.41,.14,.62,.21Zm-3.86-5.87c.81,.49,1.64,.93,2.46,1.31l-1.69,3.63c-.08-.04-.16-.08-.23-.12l-1.62,3.36c-.94-.45-1.88-.96-2.8-1.51l1.91-3.19s-.06-.03-.09-.05l2.05-3.43Zm-4.55-3.33c.72,.63,1.47,1.22,2.21,1.77l-2.2,2.99c.11,.08,.23,.17,.34,.25l-2.32,3.26c-.84-.6-1.68-1.25-2.49-1.92l2.39-2.87c-.18-.15-.37-.3-.55-.46l2.63-3.02Zm-6.24-.53c-.27-.3-.54-.6-.81-.9l3.02-2.62c.64,.74,1.3,1.44,1.95,2.11l-2.66,2.63c.23,.23,.45,.47,.68,.69l-2.75,2.91c-.74-.7-1.49-1.45-2.2-2.21l2.76-2.6Zm-87.51,142.46l-1.5-3.71c.81-.33,1.66-.72,2.53-1.18l1.86,3.54c-.99,.52-1.96,.97-2.88,1.35Zm5.6-2.91l-2.11-3.4c.77-.48,1.58-1.01,2.4-1.59l2.29,3.28c-.88,.62-1.75,1.19-2.59,1.71Zm5.07-3.53l-2.43-3.18c.76-.58,1.52-1.19,2.29-1.82l2.54,3.09c-.8,.66-1.6,1.29-2.4,1.9Zm4.73-3.87l-2.62-3.02c.73-.63,1.46-1.29,2.19-1.96l2.7,2.95c-.76,.69-1.51,1.37-2.27,2.03Zm4.48-4.1l-2.76-2.9c.71-.67,1.41-1.36,2.12-2.06l2.81,2.84c-.72,.72-1.45,1.42-2.17,2.11Zm4.3-4.26l-2.86-2.8c.69-.7,1.37-1.41,2.05-2.13l2.9,2.75c-.7,.73-1.4,1.46-2.1,2.18Zm4.16-4.38l-2.94-2.71c.67-.73,1.34-1.46,2-2.2l2.97,2.68c-.67,.75-1.35,1.49-2.04,2.23Zm4.04-4.48l-3-2.65c.66-.75,1.31-1.49,1.96-2.24l3.03,2.62c-.65,.76-1.31,1.51-1.98,2.27Zm3.94-4.56l-3.05-2.59c.65-.76,1.28-1.52,1.91-2.28l3.07,2.56c-.64,.76-1.28,1.53-1.94,2.31Zm3.85-4.62l-3.09-2.54c.64-.78,1.26-1.55,1.88-2.31l3.12,2.51c-.62,.77-1.25,1.55-1.9,2.34Zm3.77-4.69l-3.13-2.49c.63-.8,1.25-1.58,1.84-2.34l3.15,2.46c-.6,.77-1.22,1.56-1.86,2.36Zm3.71-4.74l-3.17-2.44c.63-.82,1.23-1.61,1.81-2.37l3.19,2.42c-.58,.77-1.19,1.56-1.83,2.39Zm3.64-4.8l-3.21-2.39c.64-.86,1.24-1.66,1.78-2.4l3.22,2.37c-.55,.74-1.15,1.55-1.79,2.42Zm3.57-4.86l-3.24-2.34c.84-1.17,1.44-2,1.73-2.43l3.27,2.3c-.3,.43-.9,1.28-1.76,2.47Zm3.46-4.99l-3.32-2.22,1.66-2.48,3.32,2.23-1.66,2.48Zm3.32-4.96l-3.33-2.22c.56-.84,1.11-1.67,1.65-2.48l3.34,2.21c-.54,.81-1.09,1.64-1.66,2.49Zm3.3-5l-3.36-2.18c.54-.84,1.08-1.67,1.6-2.49l3.38,2.14c-.53,.84-1.07,1.68-1.62,2.53Zm3.21-5.09l-3.41-2.08c.51-.84,1.01-1.68,1.51-2.53l3.45,2.02c-.51,.87-1.03,1.73-1.55,2.59Zm3.05-5.22l-3.5-1.94c.47-.84,.94-1.7,1.4-2.59l3.54,1.87c-.48,.91-.96,1.79-1.44,2.66Zm2.83-5.35l-3.58-1.79c.43-.86,.86-1.74,1.3-2.65l3.61,1.72c-.45,.93-.89,1.84-1.33,2.72Zm-3.38-17.78l4-.18c.01,.27,.02,.54,.02,.8,0,.94-.08,1.83-.23,2.66l-3.94-.72c.11-.59,.16-1.24,.16-1.94,0-.2,0-.41-.01-.62Zm-.32-2.73c-.16-.86-.38-1.79-.65-2.76l3.85-1.08c.3,1.09,.55,2.14,.73,3.12l-3.94,.72Zm-1.52-5.52c-.3-.87-.66-1.78-1.04-2.73l3.7-1.52c.41,1.01,.79,1.99,1.12,2.92l-3.77,1.33Zm.97,13.52l3.83,1.14c-.29,.99-.62,1.98-.95,2.96l-3.78-1.31c.32-.92,.62-1.86,.9-2.79Zm6.86,7.06l-3.64-1.66c.4-.87,.8-1.77,1.21-2.7l3.66,1.6c-.41,.95-.82,1.86-1.23,2.75Zm2.33-5.91l-3.89-.93c.19-.81,.32-1.69,.38-2.61l3.99,.26c-.07,1.15-.24,2.26-.48,3.29Zm.47-6.53l-3.99,.26c-.06-.89-.16-1.82-.32-2.78l3.95-.64c.17,1.08,.3,2.14,.36,3.16Zm-.98-6.23l-3.89,.94c-.21-.89-.47-1.82-.76-2.77l3.83-1.17c.31,1.02,.59,2.03,.82,3Zm-2.89-8.79c.39,.95,.75,1.91,1.1,2.87l-3.77,1.35c-.33-.91-.67-1.81-1.04-2.71l3.71-1.5Zm-2.49-5.58c.44,.91,.87,1.83,1.29,2.76l-3.65,1.63c-.4-.89-.81-1.78-1.24-2.65l3.6-1.74Zm-1.36-2.72l-3.55,1.84c-.46-.89-.92-1.75-1.38-2.6l3.51-1.92c.48,.87,.96,1.77,1.43,2.68Zm-4.46-7.93c.5,.83,1.02,1.7,1.54,2.61l-3.46,2c-.51-.88-1.01-1.73-1.5-2.54l3.42-2.07Zm-3.24-5.12c.5,.75,1.05,1.61,1.65,2.54l-3.38,2.14c-.58-.91-1.12-1.74-1.6-2.48l3.33-2.21Zm-7.74,4.71l3.33-2.22c.51,.76,1.07,1.62,1.68,2.56l-3.37,2.16c-.59-.92-1.14-1.76-1.64-2.5Zm3.23,5.03l3.41-2.1c.51,.84,1.04,1.71,1.58,2.62l-3.44,2.04c-.52-.89-1.04-1.74-1.54-2.56Zm4.46,7.75c-.47-.89-.95-1.76-1.43-2.61l3.49-1.96c.5,.88,.99,1.78,1.48,2.7l-3.53,1.88Zm2.63,5.31c-.41-.89-.83-1.79-1.27-2.67l3.58-1.78c.46,.92,.91,1.86,1.33,2.79l-3.64,1.66Zm1.26,24.48l3.71,1.49c-.38,.95-.79,1.91-1.23,2.86l-3.64-1.66c.41-.89,.79-1.8,1.15-2.69Zm-2.43,5.32l3.56,1.83c-.46,.91-.96,1.82-1.48,2.73l-3.47-1.98c.48-.84,.95-1.7,1.4-2.58Zm-2.91,5.11l3.39,2.11c-.54,.87-1.1,1.74-1.68,2.59l-3.32-2.23c.55-.82,1.08-1.64,1.61-2.48Zm-3.29,4.92l3.26,2.32c-.59,.83-1.19,1.65-1.8,2.48l-3.21-2.39c.6-.8,1.18-1.6,1.75-2.41Zm-3.56,4.8l3.18,2.43c-.61,.8-1.23,1.6-1.86,2.4l-3.15-2.46c.62-.8,1.24-1.59,1.84-2.38Zm-3.7,4.75l3.15,2.47-1.86,2.38-3.15-2.46,1.86-2.38Zm-3.7,4.91l3.25,2.33c-.48,.67-1.08,1.5-1.79,2.47l-3.23-2.36c.7-.96,1.29-1.78,1.77-2.44Zm-3.56,4.87l3.21,2.39c-.57,.76-1.18,1.58-1.82,2.44l-3.2-2.41c.64-.85,1.25-1.66,1.81-2.42Zm-3.63,4.82l3.17,2.43c-.6,.78-1.22,1.58-1.86,2.41l-3.16-2.45c.64-.82,1.25-1.62,1.84-2.39Zm-3.7,4.76l3.14,2.48c-.62,.78-1.25,1.57-1.9,2.38l-3.12-2.5c.64-.8,1.27-1.59,1.88-2.36Zm-3.77,4.7l3.1,2.53c-.63,.78-1.28,1.56-1.93,2.35l-3.08-2.55c.65-.78,1.29-1.56,1.91-2.32Zm-3.84,4.63l3.05,2.58c-.65,.77-1.31,1.54-1.97,2.32l-3.03-2.61c.66-.77,1.31-1.53,1.95-2.29Zm-3.92,4.56l3,2.64c-.67,.76-1.34,1.52-2.02,2.28l-2.98-2.67c.67-.75,1.33-1.49,1.99-2.24Zm-4.01,4.47l2.95,2.71c-.69,.75-1.38,1.5-2.08,2.23l-2.91-2.75c.69-.73,1.37-1.46,2.04-2.19Zm-4.12,4.36l2.87,2.79c-.71,.73-1.43,1.46-2.15,2.18l-2.82-2.83c.7-.7,1.41-1.41,2.11-2.13Zm-4.24,4.22l2.77,2.89c-.75,.72-1.49,1.42-2.24,2.1l-2.71-2.95c.73-.67,1.45-1.35,2.17-2.04Zm-4.39,4.03l2.64,3.01c-.79,.69-1.57,1.36-2.35,2l-2.55-3.08c.75-.62,1.5-1.26,2.26-1.92Zm-4.57,3.77l2.44,3.17c-.84,.65-1.68,1.26-2.5,1.85l-2.3-3.27c.78-.55,1.57-1.13,2.37-1.75Zm-4.8,3.36l2.12,3.39c-.93,.58-1.85,1.12-2.74,1.59l-1.88-3.53c.8-.43,1.64-.91,2.49-1.45Zm-2.81,12.04c-.88,.22-1.92,.42-3.1,.61l-.62-3.95c1.06-.17,1.99-.35,2.76-.54l.96,3.88Zm-4.1-8.71c.6-.18,1.23-.41,1.87-.67l1.52,3.7c-.76,.31-1.51,.58-2.23,.8-.28,.09-.58,.17-.9,.25l-.98-3.88c.26-.06,.5-.13,.72-.2Zm-2.05,9.72c-.95,.11-1.96,.21-3.03,.3l-.34-3.99c1.03-.09,2.01-.18,2.92-.29l.45,3.97Zm-1.46-8.97l.62,3.95c-.92,.15-1.96,.28-3.08,.41l-.45-3.97c1.05-.12,2.02-.25,2.91-.39Zm-4.85,5.51l.27,3.99c-.97,.06-1.97,.12-3.01,.18l-.21-3.99c1.02-.05,2.01-.11,2.96-.18Zm-1.01-4.83l.34,3.99c-.97,.08-1.99,.16-3.05,.23l-.27-3.99c1.04-.07,2.03-.15,2.98-.23Zm-4.73,9.14c-.97,.04-1.98,.08-3,.11l-.13-4c1.02-.03,2-.07,2.97-.11l.17,4Zm-1.24-8.74l.21,3.99c-.98,.05-2,.1-3.04,.14l-.17-4c1.03-.04,2.03-.09,3-.14Zm-4.87,4.94l.11,4c-.98,.03-1.98,.05-3,.07l-.08-4c1.01-.02,2-.04,2.97-.07Zm-1.12-4.69l.13,4c-.99,.03-2,.06-3.04,.09l-.1-4c1.02-.03,2.03-.06,3.01-.09Zm-4.83,4.81l.06,4c-.98,.01-1.98,.03-3,.04l-.04-4c1.01,0,2-.02,2.98-.04Zm-1.19-4.65l.08,4c-.99,.02-2,.04-3.03,.05l-.06-4c1.02-.01,2.03-.03,3.01-.05Zm-4.74,8.71c-.99,0-1.98,0-3,.01v-4c1,0,1.99,0,2.97-.01l.02,4Zm-1.28-8.62l.04,4c-1,0-2.01,.02-3.03,.02l-.02-4c1.02,0,2.02-.01,3.01-.02Zm-4.71,8.63c-.99,0-1.99,0-3-.01l.02-4c1,0,2,0,2.98,.01v4Zm-4.34-8.61h2.01s1,0,1,0v4s-1,0-1,0h-2.02s0-4,0-4Zm-1.65,8.58l-2.99-.03,.04-4,2.98,.03-.03,4Zm-4.38-8.61l3.02,.02-.02,4-3.03-.02,.03-4Zm-1.6,8.55l-2.99-.04,.06-4,2.98,.04-.05,4Zm-4.43-8.61l3.02,.04-.04,4-3.03-.04,.05-4Zm-1.55,8.52l-2.99-.06,.08-4,2.98,.06-.07,4Zm-4.49-8.61l3.02,.05-.06,4-3.03-.05,.07-4Zm-1.5,8.5l-2.99-.07,.09-4,2.99,.07-.09,4Zm-4.54-8.62l3.02,.06-.08,4-3.03-.06,.09-4Zm-1.44,8.48l-2.99-.08,.11-4,2.99,.08-.1,4Zm-4.6-8.62l3.02,.07-.09,4-3.03-.07,.1-4Zm-1.38,8.46l-2.99-.09,.12-4,2.98,.09-.11,4Zm-4.66-8.63l3.02,.08-.11,4-3.03-.08,.11-4Zm-1.32,8.45l-2.99-.09,.13-4,2.98,.09-.12,4Zm-4.71-8.63l3.01,.09-.12,4-3.02-.09,.12-4Zm-1.27,8.44l-2.99-.1,.14-4,2.99,.1-.13,4Zm-4.77-8.63l3.02,.1-.13,4-3.03-.1,.14-4Zm-1.22,8.43l-2.99-.11,.15-4,2.99,.11-.14,4Zm-4.83-8.64l3.03,.11-.14,4-3.04-.11,.15-4Zm-1.14,8.42l-2.99-.12,.16-4,2.99,.12-.15,4Zm-4.89-8.64l3.02,.12-.15,4-3.03-.12,.16-4Zm-1.08,8.41l-2.99-.12,.17-4,2.99,.12-.16,4Zm-4.95-8.65l3.02,.12-.16,4-3.03-.12,.17-4Zm-1.02,8.4l-2.99-.13,.18-4,2.98,.13-.17,4Zm-5.02-8.65l3.02,.13-.17,4-3.02-.13,.17-4Zm-.96,8.39l-2.99-.14,.19-4,2.98,.14-.18,4Zm-5.08-8.66l3.02,.14-.18,4-3.02-.14,.18-4Zm-.9,8.38l-2.99-.14,.19-4,2.98,.14-.19,4Zm-5.14-8.67l3.02,.14-.19,4-3.02-.14,.19-4Zm-.84,8.38l-2.99-.15,.2-3.99,2.98,.15-.2,4Zm-5.2-8.67l3.02,.15-.2,4-3.02-.15,.2-4Zm-.77,8.37l-2.99-.16,.21-3.99,2.98,.16-.21,4Zm-5.26-8.68l3.02,.16-.21,4-3.02-.16,.21-3.99Zm-.71,8.36l-2.99-.16,.22-3.99,2.98,.16-.22,3.99Zm-5.32-8.69l3.02,.16-.21,3.99-3.02-.16,.22-3.99Zm-30.55,6.39c-1.1-.09-2.11-.18-3-.26l.37-3.98c.89,.08,1.88,.17,2.96,.26l-.33,3.99Zm5.99,.46c-1.05-.08-2.05-.15-2.99-.22l.3-3.99c.94,.07,1.94,.15,2.98,.22l-.29,3.99Zm5.98,.41l-2.99-.2,.28-3.99,2.98,.2-.27,3.99Zm17.93,1.1l-2.99-.17,.23-3.99,2.98,.17-.23,3.99Zm-5.39-8.69l3.02,.17-.22,3.99-3.02-.17,.23-3.99Zm-.59,8.35l-2.99-.18,.24-3.99,2.98,.18-.24,3.99Zm-5.44-8.7l3.02,.18-.23,3.99-3.02-.18,.24-3.99Zm-.53,8.34l-2.99-.19,.26-3.99,2.98,.19-.25,3.99Zm-5.5-8.71l3.02,.19-.25,3.99-3.02-.19,.25-3.99Zm-6.03-.4l3.01,.2-.26,3.99-3.02-.2,.27-3.99Zm-6.03-.43c.96,.07,1.96,.14,3.01,.22l-.28,3.99c-1.06-.08-2.07-.15-3.03-.22l.3-3.99Zm-6.01-.48c.91,.08,1.91,.16,3,.25l-.32,3.99c-1.1-.09-2.12-.17-3.04-.25l.35-3.98Zm-1.36,4.03c.34,.06,.82,.12,1.42,.19l-.46,3.97c-.68-.08-1.22-.15-1.61-.22-.48-.08-.97-.17-1.46-.25l.7-3.94c.48,.08,.95,.17,1.42,.24Zm-5.14-.95l.63-3.74,.56,.09c.49,.08,1.27,.18,2.32,.29l-.42,3.98c-1-.1-1.75-.2-2.31-.28l-.74,3.76c-.99-.19-1.97-.4-2.96-.61l.83-3.91c.69,.15,1.39,.29,2.08,.43Zm-5.94-1.29l.65-3.5c.95,.18,1.94,.36,2.96,.54l-.7,3.94c-.7-.12-1.36-.25-2.03-.37l-.8,3.52c-.99-.23-1.97-.46-2.93-.69l.94-3.89c.63,.15,1.28,.3,1.92,.45Zm-21.7-5.98l-1.47,2.88c-1-.51-1.92-1.02-2.74-1.51l2.05-3.43c.15,.09,.32,.18,.48,.27l2.12-2.78c.72,.55,1.52,1.1,2.32,1.59l-2.09,3.41c-.23-.14-.45-.29-.68-.44Zm5.21,2.6l-.93,2.76c-.62-.21-1.13-.4-1.51-.55-.44-.18-.93-.38-1.44-.61l1.62-3.66c.38,.17,.74,.32,1.07,.46l1.17-2.69c.13,.06,.25,.11,.37,.16,.56,.22,1.32,.48,2.25,.75l-1.13,3.84c-.53-.16-1.02-.31-1.46-.46Zm5.72,1.58l-.83,2.95c-1.05-.3-2.03-.58-2.91-.85l1.15-3.83c.49,.15,1.02,.3,1.57,.46l.74-2.93c.89,.22,1.85,.45,2.89,.69l-.88,3.9c-.6-.14-1.18-.27-1.73-.4Zm2.07,3.75l1.03-3.86c.57,.15,1.16,.31,1.76,.46l.67-3.21c.93,.2,1.91,.4,2.94,.6l-.77,3.92c-.65-.13-1.28-.25-1.89-.38l-.82,3.23c-1.01-.26-1.98-.51-2.92-.76Z"/>
  <path class="m" d="M393.95,67.92c-2.91,0-5.26,2.36-5.26,5.26s2.36,5.26,5.26,5.26,5.26-2.36,5.26-5.26-2.36-5.26-5.26-5.26Z"/>
  <path class="u" d="M401.85,56.74c2.15,0,3.99-1.29,4.81-3.14-.29,.15-.57,.31-.86,.5-.68,.47-1.21,1.67-1.97,1.97-.93,.37-3.95,0-3.95,0,0,0-.82-.49-1.96-1.15,.96,1.1,2.36,1.8,3.94,1.8Z"/>
  <path class="u" d="M369.61,77.79c1.03,0,1.98-.31,2.79-.82-2.76,1.2-6.51-.99-6.95-1.26,.96,1.25,2.46,2.08,4.16,2.08Z"/>
  <path class="u" d="M330.8,98.83c-.24-.18-.46-.36-.69-.54,.97,1.13,2.38,1.86,3.98,1.86,2.91,0,5.26-2.36,5.26-5.26,0,0-2.99,8.03-8.55,3.95Z"/>
  <path class="u" d="M300.04,120.7c.93,1.48,2.57,2.47,4.45,2.47,2.91,0,5.26-2.36,5.26-5.26,0-.31-.04-.6-.09-.89-.75,4.48-3.21,8.34-9.62,3.68Z"/>
  <path class="u" d="M267.1,141.86s-1.14-.71-2.36-2.3c.77,1.96,2.66,3.35,4.89,3.35,2.02,0,3.76-1.15,4.64-2.83-.26,.12-.42,.18-.42,.18-4.34,4.59-6.74,1.6-6.74,1.6Z"/>
  <path class="u" d="M230.54,159.18c.96,1.3,2.48,2.15,4.22,2.15,1.82,0,3.43-.93,4.37-2.33-1.47,.95-5.25,2.89-8.59,.19Z"/>
  <path class="u" d="M194.64,178.43c-.7,.46-2.47,.77-4.55,.61,.76,.43,1.64,.7,2.58,.7,2.48,0,4.54-1.72,5.1-4.02-.86,1.11-1.94,1.91-3.13,2.71Z"/>
  <path class="m" d="M295.94,150.14c2.91,0,5.26-2.36,5.26-5.26s-2.36-5.26-5.26-5.26-5.26,2.36-5.26,5.26,2.36,5.26,5.26,5.26Z"/>
  <path class="m" d="M262.39,167.9c2.91,0,5.26-2.36,5.26-5.26s-2.36-5.26-5.26-5.26-5.26,2.36-5.26,5.26,2.36,5.26,5.26,5.26Z"/>
  <path d="M697.42,162.04c-2.76-1.86-5.57-3.76-8.3-5.62-2.18-1.49-4.3-2.96-6.3-4.35-1-.7-1.97-1.38-2.9-2.04s-1.82-1.29-2.66-1.9c-1.68-1.21-3.17-2.31-4.4-3.25-11.18-8.55-36.18-26.97-44.73-27.63-8.55-.66-35.52,5.26-53.94,12.5-.42,.17-.87,.34-1.34,.52-.17,.07-.36,.14-.53,.21-.3,.12-.61,.23-.93,.36-.24,.09-.49,.19-.74,.28-.28,.11-.56,.21-.85,.32-.28,.11-.56,.21-.85,.32-.09,.04-.18,.07-.28,.1-6.96,2.62-16.76,6.2-26.96,9.89-1.54,.56-3.09,1.12-4.65,1.68-5.31,1.91-10.62,3.82-15.62,5.61-16.57,5.94-29.6,10.56-26.84,9.65,.05-.02,.08-.03,.1-.03,1.37-.4-40.79,15.29-92.35,33.13-15.26,5.28-31.34,10.74-47.36,16.03,0,0,0,0,0,0-1.31,.43-2.63,.87-3.94,1.3-.06,.02-.12,.04-.18,.06-1.29,.42-2.59,.85-3.88,1.27-.01,0-.02,0-.03,0-1.28,.42-2.57,.84-3.85,1.25-.13,.04-.26,.08-.38,.12-1.24,.4-2.47,.8-3.7,1.2-.03,0-.05,.02-.08,.03-1.27,.41-2.53,.82-3.79,1.22-.14,.04-.27,.09-.41,.13-1.22,.39-2.43,.78-3.64,1.17-.03,.01-.06,.02-.09,.03-1.24,.4-2.48,.79-3.72,1.18-.16,.05-.32,.1-.48,.15-1.17,.37-2.35,.74-3.51,1.11-.05,.02-.1,.03-.16,.05-1.21,.38-2.41,.76-3.6,1.13-.19,.06-.38,.12-.58,.18-1.13,.35-2.26,.7-3.38,1.05-.06,.02-.13,.04-.19,.06-1.18,.37-2.35,.73-3.53,1.09-.2,.06-.4,.12-.6,.18-1.1,.34-2.21,.68-3.3,1.01-.06,.02-.12,.04-.18,.06-1.16,.35-2.3,.7-3.45,1.05-.2,.06-.4,.12-.59,.18-1.08,.33-2.15,.65-3.22,.97-.06,.02-.12,.04-.19,.06-1.12,.33-2.23,.66-3.33,.99-.21,.06-.43,.13-.64,.19-1.04,.31-2.08,.61-3.1,.91-.06,.02-.13,.04-.19,.05-1.08,.32-2.15,.63-3.21,.93-.22,.06-.44,.13-.66,.19-.98,.28-1.96,.56-2.92,.84-.09,.03-.18,.05-.27,.08-1.03,.29-2.05,.58-3.07,.87-.23,.06-.46,.13-.69,.19-.95,.27-1.9,.53-2.83,.79-.07,.02-.15,.04-.22,.06-1,.28-1.98,.55-2.96,.81-.22,.06-.44,.12-.67,.18-.93,.25-1.85,.5-2.76,.75-.05,.01-.1,.03-.16,.04-.96,.26-1.9,.5-2.84,.75-.22,.06-.43,.11-.65,.17-.88,.23-1.75,.46-2.61,.68-.06,.02-.13,.03-.19,.05-.9,.23-1.79,.46-2.68,.68-.22,.05-.43,.11-.64,.16-.84,.21-1.67,.42-2.49,.61-.05,.01-.1,.02-.15,.04-.86,.21-1.7,.41-2.53,.61-.2,.05-.41,.1-.61,.14-.81,.19-1.61,.38-2.4,.56-.03,0-.06,.01-.08,.02-.81,.18-1.59,.36-2.38,.53-.2,.04-.39,.09-.59,.13-.77,.17-1.54,.33-2.29,.49h-.01c-.75,.16-1.49,.31-2.22,.46-.18,.04-.36,.07-.54,.11-.72,.14-1.43,.28-2.13,.41,0,0-59.2,3.29-138.8-5.26,0,0-9.18-.53-20.76,1.55-2.17,.39-4.42,.87-6.72,1.47-1.53,.4-3.08,.84-4.63,1.34-8.53,2.76-17.18,7.22-23.75,14.4-1.22,1.34-2.38,2.77-3.44,4.3-.53,.77-1.04,1.56-1.53,2.38-3.42,5.72-5.68,12.73-6.18,21.29-.05,.82-.08,1.65-.09,2.49-.02,.9-.01,1.82,0,2.75,0,0,0,.01,.02,.03,.05,.06,.16,.22,.35,.45,26.42,5.63,60.03,7.87,96.41,7.83,19.53-.02,39.86-.7,60.3-1.87,6.81-.39,13.64-.83,20.45-1.32,9.08-.65,18.15-1.39,27.12-2.2,23.94-2.16,47.29-4.82,68.91-7.69,1.54-.21,3.08-.41,4.61-.62,3.05-.41,6.07-.83,9.04-1.25,5.95-.84,11.74-1.7,17.34-2.56,36.6-5.63,74.33-9.21,74.33-9.21-.72,.34-1.45,.72-2.18,1.12-2.21,1.2-4.49,2.65-6.82,4.3,5.09-3.13,10.58-6.1,16.56-8.91,22.85-10.75,52.96-19.32,96.37-26.77,73-12.51,123.01-.66,123.01-.66,0,0,0,0,0,0,9.21-11.18,25-8.55,36.18-8.55s22.37,3.29,30.26,5.92c.99,.33,1.87,.69,2.64,1.08,0,0,10.51-23.44,9.2-40.54,0,0-1.97-9.21-.66-12.5,1.32-3.29,0-4.6-2.63-5.92-.32-.16-1.09-.62-2.2-1.32-3.54-2.22-10.62-6.85-18.29-11.98-.55-.37-1.1-.74-1.65-1.11Zm-103.4,34.44l-103.23,30.86c-9.12,2.73-19,.66-26.26-5.48l-13.64-11.54c-4-3.38-2.89-9.82,2.01-11.67l84.94-32.12c4.31-1.63,9.1-1.38,13.22,.68l43.62,21.81c3.27,1.64,2.86,6.43-.65,7.48Z"/>
  <polygon points="408.63 273.31 408.63 273.31 408.63 273.31 408.63 273.31"/>
  <path class="s" d="M594.67,189l-43.62-21.81c-4.12-2.06-8.91-2.3-13.22-.68l-84.94,32.12c-4.9,1.85-6.01,8.29-2.01,11.67l13.64,11.54c7.27,6.15,17.15,8.21,26.26,5.48l103.23-30.86c3.51-1.05,3.92-5.84,.65-7.48Z"/>
  <path class="l" d="M500.38,141.04s-.53,0-1.47-.03l-.04,1.79,1.5-.23,.02-1.53Z"/>
  <path class="l" d="M490.1,140.66c-.94-.05-1.92-.11-2.94-.17l-.25,3.99c.31,.02,.61,.04,.91,.05l2.09-.33,.19-3.55Z"/>
  <path class="l" d="M495.98,140.92c-.88-.03-1.86-.07-2.94-.12l-.13,2.94,2.99-.47,.08-2.35Z"/>
  <path class="l" d="M438.97,87.48l3.23,2.36c.58-.8,1.16-1.58,1.74-2.34l-3.19-2.42c-.59,.78-1.19,1.59-1.79,2.41Z"/>
  <path class="l" d="M455.32,136.18c-.97-.26-1.89-.53-2.74-.81l-1.23,3.8c.92,.3,1.9,.59,2.94,.87l1.03-3.86Z"/>
  <path class="l" d="M457.62,72.65c.68-.55,1.46-1.19,2.3-1.88l-2.54-3.09c-.83,.68-1.61,1.32-2.28,1.87l2.52,3.11Z"/>
  <path class="l" d="M460.96,137.46c-.97-.19-1.92-.39-2.84-.6l-.88,3.9c.96,.22,1.95,.42,2.96,.62l.77-3.93Z"/>
  <path class="l" d="M466.71,138.44c-.97-.14-1.93-.3-2.88-.46l-.67,3.94c.98,.17,1.97,.32,2.96,.47l.59-3.96Z"/>
  <path class="l" d="M472.52,139.21c-.97-.11-1.94-.23-2.91-.36l-.53,3.97c.99,.13,1.98,.25,2.97,.37l.46-3.97Z"/>
  <path class="l" d="M484.22,140.3c-.96-.07-1.94-.14-2.93-.22l-.32,3.99c1.01,.08,2,.16,2.97,.23l.29-3.99Z"/>
  <path class="l" d="M432.38,117.68l-3.78,1.3c.14,.4,.54,1.48,1.34,2.99l3.54-1.87c-.68-1.29-1.01-2.18-1.09-2.42Z"/>
  <path class="l" d="M478.36,139.82c-.96-.09-1.94-.18-2.92-.29l-.41,3.98c1,.1,1.99,.2,2.97,.29l.37-3.98Z"/>
  <path class="l" d="M433.42,127.21l3.1-2.52c-.59-.72-1.14-1.47-1.64-2.23l-3.33,2.22c.57,.86,1.2,1.71,1.87,2.53Z"/>
  <polygon class="l" points="464.5 66.99 461.94 63.91 459.66 65.8 462.21 68.88 464.5 66.99"/>
  <rect class="l" x="465.15" y="60.61" width="2.96" height="4" transform="translate(68.22 313.48) rotate(-39.84)"/>
  <path class="l" d="M429.59,103.13l3.75,1.4c.32-.84,.68-1.7,1.09-2.55l-3.61-1.73c-.46,.96-.87,1.93-1.23,2.88Z"/>
  <path class="l" d="M437.8,131.7l2.61-3.03c-.7-.6-1.39-1.25-2.03-1.9l-2.86,2.79c.72,.74,1.49,1.46,2.29,2.14Z"/>
  <path class="l" d="M449.94,134.41c-.88-.35-1.74-.74-2.56-1.15l-1.78,3.58c.91,.45,1.87,.88,2.83,1.27l1.5-3.71Z"/>
  <path class="l" d="M442.87,135.35l2.06-3.43c-.8-.48-1.58-.99-2.33-1.53l-2.33,3.25c.84,.6,1.72,1.18,2.61,1.71Z"/>
  <path class="l" d="M432.7,96.81c-.14,.23-.28,.46-.41,.69l3.45,2.02c.12-.21,.25-.41,.37-.62,.37-.61,.76-1.22,1.14-1.83l-3.38-2.15c-.4,.63-.79,1.26-1.18,1.9Z"/>
  <path class="l" d="M446.39,78.06l3.04,2.6c.67-.79,1.31-1.52,1.92-2.19l-2.98-2.67c-.62,.69-1.29,1.45-1.98,2.27Z"/>
  <path class="l" d="M435.53,92.39l3.32,2.23c.54-.81,1.09-1.62,1.65-2.41l-3.28-2.29c-.57,.81-1.14,1.64-1.7,2.48Z"/>
  <path class="l" d="M431.95,109.84c.13-.88,.32-1.78,.55-2.68l-3.87-1.02c-.27,1.04-.49,2.09-.64,3.11l3.96,.58Z"/>
  <path class="l" d="M431.71,112.99c0-.15,0-.3,0-.46l-4-.09c0,.19,0,.37,0,.55,0,.92,.05,1.82,.16,2.69l3.97-.48c-.08-.71-.13-1.45-.13-2.21Z"/>
  <path class="l" d="M442.59,82.7l3.14,2.48c.62-.79,1.23-1.55,1.83-2.28l-3.1-2.53c-.61,.75-1.24,1.53-1.88,2.34Z"/>
  <path class="l" d="M450.44,73.57l2.87,2.79c1.12-1.15,1.7-1.65,1.95-1.85l-2.47-3.15c-.59,.46-1.38,1.2-2.36,2.21Z"/>
  <polygon class="l" points="469.46 57.64 468.71 58.27 471.27 61.34 472.43 60.38 471.14 58.84 469.86 57.31 469.46 57.64"/>
  <path class="l" d="M454.66,47.57c-.42,.29-1.02,.69-1.8,1.21l2.23,3.32c1.62-1.09,2.53-1.7,2.53-1.7l-1.12-1.65-1.12-1.66s-.25,.17-.71,.48Z"/>
  <path class="l" d="M359.11,102.66l.89-3.64c.36,.09,.71,.18,1.07,.25l.79-3.92c-.89-.18-1.78-.42-2.66-.71l-1.17,3.54c-.21-.07-.42-.13-.62-.21l-1.37,3.76c1.01,.37,2.05,.68,3.07,.93Z"/>
  <polygon class="l" points="437.44 63.67 435.28 60.31 432.75 61.93 434.91 65.3 437.44 63.67"/>
  <polygon class="l" points="432.36 66.92 430.22 63.54 427.69 65.14 429.82 68.53 432.36 66.92"/>
  <polygon class="l" points="442.5 60.4 440.32 57.05 437.8 58.68 439.97 62.04 442.5 60.4"/>
  <polygon class="l" points="452.57 53.78 450.36 50.45 447.85 52.11 450.06 55.44 452.57 53.78"/>
  <path class="l" d="M347.54,92.45l-2.39,2.87c.82,.68,1.65,1.32,2.49,1.92l2.32-3.26c-.11-.08-.23-.17-.34-.25l2.2-2.99c-.75-.55-1.49-1.14-2.21-1.77l-2.63,3.02c.18,.16,.37,.31,.55,.46Z"/>
  <rect class="l" x="443.68" y="54.26" width="3.01" height="4" transform="translate(42.27 253.78) rotate(-33.32)"/>
  <path class="l" d="M379.49,96.67l1.28,3.23c.92-.36,1.86-.75,2.83-1.17l-1.57-3.68c-.85,.36-1.68,.7-2.49,1.03l-1.32-3.21c-.95,.39-1.86,.75-2.72,1.06l1.36,3.76c.82-.3,1.71-.64,2.63-1.02Z"/>
  <path class="l" d="M417.02,76.45l-2.08-3.42c-.85,.52-1.71,1.04-2.57,1.55l2.06,3.43c.86-.52,1.72-1.04,2.58-1.56Z"/>
  <path class="l" d="M411.85,79.56l-2.04-3.44c-.86,.51-1.72,1.02-2.58,1.52l2.03,3.45c.86-.51,1.73-1.02,2.59-1.54Z"/>
  <path class="l" d="M406.65,82.62l-2.01-3.46c-.87,.5-1.73,1-2.59,1.5l1.99,3.47c.87-.5,1.74-1,2.61-1.51Z"/>
  <path class="l" d="M365.54,99.75c.21,0,.42,.02,.63,.02,.45,0,.91-.01,1.36-.04l-.21-3.99c-.93,.05-1.85,.04-2.75-.03l-.27,3.71c-.51-.03-1.02-.08-1.52-.14l-.5,3.97c1.06,.13,2.15,.21,3.22,.22l.04-3.72Z"/>
  <path class="l" d="M422.16,73.31l-2.1-3.4c-.85,.52-1.7,1.05-2.55,1.57l2.09,3.41c.86-.53,1.72-1.05,2.57-1.58Z"/>
  <path class="l" d="M350.29,98.98c.92,.55,1.86,1.06,2.8,1.51l1.62-3.36c.08,.04,.16,.08,.23,.12l1.69-3.63c-.83-.38-1.65-.82-2.46-1.31l-2.05,3.43s.06,.03,.09,.05l-1.91,3.19Z"/>
  <polygon class="l" points="427.27 70.13 425.15 66.74 422.6 68.33 424.72 71.72 427.27 70.13"/>
  <path class="l" d="M459.52,50.74c-.42,.27-1.13,.73-2.1,1.36l2.17,3.36c1.65-1.06,2.56-1.66,2.56-1.66l-1.52-2.31-.68-1.03s-.15,.1-.44,.28Z"/>
  <polygon class="l" points="451.95 60.34 449.82 56.96 447.27 58.56 449.4 61.94 451.95 60.34"/>
  <path class="l" d="M342.81,93.25l2.75-2.91c-.23-.22-.45-.46-.68-.69l2.66-2.63c-.66-.66-1.31-1.37-1.95-2.11l-3.02,2.62c.27,.31,.54,.6,.81,.9l-2.76,2.6c.72,.76,1.46,1.51,2.2,2.21Z"/>
  <path class="l" d="M395.57,88.85l1.73,3.38c.89-.45,1.78-.92,2.69-1.39l-1.86-3.54c-.7,.37-1.4,.73-2.09,1.08l-1.82-3.35c-.89,.48-1.77,.95-2.63,1.41l1.88,3.53c.69-.37,1.4-.75,2.1-1.13Z"/>
  <path class="l" d="M400.81,85.96l1.85,3.47c.88-.47,1.77-.95,2.66-1.43l-1.9-3.52c-.68,.37-1.35,.73-2.02,1.09l-1.94-3.44c-.88,.49-1.75,.98-2.61,1.46l1.94,3.5c.67-.37,1.35-.75,2.02-1.13Z"/>
  <polygon class="l" points="441.73 66.72 439.63 63.32 437.08 64.89 439.17 68.3 441.73 66.72"/>
  <path class="l" d="M377.9,100.99l-1.35-3.76c-.97,.35-1.9,.66-2.76,.92l1.17,3.83c.92-.28,1.91-.61,2.94-.98Z"/>
  <path class="l" d="M436.6,69.87l-2.08-3.42c-.84,.51-1.7,1.03-2.56,1.56l2.07,3.42c.87-.53,1.73-1.05,2.58-1.56Z"/>
  <polygon class="l" points="454.5 58.72 457.04 57.1 454.89 53.73 452.35 55.35 454.5 58.72"/>
  <path class="l" d="M390.28,91.63l1.61,3.31c.89-.43,1.8-.88,2.71-1.34l-1.79-3.58c-.74,.37-1.46,.72-2.18,1.07l-1.68-3.27c-.9,.46-1.79,.91-2.66,1.35l1.78,3.58c.72-.36,1.46-.74,2.21-1.12Z"/>
  <path class="l" d="M406.03,83.05l1.93,3.5c.88-.48,1.76-.97,2.64-1.46l-1.95-3.49c-.88,.49-1.75,.97-2.62,1.45Z"/>
  <path class="l" d="M421.65,74.15l2.02,3.45c.87-.51,1.74-1.02,2.6-1.53l-2.04-3.44c-.86,.51-1.72,1.01-2.58,1.52Z"/>
  <polygon class="l" points="429.38 69.56 426.81 71.1 428.86 74.53 431.44 72.99 429.38 69.56"/>
  <path class="l" d="M370.26,103.11c.53-.08,1.08-.19,1.66-.32l-.78-3.49c.76-.14,1.53-.31,2.29-.51l.46-.13-1.09-3.85-.4,.11c-.77,.21-1.55,.38-2.32,.51l.6,3.52c-.35,.07-.71,.15-1.04,.2-.45,.07-.89,.13-1.32,.18l.42,3.98c.51-.05,1.02-.12,1.53-.2Z"/>
  <path class="l" d="M411.27,80.13l1.96,3.48c.88-.49,1.75-.99,2.62-1.49l-1.98-3.47c-.87,.5-1.74,.99-2.6,1.48Z"/>
  <polygon class="l" points="446.85 63.54 444.73 60.15 442.18 61.74 444.29 65.14 446.85 63.54"/>
  <path class="l" d="M416.47,77.17l2,3.46c.87-.5,1.74-1,2.6-1.51l-2.01-3.46c-.86,.5-1.72,1-2.59,1.5Z"/>
  <path class="l" d="M384.93,94.27l1.46,3.25c.9-.41,1.82-.83,2.76-1.27l-1.7-3.62c-.78,.37-1.54,.72-2.3,1.06l-1.53-3.22c-.92,.44-1.82,.85-2.69,1.24l1.63,3.65c.77-.34,1.56-.71,2.36-1.09Z"/>
  <path class="l" d="M341.59,86.14c-.3-.36-.59-.74-.89-1.11l3.05-2.34c-.58-.75-1.15-1.54-1.7-2.34l-1.37,.94c-.32,2.23-.57,4.37-.76,6.27l1.67-1.41Z"/>
  <path class="l" d="M312.47,89.22l-2.85,2.08s.31,.43,.84,1.19l3.28-2.29c-.49-.7-.79-1.11-.86-1.21-.01-.02-.03-.04-.03-.04l-.38,.28Z"/>
  <path class="l" d="M76.43,220.49c-1.05-.07-2.06-.15-3.01-.22l-.3,3.99c.96,.07,1.97,.15,3.03,.22l.28-3.99Z"/>
  <rect class="l" x="181.54" y="225.78" width="4" height="3.02" transform="translate(-47.5 406.1) rotate(-88.81)"/>
  <rect class="l" x="109.02" y="223.05" width="4" height="3.02" transform="translate(-118.98 323.82) rotate(-87.04)"/>
  <path class="l" d="M321.78,150.07l-3.39-2.11c-.52,.84-1.06,1.66-1.61,2.48l3.32,2.23c.57-.86,1.13-1.72,1.68-2.59Z"/>
  <polygon class="l" points="82.46 220.9 79.44 220.7 79.17 224.69 82.19 224.89 82.46 220.9"/>
  <path class="l" d="M324.85,144.68l-3.56-1.83c-.45,.88-.92,1.74-1.4,2.58l3.47,1.98c.52-.91,1.02-1.83,1.48-2.73Z"/>
  <rect class="l" x="96.93" y="222.39" width="4" height="3.02" transform="translate(-130.22 309.98) rotate(-86.75)"/>
  <rect class="l" x="84.85" y="221.67" width="4" height="3.03" transform="translate(-141.34 295.88) rotate(-86.41)"/>
  <rect class="l" x="163.42" y="225.32" width="4" height="3.02" transform="translate(-66.39 385.19) rotate(-88.24)"/>
  <rect class="l" x="102.98" y="222.73" width="4" height="3.02" transform="translate(-124.6 316.96) rotate(-86.91)"/>
  <rect class="l" x="169.45" y="225.49" width="4" height="3.02" transform="translate(-60.2 392.11) rotate(-88.42)"/>
  <rect class="l" x="175.5" y="225.65" width="4" height="3.03" transform="translate(-53.95 399.02) rotate(-88.59)"/>
  <path class="l" d="M70.4,220.04c-1.09-.09-2.09-.17-3-.25l-.35,3.98c.92,.08,1.93,.17,3.04,.25l.32-3.99Z"/>
  <polygon class="l" points="191.14 225.44 188.12 225.38 188.04 229.38 191.07 229.44 191.14 225.44"/>
  <rect class="l" x="151.32" y="224.9" width="4" height="3.03" transform="translate(-78.46 371.51) rotate(-87.94)"/>
  <polygon class="l" points="94.52 221.65 91.51 221.47 91.26 225.46 94.29 225.64 94.52 221.65"/>
  <path class="l" d="M300.12,179.46l-3.17-2.43c-.59,.77-1.21,1.57-1.84,2.39l3.16,2.45c.64-.83,1.26-1.63,1.86-2.41Z"/>
  <path class="l" d="M296.38,184.26l-3.14-2.48c-.61,.77-1.24,1.56-1.88,2.36l3.12,2.5c.65-.81,1.28-1.6,1.9-2.38Z"/>
  <polygon class="l" points="209.25 229.58 209.25 225.58 208.25 225.58 206.23 225.58 206.22 229.58 208.25 229.58 209.25 229.58"/>
  <path class="l" d="M292.57,189.01l-3.1-2.53c-.62,.77-1.26,1.54-1.91,2.32l3.08,2.55c.66-.79,1.3-1.58,1.93-2.35Z"/>
  <path class="l" d="M284.71,198.31l-3-2.64c-.66,.75-1.32,1.5-1.99,2.24l2.98,2.67c.68-.76,1.35-1.52,2.02-2.28Z"/>
  <polygon class="l" points="310.99 164.89 307.84 162.42 305.98 164.8 309.13 167.26 310.99 164.89"/>
  <path class="l" d="M307.39,169.67l-3.25-2.33c-.48,.66-1.07,1.48-1.77,2.44l3.23,2.36c.71-.97,1.31-1.8,1.79-2.47Z"/>
  <path class="l" d="M288.68,193.7l-3.05-2.58c-.64,.76-1.29,1.52-1.95,2.29l3.03,2.61c.67-.77,1.33-1.55,1.97-2.32Z"/>
  <path class="l" d="M303.79,174.59l-3.21-2.39c-.56,.76-1.17,1.56-1.81,2.42l3.2,2.41c.65-.86,1.26-1.67,1.82-2.44Z"/>
  <path class="l" d="M280.64,202.85l-2.95-2.71c-.68,.74-1.36,1.47-2.04,2.19l2.91,2.75c.7-.74,1.39-1.48,2.08-2.23Z"/>
  <rect class="l" x="127.14" y="223.93" width="4" height="3.02" transform="translate(-101.91 344.25) rotate(-87.41)"/>
  <rect class="l" x="133.18" y="224.19" width="4" height="3.03" transform="translate(-96.12 351.07) rotate(-87.54)"/>
  <path class="l" d="M215.31,229.55l-.04-4c-.99,0-2,.02-3.01,.02l.02,4c1.02,0,2.03-.01,3.03-.02Z"/>
  <path class="l" d="M245.77,227.92l-.62-3.95c-.88,.14-1.86,.27-2.91,.39l.45,3.97c1.12-.13,2.16-.27,3.08-.41Z"/>
  <path class="l" d="M257.69,223.28l-2.12-3.39c-.85,.53-1.69,1.02-2.49,1.45l1.88,3.53c.89-.47,1.81-1.01,2.74-1.59Z"/>
  <rect class="l" x="145.27" y="224.68" width="4" height="3.02" transform="translate(-84.42 364.66) rotate(-87.8)"/>
  <rect class="l" x="139.23" y="224.45" width="4" height="3.02" transform="translate(-90.29 357.87) rotate(-87.67)"/>
  <path class="l" d="M276.44,207.29l-2.87-2.79c-.7,.72-1.4,1.43-2.11,2.13l2.82,2.83c.72-.71,1.43-1.44,2.15-2.18Z"/>
  <path class="l" d="M272.1,211.61l-2.77-2.89c-.72,.7-1.45,1.38-2.17,2.04l2.71,2.95c.75-.69,1.49-1.39,2.24-2.1Z"/>
  <path class="l" d="M267.57,215.77l-2.64-3.01c-.75,.66-1.51,1.3-2.26,1.92l2.55,3.08c.78-.64,1.56-1.31,2.35-2Z"/>
  <path class="l" d="M262.8,219.7l-2.44-3.17c-.8,.61-1.58,1.2-2.37,1.75l2.3,3.27c.83-.58,1.66-1.2,2.5-1.85Z"/>
  <rect class="l" x="121.1" y="223.65" width="4" height="3.02" transform="translate(-107.63 337.46) rotate(-87.29)"/>
  <polygon class="l" points="197.18 225.52 194.16 225.48 194.1 229.48 197.13 229.52 197.18 225.52"/>
  <rect class="l" x="157.38" y="225.12" width="4" height="3.03" transform="translate(-72.43 378.38) rotate(-88.09)"/>
  <path class="l" d="M221.38,229.46l-.08-4c-.99,.02-1.99,.04-3.01,.05l.06,4c1.03-.01,2.04-.03,3.03-.05Z"/>
  <path class="l" d="M239.63,228.63l-.34-3.99c-.95,.08-1.94,.16-2.98,.23l.27,3.99c1.06-.07,2.08-.15,3.05-.23Z"/>
  <polygon class="l" points="203.21 225.57 200.19 225.55 200.16 229.55 203.19 229.57 203.21 225.57"/>
  <path class="l" d="M329.48,133.14l-3.83-1.14c-.28,.93-.58,1.87-.9,2.79l3.78,1.31c.34-.98,.66-1.97,.95-2.96Z"/>
  <path class="l" d="M330.31,130c.15-.82,.23-1.72,.23-2.66,0-.26,0-.53-.02-.8l-4,.18c0,.21,.01,.42,.01,.62,0,.7-.05,1.35-.16,1.94l3.94,.72Z"/>
  <rect class="l" x="115.06" y="223.35" width="4" height="3.02" transform="translate(-113.36 330.59) rotate(-87.15)"/>
  <path class="l" d="M325.55,121.23c.27,.97,.49,1.9,.65,2.76l3.94-.72c-.18-.99-.42-2.04-.73-3.12l-3.85,1.08Z"/>
  <path class="l" d="M323.63,115.75c.39,.94,.74,1.86,1.04,2.73l3.77-1.33c-.33-.93-.7-1.91-1.12-2.92l-3.7,1.52Z"/>
  <path class="l" d="M249.81,227.05c.72-.22,1.47-.49,2.23-.8l-1.52-3.7c-.64,.26-1.27,.49-1.87,.67-.22,.07-.47,.13-.72,.2l.98,3.88c.32-.08,.62-.16,.9-.25Z"/>
  <path class="l" d="M227.45,229.31l-.13-4c-.98,.03-1.98,.06-3.01,.09l.1,4c1.03-.03,2.05-.06,3.04-.09Z"/>
  <path class="l" d="M327.44,139.01l-3.71-1.49c-.36,.89-.75,1.8-1.15,2.69l3.64,1.66c.43-.95,.85-1.91,1.23-2.86Z"/>
  <path class="l" d="M233.53,229.05l-.21-3.99c-.97,.05-1.97,.1-3,.14l.17,4c1.04-.04,2.06-.09,3.04-.14Z"/>
  <path class="l" d="M318.35,155.19l-3.26-2.32c-.57,.8-1.16,1.61-1.75,2.41l3.21,2.39c.61-.83,1.22-1.65,1.8-2.48Z"/>
  <path class="l" d="M324.77,108.59l-3.58,1.78c.44,.88,.87,1.78,1.27,2.67l3.64-1.66c-.43-.93-.87-1.87-1.33-2.79Z"/>
  <path class="l" d="M321.88,103.16l-3.49,1.96c.48,.85,.96,1.72,1.43,2.61l3.53-1.88c-.49-.92-.98-1.82-1.48-2.7Z"/>
  <path class="l" d="M315.46,92.73l-3.33,2.22c.5,.75,1.05,1.59,1.64,2.5l3.37-2.16c-.6-.94-1.17-1.8-1.68-2.56Z"/>
  <path class="l" d="M314.71,160.1l-3.18-2.43c-.6,.79-1.22,1.58-1.84,2.38l3.15,2.46c.63-.81,1.25-1.61,1.86-2.4Z"/>
  <path class="l" d="M318.77,97.88l-3.41,2.1c.5,.82,1.02,1.67,1.54,2.56l3.44-2.04c-.54-.91-1.07-1.79-1.58-2.62Z"/>
  <path class="l" d="M317.28,86.47l-3.22,2.36s.31,.43,.84,1.18l3.28-2.29c-.57-.81-.89-1.26-.89-1.26h0s0,0,0,0Z"/>
  <path class="l" d="M55.04,225.7l.8-3.52c.67,.12,1.33,.24,2.03,.37l.7-3.94c-1.02-.18-2-.36-2.96-.54l-.65,3.5c-.64-.15-1.29-.3-1.92-.45l-.94,3.89c.96,.23,1.94,.46,2.93,.69Z"/>
  <path class="l" d="M38.82,214.07c-.12-.05-.25-.1-.37-.16l-1.17,2.69c-.34-.14-.69-.29-1.07-.46l-1.62,3.66c.51,.23,1,.43,1.44,.61,.38,.15,.89,.34,1.51,.55l.93-2.76c.44,.15,.93,.3,1.46,.46l1.13-3.84c-.93-.27-1.68-.53-2.25-.75Z"/>
  <path class="l" d="M51.89,221.44l.77-3.92c-1.02-.2-2-.4-2.94-.6l-.67,3.21c-.6-.15-1.19-.31-1.76-.46l-1.03,3.86c.94,.25,1.91,.5,2.92,.76l.82-3.23c.61,.13,1.24,.25,1.89,.38Z"/>
  <rect class="l" x="129.4" y="228.47" width="4" height="2.99" transform="translate(-104.33 350.72) rotate(-87.38)"/>
  <rect class="l" x="123.43" y="228.19" width="4" height="2.99" transform="translate(-109.99 343.98) rotate(-87.26)"/>
  <path class="l" d="M43.91,215.59l-.74,2.93c-.55-.16-1.08-.31-1.57-.46l-1.15,3.83c.88,.27,1.85,.55,2.91,.85l.83-2.95c.55,.13,1.13,.27,1.73,.4l.88-3.9c-1.04-.24-2.01-.47-2.89-.69Z"/>
  <path class="l" d="M237.56,233.65c1.04-.06,2.04-.12,3.01-.18l-.27-3.99c-.95,.06-1.93,.12-2.96,.18l.21,3.99Z"/>
  <rect class="l" x="141.34" y="228.99" width="4" height="2.99" transform="translate(-92.87 364.19) rotate(-87.63)"/>
  <path class="l" d="M231.55,233.9c1.03-.03,2.03-.07,3-.11l-.17-4c-.96,.04-1.95,.08-2.97,.11l.13,4Z"/>
  <path class="l" d="M219.55,234.15c1.01-.01,2.01-.02,3-.04l-.06-4c-.98,.01-1.97,.03-2.98,.04l.04,4Z"/>
  <rect class="l" x="153.29" y="229.46" width="4" height="2.99" transform="translate(-81.21 377.66) rotate(-87.9)"/>
  <rect class="l" x="135.37" y="228.74" width="4" height="2.99" transform="translate(-98.61 357.48) rotate(-87.51)"/>
  <rect class="l" x="159.27" y="229.67" width="4" height="2.99" transform="translate(-75.28 384.44) rotate(-88.04)"/>
  <path class="l" d="M207.57,234.17c1.01,0,2.01,0,3,.01v-4c-.98,0-1.97,0-2.98-.01l-.02,4Z"/>
  <path class="l" d="M243.58,233.23c1.07-.09,2.08-.19,3.03-.3l-.45-3.97c-.91,.1-1.89,.2-2.92,.29l.34,3.99Z"/>
  <path class="l" d="M213.56,234.18c1.01,0,2.01,0,3-.01l-.02-4c-.98,0-1.97,0-2.98,.01v4Z"/>
  <path class="l" d="M70.02,228.29c.9,.08,1.9,.17,3,.26l.33-3.99c-1.09-.09-2.08-.17-2.96-.26l-.37,3.98Z"/>
  <polygon class="l" points="195.6 234.05 198.59 234.09 198.64 230.09 195.66 230.05 195.6 234.05"/>
  <rect class="l" x="177.19" y="230.21" width="4" height="2.99" transform="translate(-57 404.94) rotate(-88.54)"/>
  <rect class="l" x="171.22" y="230.05" width="4" height="2.99" transform="translate(-63.21 398.04) rotate(-88.35)"/>
  <path class="l" d="M60.94,226.96l.74-3.76c.56,.09,1.31,.18,2.31,.28l.42-3.98c-1.05-.11-1.83-.21-2.32-.29l-.56-.09-.63,3.74c-.69-.14-1.39-.28-2.08-.43l-.83,3.91c.99,.21,1.97,.41,2.96,.61Z"/>
  <polygon class="l" points="189.61 233.94 192.6 234 192.67 230 189.69 229.94 189.61 233.94"/>
  <path class="l" d="M33.7,211.03l-2.12,2.78c-.16-.09-.33-.18-.48-.27l-2.05,3.43c.82,.49,1.74,1,2.74,1.51l1.47-2.88c.23,.15,.45,.3,.68,.44l2.09-3.41c-.8-.49-1.6-1.04-2.32-1.59Z"/>
  <polygon class="l" points="201.59 234.13 204.58 234.15 204.61 230.15 201.63 230.13 201.59 234.13"/>
  <rect class="l" x="111.49" y="227.59" width="4" height="2.99" transform="translate(-121.23 330.41) rotate(-87)"/>
  <rect class="l" x="183.17" y="230.36" width="4" height="2.99" transform="translate(-50.73 411.83) rotate(-88.73)"/>
  <rect class="l" x="105.52" y="227.27" width="4" height="2.99" transform="translate(-126.8 323.58) rotate(-86.86)"/>
  <polygon class="l" points="87.98 229.62 90.97 229.81 91.22 225.81 88.24 225.62 87.98 229.62"/>
  <polygon class="l" points="93.96 229.99 96.95 230.17 97.19 226.18 94.21 226 93.96 229.99"/>
  <rect class="l" x="147.32" y="229.23" width="4" height="2.99" transform="translate(-87.1 370.85) rotate(-87.75)"/>
  <path class="l" d="M65.38,227.76c.39,.07,.93,.14,1.61,.22l.46-3.97c-.6-.07-1.07-.13-1.42-.19-.47-.08-.95-.16-1.42-.24l-.7,3.94c.49,.09,.98,.17,1.46,.25Z"/>
  <rect class="l" x="117.46" y="227.9" width="4" height="2.99" transform="translate(-115.64 337.2) rotate(-87.13)"/>
  <rect class="l" x="99.55" y="226.94" width="4" height="2.99" transform="translate(-132.33 316.73) rotate(-86.72)"/>
  <path class="l" d="M76.02,228.78c.95,.07,1.95,.15,2.99,.22l.29-3.99c-1.04-.08-2.04-.15-2.98-.22l-.3,3.99Z"/>
  <polygon class="l" points="82.01 229.22 85 229.42 85.26 225.43 82.28 225.23 82.01 229.22"/>
  <rect class="l" x="165.25" y="229.87" width="4" height="2.99" transform="translate(-69.27 391.24) rotate(-88.19)"/>
  <path class="l" d="M320.61,152.99l3.41,2.08c.52-.86,1.04-1.72,1.55-2.59l-3.45-2.02c-.5,.85-1,1.69-1.51,2.53Z"/>
  <path class="l" d="M321.53,92.78c-.59-.94-1.15-1.79-1.65-2.54l-3.33,2.21c.49,.73,1.03,1.56,1.6,2.48l3.38-2.14Z"/>
  <path class="l" d="M281.26,205.15l2.94,2.71c.68-.74,1.36-1.48,2.04-2.23l-2.97-2.68c-.66,.74-1.33,1.47-2,2.2Z"/>
  <path class="l" d="M289.13,196.25l3.05,2.59c.66-.77,1.3-1.54,1.94-2.31l-3.07-2.56c-.63,.75-1.27,1.51-1.91,2.28Z"/>
  <path class="l" d="M300.34,182.34l3.17,2.44c.64-.83,1.25-1.62,1.83-2.39l-3.19-2.42c-.58,.76-1.18,1.55-1.81,2.37Z"/>
  <path class="l" d="M277.18,209.45l2.86,2.8c.7-.72,1.4-1.44,2.1-2.18l-2.9-2.75c-.68,.72-1.37,1.43-2.05,2.13Z"/>
  <path class="l" d="M292.94,191.67l3.09,2.54c.65-.79,1.28-1.57,1.9-2.34l-3.12-2.51c-.61,.76-1.24,1.53-1.88,2.31Z"/>
  <path class="l" d="M303.94,177.59l3.21,2.39c.65-.87,1.25-1.68,1.79-2.42l-3.22-2.37c-.54,.74-1.13,1.54-1.78,2.4Z"/>
  <path class="l" d="M296.67,187.04l3.13,2.49c.64-.8,1.26-1.59,1.86-2.36l-3.15-2.46c-.6,.76-1.21,1.54-1.84,2.34Z"/>
  <path class="l" d="M254.36,227.2l1.5,3.71c.93-.38,1.9-.83,2.88-1.35l-1.86-3.54c-.87,.46-1.72,.85-2.53,1.18Z"/>
  <path class="l" d="M249.04,228.58l.62,3.95c1.18-.18,2.22-.39,3.1-.61l-.96-3.88c-.77,.19-1.7,.37-2.76,.54Z"/>
  <path class="l" d="M272.98,213.61l2.76,2.9c.73-.69,1.45-1.4,2.17-2.11l-2.81-2.84c-.71,.7-1.41,1.38-2.12,2.06Z"/>
  <path class="l" d="M225.55,234.06c1.02-.02,2.02-.04,3-.07l-.11-4c-.97,.03-1.96,.05-2.97,.07l.08,4Z"/>
  <path class="l" d="M268.63,217.58l2.62,3.02c.75-.66,1.51-1.33,2.27-2.03l-2.7-2.95c-.73,.67-1.46,1.32-2.19,1.96Z"/>
  <path class="l" d="M259.35,224.6l2.11,3.4c.84-.52,1.71-1.09,2.59-1.71l-2.29-3.28c-.82,.57-1.63,1.11-2.4,1.59Z"/>
  <path class="l" d="M264.1,221.29l2.43,3.18c.79-.61,1.59-1.24,2.4-1.9l-2.54-3.09c-.77,.63-1.53,1.24-2.29,1.82Z"/>
  <path class="l" d="M285.24,200.74l3,2.65c.67-.76,1.33-1.51,1.98-2.27l-3.03-2.62c-.65,.75-1.3,1.49-1.96,2.24Z"/>
  <path class="l" d="M328.77,115.81l3.77-1.35c-.34-.96-.71-1.92-1.1-2.87l-3.71,1.5c.37,.9,.71,1.81,1.04,2.71Z"/>
  <path class="l" d="M330.44,121.32l3.89-.94c-.23-.96-.51-1.97-.82-3l-3.83,1.17c.29,.95,.54,1.88,.76,2.77Z"/>
  <path class="l" d="M326.58,110.41l3.65-1.63c-.42-.93-.85-1.86-1.29-2.76l-3.6,1.74c.42,.87,.84,1.76,1.24,2.65Z"/>
  <path class="l" d="M321.2,99.97l3.46-2c-.52-.91-1.04-1.78-1.54-2.61l-3.42,2.07c.49,.81,.99,1.65,1.5,2.54Z"/>
  <path class="l" d="M324.03,105.13l3.55-1.84c-.47-.91-.95-1.81-1.43-2.68l-3.51,1.92c.46,.84,.93,1.71,1.38,2.6Z"/>
  <path class="l" d="M307.47,172.79l3.24,2.34c.86-1.19,1.46-2.04,1.76-2.47l-3.27-2.3c-.3,.42-.89,1.26-1.73,2.43Z"/>
  <path class="l" d="M331.32,126.87l3.99-.26c-.07-1.02-.19-2.08-.36-3.16l-3.95,.64c.16,.95,.26,1.89,.32,2.78Z"/>
  <path class="l" d="M328.87,137.39l3.64,1.66c.41-.89,.82-1.81,1.23-2.75l-3.66-1.6c-.41,.93-.81,1.82-1.21,2.7Z"/>
  <path class="l" d="M323.58,147.91l3.5,1.94c.48-.87,.96-1.75,1.44-2.66l-3.54-1.87c-.47,.88-.93,1.74-1.4,2.59Z"/>
  <path class="l" d="M317.45,157.99l3.36,2.18c.55-.85,1.09-1.69,1.62-2.53l-3.38-2.14c-.52,.82-1.05,1.65-1.6,2.49Z"/>
  <path class="l" d="M314.17,162.95l3.33,2.22c.57-.85,1.12-1.68,1.66-2.49l-3.34-2.21c-.54,.81-1.08,1.63-1.65,2.48Z"/>
  <rect class="l" x="311.85" y="165.79" width="2.98" height="4" transform="translate(-.33 334.95) rotate(-56.22)"/>
  <path class="l" d="M330.94,132.22l3.89,.93c.25-1.03,.41-2.14,.48-3.29l-3.99-.26c-.06,.93-.19,1.8-.38,2.61Z"/>
  <path class="l" d="M326.33,142.71l3.58,1.79c.44-.88,.88-1.78,1.33-2.72l-3.61-1.72c-.43,.91-.87,1.79-1.3,2.65Z"/>
  <path class="l" d="M26.61,215.29l2.55-3.08s-.05-.04-.08-.07l2.82-2.69c-.39-.41-.5-.61-.5-.61h0s-1.84,.79-1.84,.79l-1.84,.79c.11,.25,.26,.51,.44,.78,.15,.21,.32,.43,.52,.66l-1.86,.8-1.76,.76c.09,.21,.22,.43,.37,.64,.28,.4,.66,.8,1.17,1.22Z"/>
  <path class="ab" d="M300.02,120.69s.02,.01,.02,.02c6.41,4.66,8.87,.8,9.62-3.68,.38-2.31,.31-4.78,.09-6.34-.66-4.6-3.1-18.07-2.63-20.39,.29-1.43,1.56-2.86,2.92-4.01,1.76-1.51,3.66-2.56,3.66-2.56,0,0-9.21-7.24-19.73,11.84-.34,.61-.68,1.28-1,1.99-2.68,5.88-4.19,14.95,7.06,23.15Z"/>
  <path class="ab" d="M264.74,139.56c1.23,1.59,2.36,2.3,2.36,2.3,0,0,2.41,3,6.74-1.6,0,0,.16-.06,.42-.18,1.24-.57,4.92-2.47,6.54-5.72,1.97-3.95,5.18-32.19,7.24-33.55,.04-.02,.05-.04,.08-.07,1.22-1.14-14.41,.76-22.25,14.75-.54,.97-1.05,1.99-1.51,3.08-4.79,11.33-2.04,17.87,.37,20.99Z"/>
  <path class="ab" d="M259.03,119.85s-.02,0-.03,.01c.04,0,.06,0,.03-.01Z"/>
  <path class="ab" d="M230.5,159.15s.03,.02,.04,.03c3.34,2.7,7.12,.76,8.59-.19,.4-.26,.64-.45,.64-.45,0,0,2.88-3.79,6.83-14.98,3.91-11.07,11.55-23.49,12.4-23.7-.08,.01-.28,.03-.59,.07-3.54,.41-21.12,2.86-27.85,15.89-.02,.04-.04,.07-.06,.11-7.58,14.87-4.26,19.73,0,23.22Z"/>
  <path class="ab" d="M190.09,179.04c2.08,.15,3.85-.15,4.55-.61,1.19-.79,2.26-1.59,3.13-2.71,2-2.58,2.88-6.85,1.49-16.71,0,0,.56-.27,1.37-.62,1.54-.68,3.99-1.66,5.2-1.66,.03,0,.03,0,.04,0,.05,0,.05,0,0,0-.16,0-.73,0-1.62,.02-5.55,.18-23.09,1.55-24.12,11.17,0,0,0,.02,0,.03-.86,8.16,5.32,10.77,9.97,11.11Z"/>
  <path class="ab" d="M355.49,64c1.02,4.62,3.88,8.86,9.91,11.68,0,0,.02,.01,.05,.03,.44,.27,4.2,2.46,6.95,1.26,1.05-.46,1.95-1.4,2.47-3.13,0,0,6.32-5.64,3.29-17.76-.51-2.05-.09-4.42,.97-6.85,2.22-5.13,7.25-10.55,12.28-14.01-.35,2.17-.44,4.38-.34,6.48,.25,5.74,1.83,10.57,2.88,11.1,1.32,.66,2.8,1.48,3.96,2.14,1.15,.66,1.96,1.15,1.96,1.15,0,0,3.02,.37,3.95,0,.76-.31,1.3-1.5,1.97-1.97,.29-.2,.57-.36,.86-.5,2.28-1.15,4.55-1.26,5.72-10.02,.44-3.29,1.48-6.72,2.84-9.68,1.62-3.54,3.7-6.42,5.76-7.6,1-.58,2-.76,2.94-.41,.42,.16,.82-.29,.61-.68-.43-.78-1.3-1.78-3.05-2.62-2.73-1.31-7.61-2.25-16.33-1.38-7.48,.75-11.27,5.28-12.95,10.69-7.35-.58-22.1-.63-29.8,7.07-1.26,1.26-6.15,9.22-7.16,17.72-.29,2.44-.26,4.92,.27,7.3Z"/>
  <path class="ab" d="M330.11,98.29c.23,.18,.45,.36,.69,.54,5.57,4.08,8.55-3.95,8.55-3.95,0,0,.14-3.05,.57-7.34,.19-1.9,.44-4.04,.76-6.27,.19-1.34,.41-2.72,.66-4.09,.33-1.82,.71-3.64,1.15-5.38,.95-3.74,2.16-7.09,3.72-9.27,.6-.84,1.26-1.51,1.97-1.96,0,0-8.4-3.64-20.68,8.64-.56,.56-3.05,3.89-4.42,8.45-.55,1.83-.91,3.85-.9,5.98,.03,4.74,1.95,9.98,7.91,14.63Z"/>
  <path class="m" d="M494.7,158.66s-.06,.02-.1,.03c-2.75,.92,10.27-3.71,26.84-9.65,7.37-2.65,14.2-5.11,20.26-7.29,10.21-3.69,20-7.27,26.96-9.89h0s-54.31,8.51-54.31,8.51l-13.99,2.19-1.5,.23-2.97,.47-2.99,.47-3,.47-2.09,.33-94.52,14.81s-21.71,3.95-21.71-11.18,.66-16.45,.66-16.45c0,0-23.02,8.55-36.84,33.55-12.64,22.86,12.52,40.36,19.59,42.55,16.02-5.29,32.1-10.75,47.36-16.03,26.92-9.63,61.57-22.07,92.35-33.13Z"/>
  <path class="l" d="M344.88,342.87l4.22,1.29-2.14-.72-1.65-.55s-.01,0-.02,0c0,0,0,0-.01,0h0s-.14,0-.4,0Z"/>
  <path class="w" d="M344.88,342.87l4.22,1.29-2.14-.72-1.65-.55s-.01,0-.02,0c0,0,0,0-.01,0h0s-.14,0-.4,0Z"/>
  <polygon class="p" points="349.22 344.2 346.96 343.44 349.1 344.16 349.22 344.2"/>
  <polygon class="aa" points="349.22 344.2 346.96 343.44 349.1 344.16 349.22 344.2"/>
  <path class="p" d="M345.3,342.88s-.01,0-.02,0c0,0,0,0,0,0h0s0,0,.01,0Z"/>
  <path class="v" d="M345.3,342.88s-.01,0-.02,0c0,0,0,0,0,0h0s0,0,.01,0Z"/>
  <path class="ac" d="M680,335c.02,.07,.02,.14,.02,.22,0-.07,0-.15,0-.23,0,0,0,0-.01,.01Z"/>
  <path class="t" d="M680,335c.02,.07,.02,.14,.02,.22,0-.07,0-.15,0-.23,0,0,0,0-.01,.01Z"/>
  <path class="ac" d="M725.56,310.74c-.11,.13-.23,.26-.35,.4l-4.98,8.72-40.13,17.76c0-.09,0-.17,0-.25,0,.07,0,.13,0,.19v.15c-.02,1.89-.73,5.66-5.29,7.01,0,0,0,0,0,0,3.15,5.78,9.24,.79,9.24,.79,0,0,5.92-6.58,7.89-5.26,1.97,1.32,3.29,.66,6.58-.66,3.29-1.32,5.92-5.92,5.92-5.92,0,0,7.24-6.58,7.89-5.26s2.63,.66,2.63,.66c0,0,9.87-7.24,10.52-10.52,.48-2.42,.61-5.91,.65-7.59,0-.31-.38-.45-.57-.21Z"/>
  <path class="p" d="M680.09,337.71v-.15c0-.07,0-.13,0-.19,0-.32,0-.65-.02-.96-.01-.4-.02-.8-.05-1.18,0,0,0,0,0,0,0-.08,0-.15-.02-.22,0,0,0,0,0,0,0-.07,0-.15-.01-.22,0-.03,0-.07,0-.1,0-.1-.02-.19-.02-.29-.01-.15-.02-.29-.03-.43,0-.13-.03-.26-.05-.39,0-.08-.02-.15-.03-.23-.01-.12-.03-.25-.04-.37,0,0,0,0,0-.01-.05-.34-.09-.66-.15-.98,0-.06-.02-.13-.04-.19-.02-.1-.04-.19-.06-.29-.03-.13-.05-.27-.08-.4,0,0,0-.02,0-.03-.03-.16-.07-.32-.11-.47-.07-.28-.14-.55-.23-.81,0,0,0-.01,0-.02-.03-.09-.05-.18-.08-.26-.03-.09-.06-.17-.09-.25,0,0,0-.02,0-.02-.06-.19-.13-.38-.2-.56-.06-.14-.12-.28-.18-.42-.02-.05-.04-.1-.06-.15-.04-.11-.1-.22-.16-.33-.02-.04-.04-.09-.06-.13,0-.03-.02-.06-.04-.09,0,0,0-.03-.02-.04-.07-.14-.15-.27-.22-.41-.09-.17-.19-.33-.28-.5,0,0,0-.02-.01-.02-.01-.03-.03-.05-.04-.08,0,0,0-.01,0-.01-.05-.08-.1-.16-.17-.24-.1-.15-.2-.3-.31-.44,0-.01-.01-.01-.01-.02-.05-.08-.11-.15-.18-.23l-.02-.02s-.06-.08-.09-.11c-.07-.08-.13-.16-.2-.24-.03-.03-.05-.07-.09-.1-.05-.07-.12-.14-.19-.21-.12-.14-.24-.26-.38-.39l-.04-.04c-.09-.09-.18-.18-.27-.25-.02-.01-.03-.03-.05-.04-.02-.02-.05-.04-.07-.07-.05-.05-.11-.1-.16-.14-.13-.11-.27-.22-.41-.33-.12-.09-.24-.18-.37-.27-.12-.09-.25-.18-.38-.27-10.28-6.76-24.29-16.41-31.28-23.1-2.49-2.38-4.1-4.4-4.33-5.77,0,0-.12-.12,.39-.92,0,0,0,0,0,0,0,0,0,0,0,0,.66-1.01,2.36-3.12,6.65-7.43,.07-.07,.12-.13,.19-.2,4.19-4.19,9.13-8.39,12.44-13.57,2.92-4.57,4.58-9.91,3.35-16.69-2.63-14.41-16.99-18.39-17.1-18.42,0,0,0,0,0,0,0,0-50.01-11.86-123.01,.66-43.41,7.44-73.53,16.01-96.37,26.77-5.98,2.82-11.47,5.78-16.56,8.91-8.24,5.07-15.45,10.59-22.1,16.62-10.46,9.5-19.53,20.29-28.96,32.7-4.23,5.57-8.53,11.46-13.07,17.7-.1,.14-.17,.29-.23,.44-.01,.03-.02,.06-.03,.09-.04,.13-.06,.26-.06,.39,0,.02,0,.04,0,.05,0,.02,0,.03,0,.05,0,.05,0,.1,.01,.15,0,.02,0,.04,0,.05,.01,.05,.02,.1,.03,.14,0,0,0,0,0,.02,.01,.06,.03,.12,.05,.17h0s0,0,0,0c.05,.14,.12,.27,.21,.39,.02,.03,.04,.06,.06,.08,.08,.1,.18,.19,.28,.27,.02,.02,.03,.04,.06,.05,.07,.05,.15,.09,.23,.12,.02,0,.04,.03,.07,.04,.02,.02,.04,.03,.07,.04h0s0,0,0,0c0,0,.01,0,.02,0,0,0,.01,0,.02,0l1.65,.55,2.26,.75-.12-.04,.12,.04h0s0,.03-.02,.08c0,.04-.02,.1-.03,.17,0,.05-.02,.11-.03,.18-.33,1.81-1.29,8.6,2.71,7.46,4.6-1.32,11.18-1.97,16.45-1.97s6.57,1.31,6.57,3.29,1.32,4.6,9.21,4.6,9.21-3.95,9.21-3.95c.66-6.58,13.16-3.94,13.16-3.94,0,0,5.92,0,5.92,3.94s7.23,5.27,7.23,5.27c0,0,9.87,1.31,11.19-3.95,1.31-5.26,5.26-3.95,5.26-3.95l6.58,.66c2.63,0,9.86,1.32,9.86,5.26s6.58,3.95,7.9,3.95,8.55,.66,8.55-3.29,4.6-3.29,4.6-3.29h9.87c7.24,0,7.24,2.63,7.24,2.63,.65,3.95,4.6,4.61,4.6,4.61,0,0,12.5,1.31,12.5-3.29s4.6-3.95,4.6-3.95h11.19c4.6,0,4.6,1.97,4.6,1.97,0,3.95,3.95,4.61,3.95,4.61,0,0,29.6-.66,32.89-.66s7.89-1.97,7.89-5.26,2.63-3.29,2.63-3.29c0,0,11.84-1.32,17.11-1.32s3.94,1.32,3.94,4.61,5.92,1.97,5.92,1.97c0,0,44.73-3.94,54.6-5.26s9.87-7.24,9.87-7.24c3.43,.57,5.98,.43,7.86-.13,0,0,0,0,0,0,4.56-1.35,5.27-5.12,5.29-7.01Zm-92.75-11.27s-76.3,8.55-128.27,0c-10.03-1.66-18.42-8.25-18.42-18.42s8.38-20.04,18.42-18.42c36.84,5.92,128.27,0,128.27,0,5.09,0,9.7,2.06,13.03,5.39,3.33,3.33,5.39,7.94,5.39,13.03,0,10.17-8.24,18.42-18.42,18.42Z"/>
  <path class="l" d="M274.15,198.62c.55-.67,1.27-1.56,2.13-2.62-.86,1.06-1.58,1.95-2.13,2.62Z"/>
  <path class="q" d="M274.15,198.62c.55-.67,1.27-1.56,2.13-2.62-.86,1.06-1.58,1.95-2.13,2.62Z"/>
  <path class="y" d="M277.34,194.69c.6-.74,1.24-1.53,1.93-2.38-.69,.85-1.34,1.65-1.93,2.38Z"/>
  <path class="r" d="M277.34,194.69c.6-.74,1.24-1.53,1.93-2.38-.69,.85-1.34,1.65-1.93,2.38Z"/>
  <path class="l" d="M273,200.03c.12-.15,.37-.46,.75-.93-.38,.46-.63,.78-.75,.93Z"/>
  <path class="n" d="M273,200.03c.12-.15,.37-.46,.75-.93-.38,.46-.63,.78-.75,.93Z"/>
  <path class="ac" d="M476.18,12.66c4.6,7.89,19.78,49.67,19.78,49.67v.13c.72,.52,1.46,1.04,2.19,1.56l.39-.05s-.66-15.79-6.58-30.26c-5.92-14.47-9.87-26.97-11.84-29.6-1.56-2.08-9.12,1.09-12.76,2.38,1.01-.26,1.58-.4,1.58-.4,0,0,2.63-1.32,7.24,6.58Z"/>
  <path class="l" d="M537.06,143.44c1.55-.56,3.1-1.12,4.65-1.68-6.06,2.18-12.89,4.64-20.26,7.29,4.99-1.79,10.31-3.7,15.62-5.61Z"/>
  <path class="o" d="M537.06,143.44c1.55-.56,3.1-1.12,4.65-1.68-6.06,2.18-12.89,4.64-20.26,7.29,4.99-1.79,10.31-3.7,15.62-5.61Z"/>
  <path class="l" d="M494.7,158.66c-30.78,11.06-65.43,23.5-92.35,33.13,51.56-17.83,93.72-33.53,92.35-33.13Z"/>
  <path class="k" d="M494.7,158.66c-30.78,11.06-65.43,23.5-92.35,33.13,51.56-17.83,93.72-33.53,92.35-33.13Z"/>
</svg>