<?xml version="1.0" encoding="UTF-8"?>
<svg id="a" data-name="Layer 1" xmlns="http://www.w3.org/2000/svg" xmlns:xlink="http://www.w3.org/1999/xlink" viewBox="0 0 726.13 362.13">
  <defs>
    <style>
      .g {
        fill: #ff6340;
      }

      .h {
        fill: #fff;
      }

      .i {
        fill: #f1e4ba;
      }

      .j {
        fill: #0f2375;
      }

      .k {
        fill: url(#f);
      }

      .l {
        fill: #f24949;
      }

      .m {
        fill: #662d91;
      }

      .n {
        fill: blue;
      }

      .o {
        fill: #ffa563;
      }

      .p {
        fill: #2b095a;
      }

      .q {
        fill: url(#e);
      }

      .r {
        fill: #f28705;
      }

      .s {
        fill: url(#d);
      }

      .t {
        fill: lime;
      }

      .u {
        fill: #11103e;
      }

      .v {
        fill: url(#b);
      }

      .w {
        fill: none;
      }

      .x {
        fill: #f78b28;
      }

      .y {
        fill: #ed1e79;
      }

      .z {
        fill: url(#c);
      }

      .aa {
        fill: #ff0;
      }
    </style>
    <linearGradient id="b" x1="379.58" y1="342.23" x2="378.58" y2="344.84" gradientUnits="userSpaceOnUse">
      <stop offset="0" stop-color="#fff"/>
      <stop offset=".15" stop-color="#fbfbfb"/>
      <stop offset=".28" stop-color="#f1f1f1"/>
      <stop offset=".4" stop-color="#dfdfdf"/>
      <stop offset=".52" stop-color="#c6c6c6"/>
      <stop offset=".63" stop-color="#a5a5a5"/>
      <stop offset=".74" stop-color="#7e7e7e"/>
      <stop offset=".85" stop-color="#4f4f4f"/>
      <stop offset=".95" stop-color="#1a1a1a"/>
      <stop offset="1" stop-color="#000"/>
    </linearGradient>
    <linearGradient id="c" x1="452.68" y1="194.53" x2="451.22" y2="198.33" xlink:href="#b"/>
    <linearGradient id="d" x1="448.2" y1="192.82" x2="446.74" y2="196.61" xlink:href="#b"/>
    <linearGradient id="e" x1="194.64" y1="145.19" x2="194.48" y2="145.62" xlink:href="#b"/>
    <linearGradient id="f" x1="277.98" y1="174.21" x2="277.2" y2="176.25" xlink:href="#b"/>
  </defs>
  <path class="w" d="M454.5,202.44c.08,.12,.16,.24,.25,.37-1.11-1.63-1.53-2.67-1.53-2.67,0,0-.03-.04-.09-.11-.03-.04-.08-.1-.14-.17-.09-.11-.2-.24-.34-.41-.08-.1-.18-.22-.28-.34-.12-.15-.25-.31-.39-.48-.33-.41-.74-.91-1.19-1.46-.27-.34-.56-.69-.87-1.08-.11-.14-.23-.29-.35-.43-.2-.25-.41-.51-.63-.77-.64-.79-1.33-1.64-2.08-2.57-1.42-1.76-3.03-3.74-4.77-5.88-9.46-11.66-22.77-28.09-30.97-38.25,6.53,8.39,29.94,37.2,38.75,47.9,1.67,2.03,3.2,4.17,4.63,6.38Z"/>
  <path class="w" d="M132.85,325.44c-.79-.27-1.55-.59-2.29-.96,.74,.37,1.5,.69,2.29,.96Z"/>
  <path class="w" d="M525.51,158.39c.45,.21,.91,.41,1.36,.62,0,0-.56-.27-1.36-.62Z"/>
  <path class="w" d="M157.2,131.77c.09,.03,.17,.06,.26,.1h0c-.09-.03-.18-.07-.26-.1Z"/>
  <path class="w" d="M151.08,295.52h-16.04c-4.11,0-7.44,3.33-7.44,7.44v5.44c0,7.42,6.01,13.43,13.43,13.43h10.05c4.11,0,7.44-3.33,7.44-7.44v-11.43c0-4.11-3.33-7.44-7.44-7.44Z"/>
  <path class="w" d="M687.31,281.07c-.72-12.24-5.03-21.28-11.16-27.97l20.12-6.12-20.12,6.12c6.12,6.69,10.44,15.73,11.16,27.97Z"/>
  <path class="w" d="M405.85,115.28s-2.72,4.81-2.61,12.19c-.03-7.29,2.61-12.19,2.61-12.19Z"/>
  <path class="w" d="M285.47,308.02c0,9.24-6.92,15.51-15.71,17.83,8.79-2.31,15.71-8.59,15.71-17.83,0-2.66-.57-5.3-1.6-7.72,1.03,2.42,1.6,5.06,1.6,7.72Z"/>
  <path class="w" d="M356.61,93.25c-2.44-.38-4.94-1.08-7.64-1.9,2.14,.8,4.71,1.59,7.64,1.9Z"/>
  <rect class="w" x="188.12" y="296.83" width="30.92" height="26.31" rx="7.44" ry="7.44"/>
  <path class="w" d="M270.14,296.83h-16.03c-4.11,0-7.44,3.33-7.44,7.44v11.43c0,4.11,3.33,7.44,7.44,7.44h10.04c7.42,0,13.43-6.01,13.43-13.43v-5.44c0-4.11-3.33-7.44-7.44-7.44Z"/>
  <path class="w" d="M251.4,61.46c1.45,1.33,16.02,14.65,22.9,20.28-6-6.55-21.45-18.95-22.9-20.28Z"/>
  <path class="t" d="M725.55,261.31c1.32-1.32,0-3.95,0-5.26s-2.63-1.32-2.63-2.63,0-7.24-.66-8.55c-.66-1.32-3.95-4.6-3.95-4.6h-.02s-22.03,6.71-22.03,6.71l-20.12,6.12c6.12,6.69,10.44,15.73,11.16,27.97,.05,.82,.08,1.65,.09,2.49,.02,.9,.01,1.82,0,2.75,0,0,0,.01-.02,.03-.05,.06-.16,.22-.35,.45,11.17-2.38,21.06-5.36,29.32-9.03,0,0,7.89,4.6,0,13.16-7.89,8.55-34.21,21.71-43.42,25-9.21,3.29-71.7,15.79-78.94,15.79s-5.92-4.6-13.16-8.55c-7.24-3.95-8.55,7.89-11.18,9.21-2.63,1.32-4.6,3.95-15.79,4.6-11.18,.66-98.01,4.6-99.99,3.95-1.97-.66-8.55-6.58-13.81-10.52-5.26-3.95-13.16,11.84-17.76,11.84-4.32,0-37.06,.58-41.04,.65l-4.34,1.32s.03,.16,.08,.44c.35,1.4,2.05,5.51,9.78,2.2,0,0,1.97,0,1.97,4.6s3.95,5.92,7.24,5.92,23.68-.66,23.68-.66c0,0,6.58,1.32,6.58-4.6s1.32-7.24,4.6-9.87,4.6-13.81,12.5-5.26c7.89,8.55,8.55,11.18,8.55,13.81s6.58,4.6,18.42,4.6,21.05,.66,21.71-6.58c.66-7.24,16.45-5.92,20.39-5.92s14.47-1.32,15.79,5.26c1.32,6.58,14.47,3.95,15.79,3.95s18.42,2.63,19.73-5.92c1.32-8.55,7.89-8.55,9.87-12.5s4.6-9.87,9.87-3.95c5.26,5.92,7.89,7.89,10.52,7.24,2.63-.66-.66,9.21,9.87,7.89,10.52-1.32,24.34-.66,24.34-10.52,0,0-1.32-5.26,4.6-5.92,5.92-.66,15.79-2.63,15.79,3.29,0,0,0,2.63,3.95,.66,3.95-1.97,8.55-6.58,8.55-6.58,0,0,1.97-1.32,3.29,1.97s3.29,3.95,6.58,2.63c3.29-1.32,7.24-1.32,7.24-6.58s-1.97-5.26,4.6-7.89c6.58-2.63,5.92,1.97,5.92,1.97,0,0,.66,4.6,4.6,1.97,3.95-2.63,3.29-4.6,2.63-7.89-.66-3.29,.66-3.29,.66-3.29l4.6-3.29s1.97,5.92,3.29,6.58c1.32,.66,4.6-3.95,4.6-3.95,0,0-.66-2.63-1.32-4.6-.66-1.97,.66-2.63,.66-2.63l1.97-1.32s0,.66,1.97,3.29c1.97,2.63,3.95,0,3.95,0l-1.97-5.92,3.29-3.29s1.32,1.97,1.97,2.63c.66,.66,2.63-2.63,2.63-2.63,0,0-2.63-3.95-2.63-4.6s1.32-1.32,2.63-1.32,2.63-5.26,1.32-5.92-3.29-1.32-2.63-3.29l.66-1.97s3.95,.66,3.95-1.32v-5.26s-1.32-.66-1.97-1.32c-.66-.66,.66-2.63,.66-3.95s0-1.97,1.32-3.29Z"/>
  <path class="l" d="M482.72,289.22c-23.94-2.16-47.29-4.82-68.91-7.69-1.54-.21-3.08-.41-4.61-.62-3.05-.41-6.07-.83-9.04-1.25-5.95-.84-11.74-1.7-17.34-2.56-36.6-5.63-74.33-9.21-74.33-9.21,.72,.34,1.45,.72,2.18,1.12,2.21,1.2,4.49,2.65,6.82,4.3,0,0,0,0,0,0t0,0c27.01,16.63,43.03,38.01,64.13,67.02,.65,.9,.26,2.17-.78,2.55,0,0,0,0,0,0,0,0,.14,0,.4,0,3.98-.07,36.72-.65,41.04-.65,4.6,0,12.5-15.79,17.76-11.84,5.26,3.95,11.84,9.87,13.81,10.52,1.97,.66,88.8-3.29,99.99-3.95,11.18-.66,13.16-3.29,15.79-4.6,2.63-1.32,3.95-13.16,11.18-9.21,7.24,3.95,5.92,8.55,13.16,8.55s69.73-12.5,78.94-15.79c9.21-3.29,35.52-16.45,43.42-25,7.89-8.55,0-13.16,0-13.16-8.26,3.67-18.15,6.65-29.32,9.03-26.42,5.63-60.03,7.87-96.41,7.83-34.72-.04-71.97-2.16-107.88-5.4Z"/>
  <path class="t" d="M46.03,337.62l-40.13-17.76-4.98-8.72c-.12-.13-.24-.26-.35-.4-.2-.24-.58-.09-.57,.21,.03,1.67,.16,5.17,.65,7.59,.66,3.29,10.52,10.52,10.52,10.52,0,0,1.97,.66,2.63-.66,.66-1.32,7.89,5.26,7.89,5.26,0,0,2.63,4.6,5.92,5.92,3.29,1.32,4.6,1.97,6.58,.66,1.97-1.32,7.89,5.26,7.89,5.26,0,0,6.1,5,9.24-.79-4.63-1.37-5.3-5.23-5.3-7.1Z"/>
  <path class="l" d="M46.03,337.62c0-.91,.03-1.78,.08-2.62,0,0,0,0,0,0h0c.08-1.29,.24-2.51,.48-3.65,0-.05,.02-.09,.03-.14,.12-.54,.25-1.06,.41-1.56,.02-.06,.04-.11,.05-.17,.17-.5,.35-.99,.56-1.46,0-.01,.01-.03,.02-.04,.21-.46,.45-.9,.71-1.32,.02-.04,.05-.08,.07-.12,.26-.41,.54-.79,.85-1.16,.05-.06,.11-.13,.16-.19,.31-.36,.64-.7,1-1.02,.06-.05,.12-.1,.18-.15,.39-.33,.79-.65,1.24-.94,13.94-9.17,34.73-23.64,35.61-28.87,0,0,.66-.66-7.24-8.55s-18.42-15.79-15.79-30.26,17.1-18.42,17.1-18.42c-9.21-11.18-25-8.55-36.18-8.55s-22.37,3.29-30.26,5.92c-.99,.33-1.87,.69-2.64,1.08-5.39,2.67-5.82,6.41-5.25,8.13,.66,1.97,1.32,17.76,1.97,25.65,.66,7.89-5.26,28.94-6.58,32.23-1.32,3.29-1.97,9.21-1.97,9.21l.28,.49,4.98,8.72,40.13,17.76Z"/>
  <path class="m" d="M380.82,342.89s.02-.01,.04-.02c1.04-.38,1.43-1.65,.78-2.55-21.1-29.01-37.12-50.39-64.13-67.02t0,0h0c-5.37-3.3-11.17-6.42-17.54-9.37-1.82-.84-3.68-1.67-5.6-2.49-.96-.41-1.93-.81-2.91-1.22-17.66-7.23-39.39-13.44-67.33-18.99-6.21-1.23-12.73-2.44-19.57-3.61-2.28-.39-4.54-.76-6.78-1.1-3.35-.52-6.65-.98-9.9-1.4-18.39-2.37-35.01-3.22-49.36-3.23-19.41-.01-34.65,1.51-44.46,2.89-.85,.12-1.67,.24-2.44,.36-.77,.12-1.5,.23-2.19,.34-2.4,.39-4.28,.74-5.6,1-.38,.08-.71,.14-1,.2-.86,.18-1.3,.28-1.3,.28,0,0-14.47,3.95-17.1,18.42s7.89,22.37,15.79,30.26,7.24,8.55,7.24,8.55c-.87,5.23-21.67,19.7-35.61,28.87-.45,.29-.85,.61-1.24,.94-.06,.05-.12,.1-.18,.15-.36,.32-.69,.67-1,1.02-.05,.06-.11,.13-.16,.19-.31,.37-.59,.76-.85,1.16-.02,.04-.05,.08-.07,.12-.26,.42-.5,.86-.71,1.32,0,.01-.01,.03-.02,.04-.21,.47-.39,.96-.56,1.46-.02,.06-.04,.11-.05,.17-.16,.5-.3,1.02-.41,1.56-.01,.04-.02,.09-.03,.14-.24,1.14-.4,2.35-.48,3.65h0s0,0,0,0c-.05,.84-.08,1.72-.08,2.62,0,1.87,.67,5.73,5.3,7.1,1.89,.56,4.43,.71,7.86,.14,0,0,0,5.92,9.87,7.24,9.87,1.32,54.6,5.26,54.6,5.26,0,0,5.92,1.32,5.92-1.97s-1.32-4.6,3.95-4.6,17.1,1.32,17.1,1.32c0,0,2.63,0,2.63,3.29s4.6,5.26,7.89,5.26,32.89,.66,32.89,.66c0,0,3.95-.66,3.95-4.6,0,0,0-1.97,4.6-1.97h11.18s4.6-.66,4.6,3.95,12.5,3.29,12.5,3.29c0,0,3.95-.66,4.6-4.6,0,0,0-2.63,7.24-2.63h9.87s4.6-.66,4.6,3.29,7.24,3.29,8.55,3.29,7.89,0,7.89-3.95,7.24-5.26,9.87-5.26l6.58-.66s3.95-1.32,5.26,3.95c1.32,5.26,11.18,3.95,11.18,3.95,0,0,7.24-1.32,7.24-5.26s5.92-3.95,5.92-3.95c0,0,12.5-2.63,13.16,3.95,0,0,1.32,3.95,9.21,3.95s9.21-2.63,9.21-4.6,1.32-3.29,6.58-3.29,11.84,.66,16.45,1.97c4,1.14,3.04-5.65,2.71-7.46-.05-.27-.08-.44-.08-.44l3.91-1.3Zm-111.05-17.05c-.89,.23-1.79,.44-2.71,.59-17.86,2.94-38.6,3.86-58.13,3.8-.01,0-.02,0-.03,0-6.13-.02-12.13-.13-17.89-.31-.97-.03-1.93-.06-2.88-.1-2.33-.08-4.62-.17-6.85-.27-.15,0-.3-.01-.44-.02-11.45-.52-21.46-1.24-28.84-1.85-.31-.03-.62-.05-.92-.08-7.69-.65-12.28-1.16-12.28-1.16-2.08,0-4.07-.36-5.93-.99-.79-.27-1.55-.59-2.29-.96-.72-.36-1.42-.75-2.08-1.19-.49-.33-.96-.68-1.42-1.06-4.09-3.38-6.7-8.49-6.7-14.21,0-10.17,8.25-18.42,18.42-18.42,0,0,47.21,3.06,87.46,2.58,.9-.01,1.79-.02,2.69-.04,1.7-.03,3.39-.06,5.05-.1,.87-.02,1.73-.04,2.59-.07,11.75-.35,22.43-1.08,30.48-2.37,1.23-.2,2.44-.22,3.6-.09,.07,0,.13,.02,.2,.02,2.03,.25,3.95,.96,5.69,2.02,.44,.27,.86,.56,1.28,.87,.11,.08,.22,.16,.32,.25,.41,.32,.8,.66,1.18,1.02,.02,.02,.04,.04,.06,.06,.47,.44,.91,.92,1.33,1.41,.74,.87,1.4,1.81,1.99,2.81,.44,.75,.83,1.53,1.17,2.34,1.03,2.42,1.6,5.06,1.6,7.72,0,9.24-6.92,15.51-15.71,17.83Z"/>
  <path class="y" d="M32.29,138.96c.75-.71,1.5-1.42,2.27-2.13,1.16-1.09,2.33-2.18,3.51-3.28,1.93-1.8,3.87-3.61,5.8-5.4,1.56-1.44,3.1-2.88,4.63-4.29,8.37-7.75,15.97-14.74,20.03-18.62,.74-.71,1.36-1.31,1.84-1.79,8.55-8.55,15.13-16.45,15.13-27.63s-28.29-36.18-32.89-36.18c-.87,0-1.93,.28-3.08,.75-1.92,.79-4.11,2.1-6.13,3.5-3.17,2.21-5.93,4.64-6.58,5.62-1.32,1.97-11.18,35.52-15.79,50.65s-13.16,57.23-13.16,57.23l3.29,3.29c.06-.36,.53-1.05,1.33-2.02,3.01-3.65,10.81-11.23,19.79-19.69Z"/>
  <path class="g" d="M580.17,189.61c-3.29,3.29-11.84,4.6-15.13,4.6s-25-2.63-38.15-3.95c-7.93-.79-26.75-3.57-40.46-5.65-3.67-.56-6.97-1.06-9.59-1.47-.69,.23-1.37,.46-2.06,.69-12.01,3.99-23.3,7.19-27.92,8.46,.75,.93,1.45,1.78,2.08,2.57,.22,.27,.42,.52,.63,.77,.12,.15,.24,.29,.35,.43,.31,.38,.6,.74,.87,1.08,.45,.56,.86,1.05,1.19,1.46,.14,.18,.27,.33,.39,.48,.1,.13,.19,.24,.28,.34,.14,.17,.25,.31,.34,.41,.06,.07,.1,.13,.14,.17,.05,.07,.09,.11,.09,.11,0,0,.42,1.05,1.53,2.67,.04,.06,.07,.11,.11,.16,.15,.22,.32,.46,.5,.7,.04,.06,.09,.12,.14,.19,.14,.19,.29,.38,.45,.57,.07,.09,.15,.18,.22,.27,.15,.18,.3,.37,.46,.55,.08,.1,.17,.19,.25,.29,.19,.21,.38,.43,.59,.65,.07,.07,.13,.15,.2,.22,.28,.29,.57,.59,.88,.89,.07,.07,.14,.14,.21,.2,.25,.24,.5,.48,.77,.72,.12,.11,.24,.21,.36,.32,.24,.21,.49,.43,.75,.64,.13,.11,.26,.22,.4,.33,.29,.23,.59,.47,.89,.7,.11,.09,.22,.18,.34,.26,.43,.32,.87,.64,1.33,.96,.09,.06,.19,.13,.29,.19,.38,.26,.77,.51,1.17,.77,.17,.11,.34,.21,.52,.32,.35,.22,.71,.43,1.08,.64,.19,.11,.38,.22,.58,.33,.4,.23,.82,.45,1.25,.67,.17,.09,.33,.17,.5,.26,.6,.3,1.22,.6,1.86,.9,.11,.05,.23,.1,.34,.15,.54,.24,1.1,.48,1.67,.72,.23,.09,.46,.18,.69,.28,.48,.19,.97,.38,1.48,.56,.26,.09,.52,.19,.79,.28,.54,.19,1.09,.37,1.65,.55,.23,.07,.46,.15,.7,.22,.8,.25,1.62,.48,2.47,.71,.11,.03,.22,.05,.33,.08,.75,.19,1.51,.38,2.3,.56,.29,.07,.59,.13,.89,.19,.63,.14,1.27,.27,1.93,.39,.33,.06,.67,.13,1.01,.19,.68,.12,1.39,.23,2.1,.34,.31,.05,.61,.1,.93,.14,1.03,.15,2.07,.28,3.15,.39,.08,0,.17,.01,.25,.02,1,.1,2.03,.2,3.08,.27,.36,.03,.73,.05,1.1,.07,.8,.05,1.61,.1,2.44,.13,.42,.02,.85,.03,1.28,.05,.85,.03,1.71,.04,2.59,.05,.4,0,.79,.01,1.19,.01,1.28,0,2.58-.01,3.92-.05,46.7-1.32,128.93,2.63,176.29-8.55,0,0,.66,.66,9.21-5.92-2.63-6.58-45.39-5.26-65.78-8.55-15.45-2.49-37.12-11.47-46.73-15.68,1.27,2.06,.02,4.5-1.95,6.47Z"/>
  <path class="j" d="M536.05,179.04c-.76,.43-1.64,.7-2.58,.7-2.48,0-4.54-1.72-5.1-4.02-2-2.58-2.88-6.85-1.49-16.71h0c-.46-.21-.91-.42-1.36-.62-1.54-.68-3.99-1.66-5.2-1.66-.03,0-.03,0-.04,0-.29,2.39-2.48,6.47-11.14,12.5-6.58,4.58-19.64,9.65-32.29,13.93,2.63,.41,5.93,.91,9.59,1.47,13.7,2.08,32.53,4.86,40.46,5.65,13.16,1.32,34.86,3.95,38.15,3.95s11.84-1.32,15.13-4.6c1.97-1.97,3.23-4.4,1.95-6.47-.86-1.39-2.85-2.61-6.56-3.4-4.02-.86-9.87-2.63-18.42-6.58-2.21-1.02-6.24-2.93-11.14-5.24,.86,8.16-5.32,10.77-9.97,11.11Z"/>
  <path class="j" d="M520.27,156.72c.16,0,.73,0,1.62,.02-.53-.24-1.06-.48-1.59-.71,0,.14,0,.28,0,.43,0,.08-.02,.17-.03,.26Z"/>
  <path class="t" d="M460.51,115.96c.45,.83,.87,1.69,1.26,2.6,4.79,11.33,2.04,17.87-.37,20.99-.77,1.96-2.66,3.35-4.89,3.35-2.02,0-3.76-1.15-4.64-2.83-1.24-.57-4.92-2.47-6.54-5.72-1.6-3.21-4.02-22.43-5.97-30.27-1.55-.88-3.17-1.79-4.82-2.74,1.42,5.61,.62,12.75-8.41,19.34,0,0-.02,.01-.02,.02-.93,1.48-2.57,2.47-4.45,2.47-2.91,0-5.26-2.36-5.26-5.26,0-.31,.04-.6,.09-.89-.38-2.31-.31-4.78-.09-6.34,.54-3.78,2.28-13.54,2.63-18.19-.03-.02-.06-.04-.1-.05l-13.06,22.85s-2.65,4.9-2.61,12.19c.08,5.71,1.85,12.95,7.88,20.7,8.21,10.16,21.52,26.58,30.97,38.25,1.74,2.15,3.35,4.13,4.77,5.88,4.62-1.27,15.91-4.47,27.92-8.46,.68-.23,1.37-.46,2.06-.69,12.65-4.27,25.71-9.35,32.29-13.93,8.66-6.03,10.85-10.11,11.14-12.5-.05,0-.05,0,0,0,.01-.09,.02-.18,.03-.26,.01-.15,0-.29,0-.43-.04-1.31-.65-1.93-.65-1.93,0,0-1.32-5.26-10.52-10.52-1.85-1.06-6.81-3.89-13.56-7.74,.02,.04,.04,.07,.06,.11,7.58,14.87,4.26,19.73,0,23.22-.01,.01-.03,.02-.04,.03-.96,1.3-2.48,2.15-4.22,2.15-1.82,0-3.43-.93-4.37-2.34-.4-.26-.64-.45-.64-.45,0,0-2.88-3.79-6.83-14.98-3.91-11.07-11.55-23.49-12.4-23.7-.04,0-.06,0-.03-.01,0,0,.02,0,.03,.01,.08,.01,.28,.03,.59,.07-1.8-1.02-3.6-2.05-5.41-3.08,.65,.43,1,.66,1,.66,0,0-.99-.55-2.79-1.55Zm-30.32,34.18c-2.91,0-5.26-2.36-5.26-5.26s2.36-5.26,5.26-5.26,5.26,2.36,5.26,5.26-2.36,5.26-5.26,5.26Zm38.81,12.5c0,2.91-2.36,5.26-5.26,5.26s-5.26-2.36-5.26-5.26,2.36-5.26,5.26-5.26,5.26,2.36,5.26,5.26Z"/>
  <path class="aa" d="M227.59,63.97s.66-15.79,6.58-30.26,9.87-26.97,11.84-29.6c-.81-4.03-4.33-4.36-6.94-4-1.77,.24-3.3,1.36-4.12,2.95-1.95,3.78-6.12,12.38-11.31,26.05-7.24,19.08-5.03,39.99-5.03,39.99l.75,.84c2.9-1.93,5.78-3.91,8.62-5.91l-.39-.05Z"/>
  <path class="t" d="M227.59,63.97l.39,.05c.74-.52,1.47-1.04,2.2-1.56v-.13s15.17-41.77,19.77-49.66c4.6-7.89,7.24-6.58,7.24-6.58,0,0,.56,.14,1.58,.4-3.64-1.29-11.2-4.46-12.76-2.38-1.97,2.63-5.92,15.13-11.84,29.6s-6.58,30.26-6.58,30.26Z"/>
  <path class="aa" d="M249.95,12.66c-4.6,7.89-19.78,49.66-19.78,49.66v.13c13.25-9.42,25.47-18.98,34.18-24.83-2.79-1.87-5.52-3.92-5.19-4.58,.57-1.14,9.94-17.71,12.43-22.12,.17-.3,.42-.51,.71-.64-4.78-1.43-8.92-2.58-11.66-3.31h0c-.74-.2-1.37-.36-1.88-.5-1.01-.26-1.58-.4-1.58-.4,0,0-2.63-1.32-7.24,6.58Z"/>
  <path class="g" d="M271.59,10.93c-2.5,4.41-11.86,20.98-12.43,22.12-.33,.66,2.39,2.71,5.19,4.58,3.86-2.59,7.02-4.45,9.29-5.24,7.31-2.56,17.68-6.72,31.53-6.1-1-.58-2-.76-2.94-.41-.42,.16-.82-.29-.61-.68,.43-.78,1.3-1.78,3.05-2.62-9.07-5.06-26.59-10.84-31.29-12.35-.37-.12-.74-.09-1.07,.06-.29,.13-.55,.34-.71,.64Z"/>
  <path class="j" d="M11.5,173.4c.35-.23,.72-.46,1.1-.71,1.9-1.23,4.14-2.7,6.6-4.31,.49-.32,.99-.65,1.5-.99,1.01-.67,2.05-1.36,3.12-2.07,3.72-2.48,7.69-5.15,11.55-7.77,1.65-1.13,3.28-2.24,4.86-3.33,5.27-3.64,9.98-6.98,13.05-9.33,11.18-8.55,36.18-26.97,44.73-27.63,8.55-.66,35.52,5.26,53.94,12.5,.43,.17,.88,.35,1.36,.53,.14,.06,.3,.11,.44,.17,.33,.13,.67,.26,1.02,.39,.22,.08,.45,.17,.68,.26,.29,.11,.59,.23,.9,.34,.28,.11,.56,.21,.86,.32,.09,.03,.18,.07,.26,.1l54.31,8.51,10.55-1.42s42.1-2.63,54.6-7.89c12.5-5.26,17.76-13.81,14.47-22.37-3.29-8.55-9.87-19.08-17.1-26.97-6.87-5.62-21.45-18.95-22.9-20.28-2.71,1.99-4.86,3.6-6.05,4.49-5.26,3.95-39.47,26.97-65.12,34.21-25.65,7.24-40.68,.16-50.65-7.89-13.93-11.26-42.76-45.39-49.34-51.97s-28.29-3.29-32.89-1.97c-3.8,1.09-3.57,3.52-3.95,5.57,2.02-1.4,4.2-2.71,6.13-3.5,1.15-.47,2.21-.75,3.08-.75,4.6,0,32.89,25,32.89,36.18s-6.58,19.08-15.13,27.63c-.49,.49-1.11,1.09-1.84,1.79-4.06,3.88-11.66,10.87-20.03,18.62-1.52,1.41-3.07,2.84-4.63,4.29-1.93,1.79-3.88,3.6-5.8,5.4-1.18,1.1-2.35,2.2-3.51,3.28-.76,.72-1.52,1.43-2.27,2.13-8.98,8.46-16.78,16.04-19.79,19.69-1.55,6.02-3.03,13.08-3.73,16.48,.25-.16,.52-.33,.81-.51,.58-.36,1.22-.78,1.92-1.23Z"/>
  <path class="j" d="M344.68,89.63c1.12,.42,2.57,1.08,4.3,1.73,2.69,.82,5.2,1.51,7.64,1.9,5.82,.61,13.03-.67,20.96-7.57l7.22-8.49c-.33-1.82-.71-3.64-1.15-5.38-4.39-2.61-8.74-5.23-12.99-7.82-1.02,4.62-3.88,8.86-9.91,11.68,0,0-.02,.01-.05,.03-.96,1.25-2.46,2.08-4.16,2.08-1.03,0-1.98-.31-2.79-.82-1.05-.46-1.95-1.4-2.47-3.13,0,0-6.32-5.64-3.29-17.76,.51-2.05,.09-4.42-.97-6.85-1.94-1.25-3.81-2.48-5.61-3.67-2.19-1.45-4.29-2.72-6.33-3.87-.25,5.74-1.83,10.58-2.88,11.1-1.32,.66-2.8,1.48-3.96,2.14-.96,1.1-2.36,1.8-3.94,1.8-2.15,0-3.99-1.29-4.81-3.14-2.28-1.15-4.55-1.26-5.72-10.02-.44-3.29-1.48-6.72-2.84-9.68-11.79-.64-19.89,4.06-26.1,6.39-2.86,1.07-6.71,3.18-10.88,5.74l.36,.18s57.52,38.59,70.38,43.42Zm-12.5-21.71c2.91,0,5.26,2.36,5.26,5.26s-2.36,5.26-5.26,5.26-5.26-2.36-5.26-5.26,2.36-5.26,5.26-5.26Z"/>
  <path class="x" d="M370.64,64c4.25,2.59,8.6,5.2,12.99,7.82-.95-3.74-2.16-7.09-3.72-9.27-3.06-1.99-6.06-3.95-9-5.85,.29,2.44,.26,4.92-.27,7.3Z"/>
  <path class="x" d="M80.24,40.29c6.58,6.58,35.4,40.71,49.34,51.97,9.97,8.06,25,15.13,50.65,7.89,25.65-7.24,59.86-30.26,65.12-34.21,1.19-.89,3.33-2.5,6.05-4.49,1.11-.81,2.32-1.69,3.59-2.61l1.29-1.53,.39,.33c2.76-1.97,5.78-4.08,8.84-6.15l.68-1.03s.15,.1,.44,.28c1.01-.68,2.02-1.34,3.03-2l1.12-1.66s.25,.17,.71,.48c.83-.53,1.65-1.04,2.46-1.54,4.18-2.56,8.02-4.67,10.88-5.74,6.21-2.33,14.32-7.03,26.1-6.39-1.62-3.54-3.7-6.42-5.76-7.6-13.85-.62-24.22,3.54-31.53,6.1-2.26,.79-5.43,2.65-9.29,5.24-8.71,5.84-20.93,15.41-34.17,24.83-.73,.52-1.47,1.04-2.2,1.56-2.84,2-5.73,3.98-8.62,5.91-11.78,7.85-23.83,14.81-34.52,18.38-43.42,14.47-71.04-25.65-86.83-43.42-15.79-17.76-35.52-15.79-43.42-14.47-7.89,1.32-7.24,7.89-7.24,7.89,4.6-1.32,26.31-4.6,32.89,1.97Z"/>
  <path class="x" d="M408.84,86.47h0s0,0,0,0c1.6,.91,3.08,1.76,4.4,2.51,.01-.02,.03-.04,.03-.04l.38,.28c3.24,1.84,5.35,3.04,5.35,3.04l-.1,.17s.06,.04,.1,.05c.08-1.01,.09-1.79,0-2.2-.29-1.43-1.56-2.86-2.92-4.01-4.26-2.81-8.64-5.69-13.06-8.59,.55,1.83,.91,3.85,.9,5.98,1.7,.98,3.36,1.93,4.91,2.81Z"/>
  <path class="x" d="M347,49.23c-2.22-5.13-7.25-10.55-12.28-14.01,.35,2.17,.44,4.38,.34,6.47,2.04,1.14,4.14,2.41,6.33,3.87,1.79,1.19,3.67,2.42,5.61,3.67Z"/>
  <path class="x" d="M439.35,104.09c-.45-1.81-.88-3.02-1.26-3.28-.04-.02-.05-.04-.08-.07-1.57-1.04-3.18-2.1-4.84-3.2,.53,1.16,1.01,2.44,1.36,3.81,1.66,.94,3.27,1.86,4.82,2.74Z"/>
  <path class="x" d="M463.3,117.51s-.35-.23-1-.66c-.5-.33-1.19-.79-2.05-1.36,.09,.15,.17,.32,.25,.47,1.8,1,2.79,1.55,2.79,1.55Z"/>
  <path class="y" d="M699.22,212.58c-.42-.45-.85-.91-1.26-1.37-.13,.19-.28,.38-.45,.58l1.71,.79Z"/>
  <path class="y" d="M685.42,213.29c-47.36,11.18-129.59,7.24-176.29,8.55-1.34,.04-2.64,.05-3.92,.05-.4,0-.79,0-1.19-.01-.88,0-1.74-.02-2.59-.05-.43-.01-.85-.03-1.28-.05-.83-.04-1.64-.08-2.44-.13-.37-.02-.74-.04-1.1-.07-1.05-.08-2.08-.17-3.08-.27-.08,0-.17-.01-.25-.02-1.08-.12-2.13-.25-3.15-.39-.31-.04-.62-.09-.93-.14-.71-.11-1.41-.22-2.1-.34-.34-.06-.68-.12-1.01-.19-.66-.12-1.3-.26-1.93-.39-.3-.06-.6-.13-.89-.19-.79-.18-1.55-.37-2.3-.56-.11-.03-.22-.05-.33-.08-.85-.23-1.67-.46-2.47-.71-.24-.07-.46-.15-.7-.22-.56-.18-1.11-.36-1.65-.55-.27-.09-.53-.19-.79-.28-.5-.18-1-.37-1.48-.56-.23-.09-.47-.18-.69-.28-.57-.23-1.13-.47-1.67-.72-.11-.05-.23-.1-.34-.15-.64-.29-1.26-.59-1.86-.9-.17-.09-.33-.17-.5-.26-.43-.22-.85-.45-1.25-.67-.2-.11-.39-.22-.58-.33-.37-.21-.73-.43-1.08-.64-.17-.11-.35-.21-.52-.32-.4-.25-.79-.51-1.17-.77-.09-.06-.19-.13-.29-.19-.46-.32-.91-.64-1.33-.96-.12-.09-.23-.18-.34-.26-.31-.23-.61-.47-.89-.7-.14-.11-.27-.22-.4-.33-.26-.21-.51-.43-.75-.64-.12-.11-.24-.21-.36-.32-.27-.24-.52-.48-.77-.72-.07-.07-.15-.14-.21-.2-.31-.3-.6-.6-.88-.89-.07-.07-.13-.15-.2-.22-.2-.22-.4-.44-.59-.65-.09-.1-.17-.19-.25-.29-.16-.19-.32-.37-.46-.55-.07-.09-.15-.18-.22-.27-.16-.2-.3-.39-.45-.57-.05-.06-.1-.12-.14-.19-.18-.24-.35-.48-.5-.7-.04-.06-.07-.11-.11-.16-.08-.12-.17-.25-.25-.37-1.44-2.2-2.96-4.34-4.63-6.38-8.81-10.7-32.22-39.51-38.75-47.9-6.03-7.75-7.79-14.99-7.88-20.7-.1-7.38,2.61-12.19,2.61-12.19l13.06-22.85,.1-.17s-2.11-1.2-5.35-3.04l2.85,2.08s-.31,.43-.84,1.19l-3.28-2.29c.49-.7,.79-1.11,.86-1.21-1.32-.75-2.8-1.6-4.4-2.51l3.22,2.36s-.31,.43-.84,1.18l-3.28-2.29c.56-.81,.89-1.26,.89-1.26-1.55-.89-3.21-1.83-4.91-2.81-.03,4.74-1.95,9.98-7.91,14.63-.97,1.13-2.38,1.86-3.98,1.86-2.91,0-5.26-2.36-5.26-5.26,0,0-.14-3.05-.57-7.34l-1.67-1.41c.3-.36,.59-.74,.89-1.11l-3.05-2.34c.58-.75,1.15-1.54,1.7-2.34l1.37,.94c-.19-1.34-.41-2.72-.66-4.09l-7.22,8.49c-7.93,6.9-15.14,8.19-20.96,7.57-2.92-.31-5.5-1.1-7.64-1.9-1.73-.65-3.18-1.31-4.3-1.73-12.86-4.82-70.38-43.42-70.38-43.42l-.36-.18c-.81,.5-1.63,1.01-2.46,1.54,.42,.29,1.02,.69,1.8,1.21l-2.23,3.32c-1.62-1.09-2.53-1.7-2.53-1.7l1.12-1.65c-1.01,.65-2.02,1.32-3.03,2,.42,.27,1.13,.73,2.1,1.36l-2.17,3.36c-1.65-1.06-2.56-1.66-2.56-1.66l1.52-2.31c-3.06,2.06-6.08,4.18-8.84,6.15l.75,.63-2.56,3.07-1.15-.96,1.28-1.53c-1.28,.92-2.48,1.8-3.59,2.61,1.45,1.33,16.9,13.73,22.9,20.28,7.24,7.89,13.81,18.42,17.1,26.97,3.29,8.55-1.97,17.1-14.47,22.37-12.5,5.26-54.6,7.89-54.6,7.89l-10.55,1.42,13.99,2.19-.02-1.53s.53,0,1.47-.03l.04,1.79,2.97,.47-.08-2.35c.88-.03,1.86-.07,2.94-.12l.13,2.94,3,.47-.19-3.55c.94-.05,1.92-.11,2.94-.17l.25,3.99c-.31,.02-.61,.04-.91,.05l94.53,14.81s21.71,3.95,21.71-11.18-.66-16.44-.66-16.44c0,0,23.02,8.55,36.84,33.55,12.64,22.86-12.52,40.36-19.59,42.55,1.32,.44,2.63,.87,3.95,1.3,.06,.02,.12,.04,.18,.06,2.6,.85,5.19,1.7,7.77,2.54,.11,.04,.22,.07,.33,.11,1.25,.41,2.51,.81,3.76,1.22,.02,0,.03,.01,.05,.02,1.28,.41,2.56,.83,3.84,1.24,.11,.04,.22,.07,.33,.11,1.23,.4,2.46,.79,3.69,1.18,.03,0,.06,.02,.09,.03,1.25,.4,2.5,.8,3.75,1.19,.14,.04,.28,.09,.41,.13,1.18,.37,2.36,.75,3.53,1.12,.06,.02,.12,.04,.18,.06,1.21,.38,2.42,.76,3.63,1.14,.17,.05,.34,.11,.51,.16,1.17,.37,2.33,.73,3.49,1.09,.03,0,.05,.02,.08,.02,1.19,.37,2.38,.74,3.57,1.1,.19,.06,.37,.12,.56,.17,1.11,.34,2.22,.68,3.33,1.02,.06,.02,.12,.04,.18,.05,1.15,.35,2.3,.7,3.45,1.05,.2,.06,.4,.12,.6,.18,1.05,.32,2.1,.63,3.14,.94,.1,.03,.19,.06,.29,.09,1.11,.33,2.21,.66,3.3,.98,.22,.06,.43,.13,.65,.19,1.01,.3,2.02,.6,3.03,.89,.09,.03,.19,.06,.28,.08,1.08,.32,2.15,.63,3.21,.93,.21,.06,.42,.12,.63,.18,.99,.28,1.97,.57,2.94,.84,.09,.03,.18,.05,.27,.08,1.03,.29,2.05,.58,3.07,.87,.23,.06,.46,.13,.68,.19,.95,.27,1.9,.53,2.83,.79,.07,.02,.15,.04,.22,.06,1,.28,1.99,.55,2.97,.81,.22,.06,.43,.12,.64,.18,.94,.25,1.87,.51,2.79,.75,.05,.01,.1,.03,.15,.04,.96,.26,1.9,.5,2.84,.75,.22,.06,.43,.11,.65,.17,.88,.23,1.75,.46,2.61,.68,.06,.02,.13,.03,.19,.05,.9,.23,1.79,.46,2.68,.68,.22,.05,.43,.11,.64,.16,.84,.21,1.67,.41,2.49,.61,.05,.01,.1,.02,.15,.04,.86,.21,1.7,.41,2.53,.61,.2,.05,.41,.1,.61,.14,.81,.19,1.61,.38,2.4,.56,.03,0,.06,.01,.08,.02,.81,.18,1.59,.36,2.38,.53,.2,.04,.39,.09,.59,.13,.77,.17,1.54,.33,2.29,.49h.01c.75,.16,1.49,.31,2.22,.46,.18,.04,.36,.07,.54,.11,.72,.14,1.43,.28,2.13,.41,0,0,59.2,3.29,138.8-5.26,0,0,36.74-2.12,55.85,18.76l20.12-6.12,22.03-6.71h0c-5.05-15.72-16.2-25.07-17.6-26.2-.28,.4-.66,.8-1.17,1.22l-2.55-3.08s.05-.04,.08-.07l-2.82-2.69c.4-.42,.5-.62,.5-.62l1.82,.79c-1.13-1.29-1.93-2.25-1.93-2.25-8.55,6.58-9.21,5.92-9.21,5.92ZM321.48,79.16c.87,.5,1.73,1,2.59,1.5l-1.99,3.47c-.87-.5-1.74-1-2.61-1.51l2.01-3.46Zm-5.16-3.04c.86,.51,1.72,1.02,2.58,1.52l-2.03,3.45c-.86-.51-1.73-1.02-2.59-1.54l2.04-3.44Zm-5.14-3.09c.85,.52,1.71,1.04,2.57,1.55l-2.06,3.43c-.86-.52-1.72-1.04-2.58-1.56l2.08-3.42Zm-5.11-3.13c.85,.52,1.7,1.05,2.55,1.57l-2.09,3.41c-.86-.53-1.72-1.05-2.57-1.58l2.1-3.4Zm-5.09-3.17l2.54,1.59-2.11,3.4-2.55-1.59,2.12-3.39Zm-5.07-3.2l2.54,1.6-2.13,3.38-2.54-1.61,2.14-3.38Zm-1.73,4.47l-2.07,3.42c-.87-.53-1.73-1.05-2.58-1.56l2.08-3.42c.84,.51,1.7,1.03,2.56,1.56Zm-3.33-7.7l2.53,1.62-2.15,3.37-2.53-1.62,2.16-3.37Zm-1.8,4.58l-2.09,3.41-2.56-1.58,2.1-3.4,2.56,1.57Zm-3.24-7.84l2.52,1.63-2.17,3.36-2.53-1.64,2.18-3.35Zm-1.87,4.69l-2.11,3.4-2.56-1.59,2.12-3.39,2.55,1.59Zm-3.16-7.98l2.51,1.65-2.19,3.35-2.52-1.65,2.2-3.34Zm-1.93,4.79l-2.13,3.39-2.55-1.61,2.14-3.38,2.54,1.6Zm-3.08-8.11l2.5,1.66-2.21,3.34-2.52-1.67,2.22-3.33Zm-4.53,3.28l2.53,1.62-2.15,3.38-2.54-1.62,2.16-3.37Zm-14.17,9.47l2.56-3.07,2.27,1.89-2.56,3.08-2.28-1.9Zm4.56,3.79l2.56-3.08,2.28,1.89-2.55,3.08-2.29-1.89Zm4.57,3.78l2.54-3.09c.83,.68,1.61,1.32,2.28,1.87l-2.52,3.11c-.68-.55-1.46-1.19-2.3-1.88Zm6.61,5.59c-1.12-1.15-1.7-1.65-1.95-1.85l2.47-3.15c.59,.46,1.38,1.2,2.36,2.21l-2.87,2.79Zm1.96,2.11l2.98-2.67c.62,.69,1.29,1.45,1.98,2.27l-3.04,2.6c-.67-.79-1.31-1.52-1.92-2.19Zm3.79,4.43l3.1-2.53c.61,.75,1.24,1.53,1.88,2.34l-3.14,2.48c-.62-.79-1.23-1.55-1.83-2.28Zm3.62,4.59l3.19-2.42c.59,.78,1.19,1.59,1.79,2.41l-3.23,2.36c-.58-.8-1.16-1.58-1.74-2.34Zm3.44,4.72l3.28-2.29c.57,.81,1.14,1.64,1.7,2.48l-3.32,2.23c-.54-.81-1.09-1.62-1.65-2.41Zm4.76,7.3c-.12-.21-.24-.41-.37-.62-.38-.61-.76-1.22-1.14-1.83l3.37-2.15c.4,.63,.8,1.26,1.18,1.9,.14,.23,.28,.46,.41,.68l-3.45,2.02Zm1.31,2.46l3.61-1.73c.46,.96,.87,1.93,1.23,2.88l-3.75,1.4c-.32-.84-.68-1.7-1.09-2.55Zm5.79,4.16c.27,1.04,.49,2.09,.64,3.11l-3.96,.58c-.13-.88-.32-1.78-.55-2.68l3.87-1.02Zm-55.3,38.15l-.29-3.99c.96-.07,1.94-.14,2.93-.22l.32,3.99c-1.01,.08-2,.16-2.97,.23Zm5.94-.48l-.37-3.98c.96-.09,1.94-.18,2.92-.29l.41,3.98c-1,.1-1.99,.2-2.97,.29Zm5.94-.62l-.46-3.97c.97-.11,1.94-.23,2.91-.36l.53,3.96c-.99,.13-1.98,.25-2.97,.37Zm5.93-.79l-.59-3.96c.97-.15,1.93-.3,2.88-.46l.67,3.94c-.98,.17-1.97,.32-2.96,.47Zm5.92-1.01l-.77-3.93c.97-.19,1.92-.39,2.84-.6l.88,3.9c-.96,.22-1.95,.42-2.96,.62Zm5.91-1.35l-1.03-3.86c.97-.26,1.89-.53,2.74-.81l1.23,3.8c-.92,.3-1.91,.59-2.94,.86Zm5.85-1.92l-1.5-3.71c.87-.35,1.73-.74,2.56-1.15l1.78,3.58c-.92,.45-1.87,.88-2.83,1.27Zm5.57-2.77l-2.06-3.43c.8-.48,1.58-.99,2.33-1.53l2.33,3.25c-.84,.6-1.72,1.18-2.61,1.71Zm5.07-3.65l-2.61-3.03c.71-.61,1.39-1.25,2.03-1.9l2.86,2.79c-.72,.74-1.49,1.46-2.29,2.14Zm4.37-4.49l-3.1-2.52c.59-.72,1.14-1.47,1.64-2.23l3.33,2.22c-.57,.86-1.2,1.71-1.87,2.53Zm3.49-5.25l-3.54-1.87c.68-1.29,1.01-2.18,1.09-2.42l3.78,1.3c-.14,.4-.54,1.49-1.34,2.99Zm2.06-6.29l-3.97-.48c.08-.71,.13-1.46,.13-2.22,0-.15,0-.3,0-.45l4-.09c0,.19,0,.37,0,.55,0,.92-.05,1.82-.16,2.69Zm-.99-41.14l-2.58-1.55,2.06-3.43,2.57,1.54-2.05,3.43Zm5.19,3.07c-.87-.51-1.74-1.02-2.6-1.53l2.04-3.44c.86,.51,1.72,1.01,2.58,1.52l-2.02,3.45Zm5.2,3.03c-.87-.5-1.74-1-2.6-1.51l2.01-3.46c.86,.5,1.72,1,2.59,1.5l-2,3.47Zm5.24,2.99c-.88-.49-1.75-.99-2.62-1.49l1.98-3.47c.87,.49,1.74,.99,2.6,1.48l-1.96,3.48Zm5.27,2.93c-.88-.48-1.76-.97-2.64-1.46l1.95-3.49c.88,.49,1.75,.97,2.62,1.45l-1.93,3.5Zm5.31,2.88c-.88-.47-1.77-.95-2.66-1.43l1.9-3.52c.68,.37,1.35,.73,2.02,1.09l1.94-3.44c.88,.49,1.75,.98,2.61,1.46l-1.94,3.5c-.67-.37-1.35-.75-2.02-1.13l-1.85,3.47Zm5.35,2.8c-.89-.45-1.78-.92-2.69-1.39l1.86-3.54c.7,.37,1.4,.73,2.09,1.08l1.82-3.35c.89,.48,1.77,.95,2.63,1.41l-1.88,3.53c-.69-.37-1.4-.75-2.1-1.13l-1.73,3.38Zm5.41,2.71c-.89-.43-1.8-.88-2.71-1.34l1.79-3.58c.74,.37,1.46,.72,2.18,1.08l1.68-3.27c.9,.46,1.79,.91,2.66,1.35l-1.78,3.58c-.72-.36-1.46-.74-2.21-1.12l-1.61,3.31Zm5.5,2.58c-.9-.41-1.82-.83-2.76-1.27l1.7-3.62c.78,.37,1.55,.72,2.3,1.06l1.53-3.22c.92,.44,1.82,.85,2.69,1.24l-1.63,3.65c-.77-.34-1.56-.71-2.36-1.09l-1.46,3.25Zm5.61,2.39c-.92-.36-1.86-.75-2.83-1.17l1.57-3.68c.85,.36,1.68,.7,2.48,1.02l1.32-3.21c.95,.39,1.86,.75,2.72,1.06l-1.36,3.76c-.82-.3-1.71-.64-2.63-1.02l-1.28,3.23Zm5.82,2.07c-.92-.28-1.91-.61-2.94-.98l1.35-3.76c.97,.35,1.9,.66,2.76,.92l-1.17,3.83Zm6.24,1.34c-.51-.05-1.02-.12-1.53-.2-.52-.08-1.08-.19-1.65-.32l.78-3.49c-.76-.14-1.53-.31-2.29-.51l-.46-.13,1.09-3.85,.4,.11c.77,.21,1.55,.38,2.31,.51l-.6,3.52c.36,.07,.71,.15,1.04,.2,.45,.07,.89,.13,1.33,.18l-.42,3.98Zm3.22,.15l-.04-3.72c-.21,0-.42,.02-.63,.02-.45,0-.9-.01-1.36-.04l.21-4c.94,.05,1.85,.04,2.75-.03l.27,3.71c.51-.03,1.02-.08,1.52-.14l.5,3.97c-1.06,.13-2.15,.21-3.22,.22Zm6.39-.81l-.89-3.64c-.36,.09-.71,.18-1.07,.25l-.79-3.92c.89-.18,1.78-.42,2.66-.71l1.17,3.54c.21-.07,.42-.13,.62-.21l1.37,3.76c-1.01,.37-2.05,.68-3.07,.93Zm6.02-2.17l-1.62-3.36c-.08,.04-.16,.08-.23,.12l-1.69-3.63c.83-.38,1.65-.82,2.46-1.31l2.05,3.43s-.06,.03-.09,.05l1.91,3.19c-.92,.55-1.86,1.06-2.8,1.51Zm5.45-3.24l-2.32-3.26c.11-.08,.23-.17,.34-.25l-2.2-2.99c.75-.55,1.49-1.14,2.21-1.77l2.62,3.02c-.18,.16-.37,.31-.55,.46l2.38,2.87c-.82,.68-1.65,1.32-2.49,1.92Zm4.84-4l-2.75-2.91c.23-.22,.46-.46,.69-.69l-2.66-2.63c.66-.66,1.31-1.37,1.95-2.11l3.02,2.62c-.27,.31-.54,.6-.81,.9l2.76,2.6c-.72,.76-1.46,1.51-2.2,2.21Zm82.44,123.28c.8,.61,1.58,1.2,2.37,1.75l-2.3,3.27c-.83-.58-1.66-1.2-2.5-1.85l2.44-3.17Zm-4.57-3.77c.75,.66,1.51,1.3,2.26,1.92l-2.55,3.08c-.78-.64-1.56-1.31-2.35-2l2.64-3.01Zm-4.39-4.03c.72,.7,1.45,1.38,2.17,2.04l-2.71,2.95c-.75-.69-1.49-1.39-2.24-2.1l2.77-2.89Zm-2.14-2.09l-2.82,2.83c-.72-.71-1.43-1.44-2.15-2.18l2.87-2.79c.7,.72,1.4,1.43,2.11,2.13Zm-4.18-4.29l-2.91,2.75c-.7-.74-1.39-1.48-2.08-2.23l2.95-2.71c.68,.74,1.36,1.47,2.04,2.19Zm-4.07-4.42l-2.98,2.67c-.68-.76-1.35-1.52-2.02-2.28l3-2.64c.66,.75,1.32,1.5,1.99,2.24Zm-3.96-4.51l-3.03,2.61c-.67-.77-1.33-1.55-1.97-2.32l3.05-2.58c.64,.76,1.29,1.52,1.95,2.29Zm-3.88-4.6l-3.08,2.55c-.66-.79-1.3-1.58-1.93-2.35l3.1-2.53c.62,.77,1.26,1.54,1.91,2.33Zm-3.81-4.67l-3.12,2.5c-.65-.81-1.28-1.6-1.9-2.38l3.14-2.48c.61,.77,1.24,1.56,1.88,2.36Zm-3.73-4.73l-3.16,2.45c-.64-.83-1.26-1.63-1.86-2.41l3.17-2.43c.59,.77,1.21,1.57,1.84,2.39Zm-3.67-4.79l-3.2,2.41c-.65-.86-1.26-1.67-1.82-2.44l3.21-2.39c.56,.76,1.17,1.56,1.81,2.42Zm-3.6-4.85l-3.23,2.36c-.71-.97-1.31-1.8-1.79-2.47l3.25-2.33c.48,.66,1.07,1.48,1.77,2.44Zm-3.61-4.97l-3.16,2.46-1.86-2.38,3.15-2.47,1.86,2.38Zm-3.72-4.76l-3.15,2.46c-.63-.81-1.25-1.61-1.86-2.4l3.18-2.43c.6,.79,1.22,1.58,1.84,2.38Zm-3.64-4.76l-3.21,2.39c-.61-.82-1.21-1.65-1.8-2.48l3.26-2.32c.57,.8,1.16,1.61,1.75,2.41Zm-3.44-4.85l-3.32,2.23c-.57-.86-1.13-1.72-1.68-2.59l3.4-2.11c.52,.84,1.06,1.66,1.6,2.48Zm-3.11-5.01l-3.47,1.98c-.52-.91-1.02-1.83-1.48-2.73l3.56-1.83c.45,.88,.92,1.73,1.4,2.58Zm-2.68-5.21l-3.64,1.66c-.43-.95-.85-1.91-1.23-2.86l3.71-1.49c.36,.89,.75,1.8,1.15,2.69Zm-2.98-18.98c-.27,.97-.49,1.9-.65,2.76l-3.94-.72c.18-.99,.42-2.04,.73-3.12l3.85,1.08Zm-2.9-4.08c.33-.93,.7-1.91,1.12-2.92l3.7,1.52c-.39,.94-.74,1.86-1.04,2.73l-3.77-1.33Zm1.93,9.58c0,.21-.01,.42-.01,.62,0,.7,.05,1.35,.16,1.94l-3.94,.72c-.15-.82-.23-1.72-.23-2.66,0-.26,0-.53,.02-.8l4,.18Zm.87,5.27c.28,.93,.58,1.87,.9,2.79l-3.78,1.31c-.34-.98-.66-1.97-.95-2.96l3.83-1.14Zm3.19-18.95l-3.64-1.66c.43-.93,.87-1.87,1.33-2.79l3.58,1.78c-.44,.88-.87,1.78-1.27,2.67Zm2.63-5.31l-3.53-1.88c.49-.92,.98-1.82,1.48-2.7l3.49,1.96c-.48,.85-.96,1.72-1.43,2.61Zm2.92-5.19l-3.44-2.04c.54-.91,1.07-1.79,1.58-2.62l3.41,2.1c-.5,.82-1.02,1.67-1.54,2.56Zm4.77-7.59c-.5,.75-1.05,1.59-1.64,2.5l-3.37-2.16c.6-.94,1.17-1.8,1.68-2.56l3.33,2.22Zm-7.74-4.71l3.33,2.21c-.49,.73-1.03,1.56-1.6,2.48l-3.38-2.14c.59-.94,1.15-1.79,1.65-2.54Zm-3.24,5.12l3.42,2.07c-.49,.81-.99,1.65-1.5,2.54l-3.46-2c.52-.91,1.04-1.78,1.54-2.61Zm-3.03,5.25l3.51,1.92c-.46,.84-.93,1.71-1.38,2.6l-3.55-1.84c.47-.91,.95-1.81,1.43-2.68Zm-2.79,5.4l3.6,1.74c-.42,.87-.84,1.76-1.24,2.65l-3.65-1.63c.42-.93,.85-1.86,1.29-2.77Zm-2.49,5.58l3.71,1.5c-.37,.9-.71,1.81-1.04,2.72l-3.76-1.35c.34-.96,.71-1.92,1.1-2.87Zm-2.07,5.8l3.83,1.16c-.29,.95-.54,1.88-.76,2.77l-3.89-.94c.23-.96,.51-1.97,.82-3Zm-1.44,6.07l3.95,.64c-.16,.95-.26,1.89-.32,2.78l-3.99-.26c.07-1.02,.19-2.08,.36-3.16Zm-.37,6.4l3.99-.26c.06,.92,.19,1.8,.38,2.62l-3.89,.93c-.25-1.03-.41-2.14-.48-3.29Zm2.81,9.2c-.41-.89-.82-1.81-1.23-2.75l3.66-1.6c.41,.93,.81,1.82,1.21,2.7l-3.64,1.66Zm1.28,2.73l3.61-1.72c.43,.91,.87,1.79,1.3,2.65l-3.58,1.79c-.44-.88-.88-1.78-1.33-2.72Zm4.16,8.07c-.48-.87-.96-1.75-1.44-2.66l3.54-1.87c.47,.88,.93,1.74,1.4,2.59l-3.5,1.94Zm3.05,5.22c-.52-.86-1.04-1.72-1.55-2.59l3.45-2.02c.5,.85,1,1.69,1.51,2.53l-3.41,2.08Zm3.21,5.09c-.55-.85-1.09-1.69-1.62-2.53l3.38-2.14c.52,.82,1.05,1.65,1.6,2.49l-3.36,2.18Zm1.65,2.51l3.34-2.21c.54,.81,1.08,1.63,1.65,2.48l-3.33,2.22c-.57-.85-1.12-1.68-1.66-2.49Zm3.32,4.98l3.32-2.23,1.66,2.48-3.32,2.22-1.66-2.48Zm3.36,5.01l3.27-2.31c.3,.42,.89,1.26,1.73,2.43l-3.24,2.34c-.86-1.19-1.46-2.03-1.76-2.46Zm3.54,4.9l3.22-2.37c.54,.74,1.13,1.54,1.78,2.4l-3.21,2.39c-.65-.87-1.25-1.68-1.79-2.42Zm3.6,4.83l3.19-2.42c.58,.76,1.18,1.55,1.81,2.37l-3.17,2.44c-.64-.83-1.25-1.62-1.83-2.39Zm3.67,4.77l3.15-2.46c.6,.76,1.21,1.54,1.84,2.34l-3.13,2.49c-.64-.8-1.26-1.59-1.86-2.36Zm3.74,4.71l3.12-2.51c.61,.76,1.24,1.53,1.88,2.31l-3.09,2.54c-.65-.79-1.28-1.57-1.9-2.34Zm3.81,4.66l3.07-2.56c.63,.75,1.27,1.51,1.91,2.28l-3.05,2.59c-.66-.77-1.3-1.54-1.94-2.31Zm5.88,6.86c-.67-.76-1.33-1.51-1.98-2.27l3.03-2.62c.65,.75,1.3,1.49,1.96,2.24l-3,2.65Zm4.04,4.48c-.68-.74-1.36-1.48-2.04-2.23l2.97-2.68c.66,.74,1.33,1.47,2,2.2l-2.94,2.71Zm4.16,4.38c-.7-.72-1.4-1.44-2.1-2.18l2.9-2.75c.68,.72,1.37,1.43,2.05,2.13l-2.86,2.8Zm4.3,4.26c-.73-.69-1.45-1.4-2.17-2.11l2.81-2.84c.71,.7,1.41,1.38,2.12,2.06l-2.76,2.9Zm4.48,4.1c-.75-.66-1.51-1.33-2.27-2.03l2.7-2.95c.73,.67,1.46,1.32,2.19,1.96l-2.62,3.02Zm4.73,3.87c-.79-.61-1.59-1.24-2.4-1.9l2.54-3.09c.77,.63,1.53,1.24,2.29,1.82l-2.43,3.18Zm5.07,3.53c-.84-.52-1.71-1.09-2.59-1.71l2.29-3.28c.82,.57,1.63,1.11,2.4,1.59l-2.11,3.4Zm5.6,2.91c-.93-.38-1.9-.83-2.88-1.35l1.86-3.54c.87,.46,1.72,.85,2.53,1.18l-1.5,3.71Zm.91-6.03c-.89-.47-1.81-1.01-2.74-1.59l2.12-3.39c.85,.53,1.69,1.02,2.49,1.45l-1.88,3.53Zm5.3,7.66c-1.18-.18-2.22-.39-3.1-.61l.96-3.88c.77,.19,1.7,.37,2.76,.54l-.62,3.95Zm.75-5.24c-.32-.08-.62-.16-.9-.25-.72-.22-1.48-.49-2.24-.8l1.52-3.7c.64,.26,1.27,.49,1.87,.67,.22,.07,.46,.13,.72,.2l-.98,3.88Zm5.33,5.94c-1.07-.09-2.08-.19-3.03-.3l.45-3.97c.91,.1,1.89,.2,2.92,.29l-.34,3.99Zm.89-4.91c-1.12-.13-2.16-.27-3.08-.41l.62-3.95c.88,.14,1.86,.27,2.91,.39l-.45,3.97Zm5.13,5.32c-1.04-.06-2.04-.12-3.01-.18l.27-3.99c.95,.06,1.93,.12,2.96,.18l-.21,3.99Zm.98-4.78c-1.06-.07-2.08-.15-3.05-.23l.34-3.99c.95,.08,1.94,.16,2.98,.23l-.27,3.99Zm5.03,5.04c-1.03-.03-2.03-.07-3-.11l.17-4c.96,.04,1.95,.08,2.97,.11l-.13,4Zm1.06-4.71c-1.04-.04-2.06-.09-3.04-.14l.21-3.99c.97,.05,1.97,.1,3,.14l-.17,4Zm4.94,4.87c-1.02-.02-2.02-.04-3-.07l.11-4c.97,.03,1.96,.05,2.97,.07l-.08,4Zm1.14-4.67c-1.03-.03-2.05-.06-3.04-.09l.13-4c.98,.03,1.98,.06,3.01,.09l-.1,4Zm4.86,4.76c-1.01-.01-2.01-.02-3-.04l.06-4c.98,.01,1.97,.03,2.98,.04l-.04,4Zm1.21-4.64c-1.03-.01-2.04-.03-3.03-.05l.08-4c.99,.02,1.99,.04,3.01,.05l-.06,4Zm4.78,4.67c-1.01,0-2.01,0-3-.01l.02-4c.98,0,1.97,0,2.98,.01v4Zm1.28-4.61c-1.02,0-2.03-.01-3.03-.02l.04-4c.99,0,2,.02,3.01,.02l-.02,4Zm1.71,4.61v-4c.98,0,1.97,0,2.98-.01l.02,4c-1.01,0-2.01,0-3,.01Zm2.32-4.6h-1.01s0-4,0-4h1s2.01,0,2.01,0v4s-2.01,0-2.01,0Zm3.67,4.57l-.03-4,2.98-.03,.04,4-2.99,.03Zm1.39-4.59l-.02-4,3.02-.02,.03,4-3.03,.02Zm4.6,4.52l-.05-4,2.98-.04,.06,4-2.99,.04Zm1.46-4.58l-.04-4,3.02-.04,.05,4-3.03,.04Zm4.53,4.48l-.07-4,2.98-.05,.08,4-2.99,.06Zm1.53-4.56l-.06-4,3.02-.05,.07,4-3.03,.05Zm4.45,4.45l-.09-4,2.99-.07,.09,4-2.99,.07Zm1.6-4.56l-.08-4,3.02-.06,.09,4-3.03,.06Zm4.38,4.42l-.1-4,2.99-.08,.11,4-2.99,.08Zm1.67-4.55l-.09-4,3.02-.07,.1,4-3.03,.07Zm4.31,4.39l-.11-4,2.98-.09,.12,4-2.99,.09Zm1.75-4.54l-.11-4,3.02-.08,.11,4-3.03,.08Zm4.23,4.37l-.12-4,2.98-.09,.13,4-2.99,.09Zm1.81-4.54l-.12-4,3.01-.09,.12,4-3.02,.09Zm4.16,4.35l-.13-4,2.99-.1,.14,4-2.99,.1Zm1.88-4.54l-.13-4,3.02-.1,.14,4-3.03,.1Zm4.11,4.33l-.14-4,2.99-.11,.15,4-2.99,.11Zm1.95-4.53l-.14-4,3.03-.11,.15,4-3.04,.11Zm4.03,4.31l-.15-4,2.99-.12,.16,4-2.99,.12Zm2.03-4.53l-.15-4,3.02-.12,.16,4-3.03,.12Zm3.95,4.29l-.16-4,2.99-.12,.17,4-2.99,.12Zm2.1-4.53l-.16-4,3.02-.12,.17,4-3.03,.12Zm3.88,4.28l-.17-4,2.98-.13,.18,4-2.99,.13Zm2.17-4.53l-.17-4,3.02-.13,.17,4-3.02,.13Zm3.81,4.26l-.18-4,2.98-.14,.19,4-2.99,.14Zm2.24-4.53l-.18-4,3.02-.14,.18,4-3.02,.14Zm3.74,4.25l-.19-4,2.98-.14,.19,4-2.99,.14Zm2.31-4.53l-.19-4,3.02-.14,.19,4-3.02,.14Zm3.67,4.24l-.2-4,2.98-.15,.2,3.99-2.99,.15Zm2.38-4.53l-.2-4,3.02-.15,.2,4-3.02,.15Zm3.59,4.23l-.21-3.99,2.98-.16,.21,3.99-2.99,.16Zm2.45-4.53l-.21-3.99,3.02-.16,.21,3.99-3.02,.16Zm3.52,4.21l-.22-3.99,2.98-.16,.22,3.99-2.99,.16Zm2.52-4.53l-.21-3.99,3.02-.16,.22,3.99-3.02,.16Zm38.98-6.53l.35,3.98c-.92,.08-1.93,.17-3.04,.25l-.32-3.99c1.09-.09,2.09-.17,3-.25Zm-6.01,.48l.3,3.99c-.96,.07-1.97,.15-3.03,.22l-.28-3.99c1.05-.08,2.06-.15,3.01-.22Zm-6.03,.43l.27,3.99-3.02,.2-.26-3.99,3.01-.2Zm-6.03,.4l.25,3.99-3.02,.19-.25-3.99,3.02-.19Zm-17.46,9.42l-.23-3.99,2.98-.17,.23,3.99-2.99,.17Zm2.59-4.53l-.22-3.99,3.02-.17,.23,3.99-3.02,.17Zm3.38,4.18l-.24-3.99,2.98-.18,.24,3.99-2.99,.18Zm2.66-4.53l-.23-3.99,3.02-.18,.24,3.99-3.02,.18Zm3.31,4.17l-.25-3.99,2.98-.19,.26,3.99-2.99,.19Zm5.98-.39l-.27-3.99,2.98-.2,.28,3.99-2.99,.2Zm5.98-.41l-.29-3.99c1.04-.08,2.04-.15,2.98-.22l.3,3.99c-.95,.07-1.95,.15-2.99,.22Zm5.99-.46l-.33-3.99c1.09-.09,2.08-.17,2.96-.26l.37,3.98c-.9,.08-1.9,.17-3,.26Zm7.65-.78c-.4,.07-.94,.14-1.62,.22l-.46-3.97c.6-.07,1.07-.13,1.42-.19,.47-.08,.94-.16,1.42-.24l.7,3.94c-.49,.09-.98,.17-1.46,.25Zm4.43-.81l-.74-3.76c-.56,.09-1.31,.18-2.31,.28l-.42-3.98c1.05-.11,1.83-.21,2.32-.29l.56-.09,.63,3.74c.69-.14,1.39-.28,2.08-.43l.83,3.91c-.99,.21-1.97,.41-2.96,.61Zm5.91-1.26l-.8-3.52c-.67,.12-1.33,.24-2.03,.37l-.7-3.94c1.02-.18,2-.36,2.96-.54l.65,3.5c.64-.15,1.29-.3,1.92-.45l.94,3.89c-.96,.23-1.94,.46-2.93,.69Zm5.86-1.41l-.82-3.23c-.61,.13-1.24,.25-1.89,.38l-.77-3.92c1.02-.2,2-.4,2.94-.6l.67,3.21c.6-.15,1.18-.31,1.75-.46l1.03,3.86c-.94,.25-1.91,.5-2.92,.76Zm5.83-1.56l-.83-2.95c-.55,.13-1.13,.27-1.73,.4l-.88-3.9c1.04-.24,2.01-.47,2.89-.69l.74,2.93c.55-.16,1.08-.31,1.57-.46l1.15,3.83c-.88,.27-1.85,.55-2.91,.85Zm9.65-11.7l2.12,2.78c.16-.09,.33-.18,.48-.27l2.05,3.43c-.82,.49-1.74,1-2.74,1.51l-1.47-2.88c-.23,.15-.45,.3-.68,.44l-2.09-3.41c.8-.49,1.6-1.04,2.32-1.59Zm-4.75,2.88l1.18,2.69c.34-.14,.69-.29,1.07-.46l1.62,3.66c-.51,.23-1,.43-1.44,.61-.38,.15-.89,.34-1.51,.55l-.94-2.77c-.44,.15-.93,.3-1.47,.46l-1.13-3.84c.93-.27,1.68-.53,2.25-.75,.12-.05,.24-.1,.37-.16Z"/>
  <path class="r" d="M332.18,78.44c2.91,0,5.26-2.36,5.26-5.26s-2.36-5.26-5.26-5.26-5.26,2.36-5.26,5.26,2.36,5.26,5.26,5.26Z"/>
  <path class="r" d="M324.29,56.74c1.58,0,2.97-.71,3.94-1.8-1.15,.65-1.96,1.15-1.96,1.15,0,0-3.02,.37-3.95,0-.76-.31-1.3-1.5-1.97-1.97-.29-.2-.57-.36-.86-.5,.82,1.84,2.66,3.14,4.81,3.14Z"/>
  <path class="r" d="M360.68,75.71c-.45,.27-4.2,2.46-6.95,1.26,.81,.51,1.76,.82,2.79,.82,1.7,0,3.2-.82,4.16-2.08Z"/>
  <path class="r" d="M392.04,100.15c1.6,0,3.02-.73,3.98-1.86-.23,.18-.45,.36-.69,.54-5.57,4.08-8.55-3.95-8.55-3.95,0,2.91,2.36,5.26,5.26,5.26Z"/>
  <path class="r" d="M421.64,123.17c1.88,0,3.51-.99,4.45-2.47-6.41,4.66-8.87,.8-9.62-3.68-.05,.29-.09,.59-.09,.89,0,2.91,2.36,5.26,5.26,5.26Z"/>
  <path class="r" d="M456.5,142.91c2.23,0,4.12-1.39,4.89-3.35-1.23,1.59-2.36,2.3-2.36,2.3,0,0-2.41,3-6.74-1.6,0,0-.16-.06-.42-.18,.88,1.67,2.62,2.83,4.64,2.83Z"/>
  <path class="r" d="M487,158.99c.94,1.41,2.55,2.34,4.37,2.34s3.26-.85,4.22-2.15c-3.34,2.7-7.12,.76-8.59-.19Z"/>
  <path class="r" d="M533.47,179.75c.94,0,1.81-.27,2.58-.7-2.08,.15-3.85-.15-4.55-.61-1.19-.79-2.26-1.59-3.13-2.71,.56,2.3,2.62,4.02,5.1,4.02Z"/>
  <path class="r" d="M430.19,139.62c-2.91,0-5.26,2.36-5.26,5.26s2.36,5.26,5.26,5.26,5.26-2.36,5.26-5.26-2.36-5.26-5.26-5.26Z"/>
  <path class="r" d="M458.48,162.64c0,2.91,2.36,5.26,5.26,5.26s5.26-2.36,5.26-5.26-2.36-5.26-5.26-5.26-5.26,2.36-5.26,5.26Z"/>
  <path class="n" d="M45.38,228.42c11.18,0,26.97-2.63,36.18,8.55,0,0,.44-.1,1.3-.28,.29-.06,.62-.13,1-.2,1.32-.26,3.2-.61,5.6-1,.69-.11,1.42-.23,2.19-.34,.77-.12,1.58-.24,2.44-.36,9.82-1.38,25.05-2.91,44.46-2.89,14.34,.01,30.97,.86,49.36,3.23,3.25,.42,6.55,.88,9.9,1.4,2.24,.34,4.49,.71,6.78,1.1,6.85,1.17,13.36,2.38,19.57,3.61,27.94,5.55,49.67,11.76,67.33,18.99,.98,.4,1.95,.81,2.91,1.22,1.91,.82,3.78,1.65,5.6,2.49,6.36,2.95,12.17,6.07,17.54,9.37h0s0,0,0,0c-2.33-1.65-4.61-3.1-6.82-4.3-.74-.4-1.46-.77-2.18-1.12,0,0,37.73,3.58,74.33,9.21,5.6,.86,11.39,1.72,17.34,2.56,2.97,.42,5.99,.84,9.04,1.25,1.53,.21,3.06,.41,4.61,.62,21.62,2.87,44.97,5.53,68.91,7.69,35.91,3.24,73.16,5.36,107.88,5.4,36.38,.04,69.99-2.2,96.41-7.83,.19-.23,.31-.39,.35-.45,.02-.02,.02-.03,.02-.03,.02-.93,.02-1.85,0-2.75-.02-.84-.05-1.67-.09-2.49-.72-12.24-5.03-21.28-11.16-27.97-19.11-20.87-55.85-18.76-55.85-18.76-79.59,8.55-138.8,5.26-138.8,5.26-.69-.13-1.41-.27-2.13-.41-.18-.04-.36-.07-.54-.11-.73-.15-1.46-.3-2.22-.45h-.01c-.75-.16-1.51-.33-2.29-.49-.19-.04-.39-.09-.59-.13-.78-.17-1.57-.35-2.38-.53-.03,0-.06-.01-.08-.02-.79-.18-1.59-.37-2.4-.56-.2-.05-.4-.1-.61-.14-.83-.2-1.68-.4-2.53-.61-.05-.01-.1-.02-.15-.04-.82-.2-1.65-.41-2.49-.61-.21-.05-.43-.11-.64-.16-.88-.22-1.77-.45-2.68-.68-.06-.02-.13-.03-.19-.05-.86-.22-1.73-.45-2.61-.68-.22-.06-.43-.11-.65-.17-.94-.25-1.88-.5-2.84-.75-.05-.01-.1-.03-.15-.04-.92-.25-1.85-.5-2.79-.75-.21-.06-.43-.12-.64-.18-.98-.27-1.97-.54-2.97-.81-.07-.02-.15-.04-.22-.06-.94-.26-1.88-.52-2.83-.79-.23-.06-.46-.13-.68-.19-1.02-.29-2.04-.57-3.07-.87-.09-.03-.18-.05-.27-.08-.97-.28-1.95-.56-2.94-.84-.21-.06-.42-.12-.63-.18-1.06-.31-2.13-.62-3.21-.93-.09-.03-.19-.06-.28-.08-1-.29-2.01-.59-3.03-.89-.22-.06-.43-.13-.65-.19-1.09-.32-2.2-.65-3.3-.98-.1-.03-.19-.06-.29-.09-1.04-.31-2.09-.63-3.14-.94-.2-.06-.4-.12-.6-.18-1.14-.35-2.29-.69-3.45-1.05-.06-.02-.12-.04-.18-.05-1.1-.34-2.21-.68-3.33-1.02-.19-.06-.37-.11-.56-.17-1.18-.36-2.37-.73-3.57-1.1-.03,0-.05-.02-.08-.02-1.16-.36-2.32-.72-3.49-1.09-.17-.05-.34-.11-.51-.16-1.21-.38-2.42-.76-3.63-1.14-.06-.02-.12-.04-.18-.06-1.17-.37-2.35-.74-3.53-1.12-.14-.04-.28-.09-.41-.13-1.25-.4-2.5-.79-3.75-1.19-.03-.01-.06-.02-.09-.03-1.23-.39-2.46-.79-3.69-1.18-.11-.04-.22-.07-.33-.11-1.28-.41-2.55-.82-3.84-1.24-.02,0-.03-.01-.05-.02-1.25-.4-2.5-.81-3.76-1.22-.11-.04-.22-.07-.33-.11-2.58-.84-5.18-1.69-7.77-2.54-.06-.02-.12-.04-.18-.06-1.32-.43-2.63-.87-3.95-1.3-16.02-5.29-32.1-10.75-47.36-16.03-51.56-17.83-93.72-33.53-92.35-33.13,.02,0,.06,.02,.1,.03,2.75,.92-10.27-3.71-26.84-9.65-4.99-1.79-10.31-3.7-15.62-5.61-1.55-.56-3.1-1.12-4.65-1.68-10.21-3.69-20-7.27-26.96-9.89-.09-.03-.17-.06-.26-.1-.29-.11-.57-.22-.86-.32-.3-.12-.6-.23-.9-.34-.23-.09-.46-.17-.68-.26-.35-.14-.69-.27-1.02-.39-.15-.06-.3-.12-.44-.17-.48-.18-.93-.36-1.36-.53-18.42-7.24-45.39-13.16-53.94-12.5-8.55,.66-33.55,19.08-44.73,27.63-3.07,2.35-7.78,5.69-13.05,9.33-1.58,1.09-3.21,2.21-4.86,3.33-3.86,2.63-7.83,5.3-11.55,7.77-1.06,.71-2.1,1.4-3.12,2.07-.51,.34-1.01,.67-1.5,.99-2.45,1.62-4.7,3.08-6.6,4.31-.38,.25-.75,.48-1.1,.71-.7,.45-1.35,.86-1.92,1.23-.29,.18-.56,.35-.81,.51-1.12,.7-1.88,1.16-2.2,1.32-2.63,1.32-3.95,2.63-2.63,5.92,1.32,3.29-.66,12.5-.66,12.5-1.32,17.1,9.2,40.54,9.2,40.54,.77-.38,1.65-.75,2.64-1.08,7.89-2.63,19.08-5.92,30.26-5.92Zm86.08-39.42l43.62-21.81c4.12-2.06,8.91-2.3,13.22-.68l84.94,32.12c4.9,1.85,6.01,8.29,2.01,11.67l-13.64,11.54c-7.27,6.15-17.15,8.21-26.26,5.48l-103.23-30.86c-3.51-1.05-3.92-5.84-.65-7.48Z"/>
  <path class="l" d="M132.11,196.48l103.23,30.86c9.12,2.73,19,.66,26.26-5.48l13.64-11.54c4-3.38,2.89-9.82-2.01-11.67l-84.94-32.12c-4.31-1.63-9.1-1.38-13.22,.68l-43.62,21.81c-3.27,1.64-2.86,6.43,.65,7.48Z"/>
  <path class="u" d="M285.47,308.02c0-2.66-.57-5.3-1.6-7.72-.34-.81-.73-1.59-1.17-2.34-.58-1-1.25-1.94-1.99-2.81-.42-.5-.86-.97-1.33-1.41-.02-.02-.04-.04-.06-.06-.38-.36-.77-.7-1.18-1.02-.11-.08-.21-.17-.32-.25-.41-.31-.84-.61-1.28-.87-1.74-1.06-3.65-1.77-5.69-2.02-.07,0-.13-.02-.2-.02-1.17-.13-2.37-.1-3.6,.09-8.06,1.29-18.73,2.02-30.48,2.37-.86,.03-1.72,.05-2.59,.07-1.67,.04-3.35,.07-5.05,.1-.89,.01-1.79,.03-2.69,.04-40.24,.48-87.46-2.58-87.46-2.58-10.17,0-18.42,8.25-18.42,18.42,0,5.72,2.61,10.83,6.7,14.21,.45,.38,.93,.73,1.42,1.06,.66,.45,1.36,.83,2.08,1.19,.74,.37,1.5,.69,2.29,.96,1.86,.63,3.85,.99,5.93,.99,0,0,4.59,.51,12.28,1.16,.3,.03,.61,.05,.92,.08,7.38,.61,17.38,1.33,28.84,1.85,.15,0,.3,.01,.44,.02,2.23,.1,4.52,.19,6.85,.27,.95,.03,1.91,.07,2.88,.1,5.76,.18,11.77,.3,17.89,.31,.01,0,.02,0,.03,0,19.53,.06,40.26-.86,58.13-3.8,.92-.15,1.82-.36,2.71-.59,8.79-2.31,15.71-8.59,15.71-17.83Zm-126.96,6.37c0,4.11-3.33,7.44-7.44,7.44h-10.05c-7.42,0-13.43-6.01-13.43-13.43v-5.44c0-4.11,3.33-7.44,7.44-7.44h16.04c4.11,0,7.44,3.33,7.44,7.44v11.43Zm60.52,1.32c0,4.11-3.33,7.44-7.44,7.44h-16.04c-4.11,0-7.44-3.33-7.44-7.44v-11.43c0-4.11,3.33-7.44,7.44-7.44h16.04c4.11,0,7.44,3.33,7.44,7.44v11.43Zm58.54-5.99c0,7.42-6.01,13.43-13.43,13.43h-10.04c-4.11,0-7.44-3.33-7.44-7.44v-11.43c0-4.11,3.33-7.44,7.44-7.44h16.03c4.11,0,7.44,3.33,7.44,7.44v5.44Z"/>
  <path class="o" d="M227.22,141.01c-.94,.02-1.47,.03-1.47,.03l.02,1.53,1.5,.23-.04-1.79Z"/>
  <path class="o" d="M285.37,85.07l-3.19,2.42c.58,.76,1.16,1.55,1.74,2.34l3.23-2.36c-.6-.82-1.2-1.62-1.79-2.41Z"/>
  <path class="o" d="M247.77,139.82l.37,3.98c.98-.09,1.97-.19,2.97-.29l-.41-3.98c-.98,.1-1.96,.2-2.92,.29Z"/>
  <path class="o" d="M281.21,131.92l2.06,3.43c.89-.53,1.77-1.11,2.61-1.71l-2.33-3.25c-.75,.54-1.54,1.06-2.33,1.53Z"/>
  <path class="o" d="M259.42,138.44l.59,3.96c1-.15,1.99-.31,2.96-.47l-.67-3.94c-.95,.16-1.91,.31-2.88,.46Z"/>
  <path class="o" d="M241.91,140.3l.29,3.99c.97-.07,1.96-.14,2.97-.23l-.32-3.99c-1,.08-1.98,.16-2.93,.22Z"/>
  <path class="o" d="M253.61,139.21l.46,3.97c.99-.12,1.98-.24,2.97-.37l-.53-3.96c-.97,.13-1.94,.25-2.91,.36Z"/>
  <path class="o" d="M276.19,134.41l1.5,3.71c.96-.39,1.92-.82,2.83-1.27l-1.78-3.58c-.83,.41-1.69,.8-2.56,1.15Z"/>
  <path class="o" d="M265.17,137.46l.77,3.93c1.01-.2,2-.4,2.96-.62l-.88-3.9c-.92,.21-1.87,.41-2.84,.6Z"/>
  <path class="o" d="M270.81,136.18l1.03,3.86c1.03-.28,2.02-.57,2.94-.86l-1.23-3.8c-.85,.28-1.77,.55-2.74,.81Z"/>
  <path class="o" d="M298.14,109.25c-.15-1.03-.37-2.07-.64-3.11l-3.87,1.02c.24,.9,.42,1.8,.55,2.68l3.96-.58Z"/>
  <rect class="o" x="257.5" y="61.13" width="4" height="2.96" transform="translate(45.18 221.75) rotate(-50.16)"/>
  <path class="o" d="M293.43,96.81c-.39-.63-.78-1.27-1.18-1.9l-3.37,2.15c.39,.61,.77,1.22,1.14,1.83,.13,.21,.25,.42,.37,.62l3.45-2.02c-.13-.23-.27-.46-.41-.68Z"/>
  <path class="o" d="M281.66,80.37l-3.1,2.53c.6,.73,1.21,1.49,1.83,2.28l3.14-2.48c-.64-.81-1.26-1.59-1.88-2.34Z"/>
  <path class="o" d="M288.91,89.92l-3.28,2.29c.55,.79,1.11,1.59,1.65,2.41l3.32-2.23c-.56-.83-1.13-1.66-1.7-2.48Z"/>
  <path class="o" d="M277.76,75.8l-2.98,2.67c.6,.67,1.24,1.4,1.92,2.19l3.04-2.6c-.7-.82-1.36-1.57-1.98-2.27Z"/>
  <polygon class="o" points="264.19 63.91 261.64 66.99 263.92 68.88 266.47 65.79 264.19 63.91"/>
  <path class="o" d="M273.33,71.36l-2.47,3.15c.25,.2,.84,.7,1.95,1.85l2.87-2.79c-.98-1.01-1.77-1.75-2.36-2.21Z"/>
  <path class="o" d="M268.75,67.67l-2.54,3.09c.84,.69,1.62,1.33,2.3,1.88l2.52-3.11c-.68-.55-1.45-1.18-2.28-1.87Z"/>
  <path class="o" d="M296.54,103.13c-.36-.96-.77-1.93-1.23-2.88l-3.61,1.73c.41,.85,.77,1.71,1.09,2.55l3.75-1.4Z"/>
  <path class="o" d="M294.41,112.54c0,.16,0,.31,0,.45,0,.76-.04,1.51-.13,2.22l3.97,.48c.1-.87,.16-1.77,.16-2.69,0-.18,0-.36,0-.55l-4,.09Z"/>
  <path class="o" d="M289.6,124.69l3.1,2.52c.67-.82,1.3-1.67,1.87-2.53l-3.33-2.22c-.5,.76-1.06,1.5-1.64,2.23Z"/>
  <path class="o" d="M292.66,120.1l3.54,1.87c.79-1.5,1.2-2.59,1.34-2.99l-3.78-1.3c-.08,.24-.41,1.13-1.09,2.42Z"/>
  <path class="o" d="M233.1,140.81c-1.08,.05-2.07,.09-2.94,.12l.08,2.35,2.99,.47-.13-2.94Z"/>
  <path class="o" d="M239.22,144.48l-.25-3.99c-1.02,.06-2,.12-2.94,.17l.19,3.55,2.09,.33c.3-.02,.6-.04,.91-.05Z"/>
  <path class="o" d="M285.73,128.67l2.61,3.03c.79-.68,1.56-1.4,2.29-2.14l-2.86-2.79c-.64,.66-1.32,1.3-2.03,1.9Z"/>
  <polygon class="o" points="254.86 61.34 257.42 58.27 256.67 57.64 256.27 57.31 254.99 58.84 253.7 60.38 254.86 61.34"/>
  <path class="o" d="M318.9,77.65c-.86-.5-1.72-1.01-2.58-1.52l-2.04,3.44c.87,.51,1.73,1.03,2.59,1.54l2.03-3.45Z"/>
  <path class="o" d="M313.75,74.58c-.86-.52-1.71-1.03-2.57-1.55l-2.08,3.42c.86,.52,1.72,1.04,2.58,1.56l2.06-3.43Z"/>
  <path class="o" d="M329.29,83.59c-.86-.48-1.73-.96-2.61-1.46l-1.94,3.44c-.67-.36-1.34-.72-2.02-1.09l-1.9,3.52c.89,.48,1.78,.96,2.66,1.43l1.85-3.47c.68,.38,1.35,.76,2.02,1.13l1.94-3.5Z"/>
  <polygon class="o" points="278.28 52.11 275.77 50.45 273.56 53.78 276.07 55.45 278.28 52.11"/>
  <path class="o" d="M334.54,86.44c-.87-.46-1.74-.93-2.63-1.41l-1.82,3.35c-.69-.36-1.39-.71-2.09-1.08l-1.86,3.54c.9,.47,1.8,.94,2.69,1.39l1.73-3.38c.7,.38,1.41,.76,2.1,1.13l1.88-3.53Z"/>
  <path class="o" d="M374.02,95.74l-2.05-3.43c-.81,.49-1.64,.93-2.46,1.31l1.69,3.63c.08-.04,.16-.08,.23-.12l1.62,3.36c.94-.45,1.88-.96,2.8-1.51l-1.91-3.19s.06-.03,.09-.05Z"/>
  <polygon class="o" points="303.53 68.33 300.98 66.74 298.86 70.13 301.41 71.72 303.53 68.33"/>
  <path class="o" d="M345.2,91.71c-.87-.39-1.77-.8-2.69-1.24l-1.53,3.22c-.76-.34-1.52-.69-2.3-1.06l-1.7,3.62c.94,.44,1.86,.86,2.76,1.27l1.46-3.25c.8,.38,1.6,.75,2.36,1.09l1.63-3.65Z"/>
  <path class="o" d="M308.63,71.48c-.86-.52-1.71-1.05-2.55-1.57l-2.1,3.4c.85,.53,1.71,1.05,2.57,1.58l2.09-3.41Z"/>
  <path class="o" d="M339.84,89.17c-.87-.43-1.76-.88-2.66-1.35l-1.68,3.27c-.72-.35-1.44-.71-2.18-1.08l-1.79,3.58c.92,.46,1.82,.91,2.71,1.34l1.61-3.31c.74,.38,1.49,.76,2.21,1.12l1.78-3.58Z"/>
  <path class="o" d="M350.63,93.93c-.86-.31-1.77-.67-2.72-1.06l-1.32,3.21c-.81-.32-1.63-.66-2.48-1.02l-1.57,3.68c.97,.41,1.91,.8,2.83,1.17l1.28-3.23c.92,.38,1.81,.72,2.63,1.02l1.36-3.76Z"/>
  <polygon class="o" points="288.33 58.68 285.81 57.05 283.63 60.4 286.16 62.04 288.33 58.68"/>
  <path class="o" d="M324.08,80.65c-.86-.49-1.73-.99-2.59-1.5l-2.01,3.46c.87,.51,1.75,1.01,2.61,1.51l1.99-3.47Z"/>
  <rect class="o" x="278.94" y="54.75" width="4" height="3.01" transform="translate(79.85 260.36) rotate(-56.75)"/>
  <path class="o" d="M382.38,82.68l3.05,2.34c-.3,.37-.59,.75-.89,1.11l1.67,1.41c-.19-1.9-.44-4.04-.76-6.27l-1.37-.94c-.55,.8-1.12,1.59-1.7,2.34Z"/>
  <path class="o" d="M271.04,52.1l2.23-3.32c-.77-.52-1.37-.92-1.8-1.21-.46-.31-.71-.48-.71-.48l-1.12,1.66-1.12,1.65s.9,.61,2.53,1.7Z"/>
  <path class="o" d="M379.14,91.99l-2.62-3.02c-.72,.63-1.47,1.23-2.21,1.77l2.2,2.99c-.11,.08-.23,.17-.34,.25l2.32,3.26c.84-.6,1.68-1.25,2.49-1.92l-2.38-2.87c.18-.15,.37-.3,.55-.46Z"/>
  <polygon class="o" points="293.38 61.93 290.85 60.31 288.69 63.67 291.22 65.3 293.38 61.93"/>
  <polygon class="o" points="298.44 65.14 295.91 63.54 293.77 66.92 296.31 68.53 298.44 65.14"/>
  <path class="o" d="M383.57,87.54l-3.02-2.62c-.64,.73-1.3,1.44-1.95,2.11l2.66,2.63c-.23,.23-.45,.47-.69,.69l2.75,2.91c.74-.7,1.49-1.45,2.2-2.21l-2.76-2.6c.27-.3,.54-.6,.81-.9Z"/>
  <path class="o" d="M305.06,79.12c.86,.5,1.73,1.01,2.6,1.51l2-3.47c-.87-.5-1.73-1-2.59-1.5l-2.01,3.46Z"/>
  <polygon class="o" points="284.4 66.72 286.96 68.3 289.06 64.89 286.5 63.32 284.4 66.72"/>
  <path class="o" d="M299.86,76.07c.86,.51,1.72,1.02,2.6,1.53l2.02-3.45c-.87-.51-1.73-1.02-2.58-1.52l-2.04,3.44Z"/>
  <path class="o" d="M266.54,55.46l2.17-3.36c-.97-.63-1.68-1.09-2.1-1.36-.28-.18-.43-.28-.44-.28l-.68,1.03-1.52,2.31s.91,.6,2.56,1.66Z"/>
  <polygon class="o" points="294.69 72.99 297.27 74.54 299.32 71.1 296.75 69.56 294.69 72.99"/>
  <path class="o" d="M361.82,99.42l-.27-3.71c-.9,.06-1.81,.08-2.75,.03l-.21,4c.46,.02,.91,.04,1.36,.04,.21,0,.42-.02,.63-.02l.04,3.72c1.07-.01,2.16-.08,3.22-.22l-.5-3.97c-.5,.06-1.01,.11-1.52,.14Z"/>
  <path class="o" d="M368.1,98.18l-1.17-3.54c-.88,.29-1.77,.53-2.66,.71l.79,3.92c.36-.07,.71-.16,1.07-.25l.89,3.64c1.03-.25,2.06-.57,3.07-.93l-1.37-3.76c-.21,.08-.41,.14-.62,.21Z"/>
  <path class="o" d="M315.53,85.09c.88,.49,1.76,.98,2.64,1.46l1.93-3.5c-.87-.48-1.74-.96-2.62-1.45l-1.95,3.49Z"/>
  <path class="o" d="M355.46,98.96l.6-3.52c-.76-.13-1.54-.3-2.31-.51l-.4-.11-1.09,3.85,.46,.13c.76,.2,1.53,.37,2.29,.51l-.78,3.49c.58,.13,1.13,.24,1.65,.32,.52,.08,1.03,.15,1.53,.2l.42-3.98c-.44-.05-.88-.1-1.33-.18-.33-.05-.69-.13-1.04-.2Z"/>
  <path class="o" d="M310.28,82.13c.87,.5,1.75,.99,2.62,1.49l1.96-3.48c-.87-.49-1.74-.98-2.6-1.48l-1.98,3.47Z"/>
  <path class="o" d="M349.58,97.23l-1.35,3.76c1.03,.37,2.02,.7,2.94,.98l1.17-3.83c-.86-.26-1.79-.57-2.76-.92Z"/>
  <path class="o" d="M289.53,69.87c.85,.52,1.71,1.04,2.58,1.56l2.07-3.42c-.87-.52-1.72-1.04-2.56-1.56l-2.08,3.42Z"/>
  <polygon class="o" points="273.78 55.35 271.24 53.73 269.09 57.1 271.63 58.72 273.78 55.35"/>
  <polygon class="o" points="279.28 63.54 281.84 65.14 283.95 61.74 281.4 60.15 279.28 63.54"/>
  <polygon class="o" points="274.18 60.34 276.73 61.94 278.86 58.56 276.31 56.96 274.18 60.34"/>
  <path class="o" d="M415.67,92.48c.53-.75,.83-1.18,.84-1.19l-2.85-2.08-.38-.28s-.02,.03-.03,.04c-.07,.1-.37,.51-.86,1.21l3.28,2.29Z"/>
  <path class="o" d="M460.91,217.77l2.55-3.08c-.75-.62-1.5-1.26-2.26-1.92l-2.64,3.01c.79,.69,1.57,1.36,2.35,2Z"/>
  <path class="o" d="M456.27,213.71l2.71-2.95c-.73-.67-1.45-1.35-2.17-2.04l-2.77,2.89c.75,.72,1.49,1.42,2.24,2.1Z"/>
  <path class="o" d="M451.84,209.47l2.82-2.83c-.7-.7-1.41-1.41-2.11-2.13l-2.87,2.79c.71,.73,1.43,1.46,2.15,2.18Z"/>
  <rect class="o" x="583.39" y="223.96" width="3.02" height="4" transform="translate(-8.58 23.6) rotate(-2.29)"/>
  <path class="o" d="M465.83,221.54l2.3-3.27c-.78-.55-1.57-1.13-2.37-1.75l-2.44,3.17c.84,.65,1.68,1.26,2.5,1.85Z"/>
  <rect class="o" x="577.35" y="224.2" width="3.02" height="4" transform="translate(-8.1 21.92) rotate(-2.15)"/>
  <rect class="o" x="595.48" y="223.44" width="3.02" height="4" transform="translate(-9.43 26.75) rotate(-2.55)"/>
  <path class="o" d="M443.44,200.59l2.98-2.67c-.67-.75-1.33-1.49-1.99-2.24l-3,2.64c.67,.76,1.34,1.52,2.02,2.28Z"/>
  <path class="o" d="M439.42,196.01l3.03-2.61c-.66-.77-1.31-1.53-1.95-2.29l-3.05,2.58c.65,.77,1.31,1.54,1.97,2.32Z"/>
  <path class="o" d="M480.36,227.92c.92,.15,1.96,.28,3.08,.41l.45-3.97c-1.05-.12-2.02-.25-2.91-.39l-.62,3.95Z"/>
  <path class="o" d="M435.49,191.36l3.08-2.55c-.65-.78-1.29-1.56-1.91-2.33l-3.1,2.53c.63,.78,1.28,1.56,1.93,2.35Z"/>
  <rect class="o" x="589.43" y="223.7" width="3.03" height="4" transform="translate(-9.05 25.31) rotate(-2.43)"/>
  <path class="o" d="M475.61,222.55l-1.52,3.7c.76,.31,1.51,.58,2.24,.8,.28,.08,.58,.17,.9,.25l.98-3.88c-.26-.06-.5-.13-.72-.2-.6-.18-1.23-.41-1.87-.67Z"/>
  <polygon class="o" points="517.89 225.58 516.88 225.58 516.88 229.58 517.89 229.58 519.91 229.58 519.9 225.58 517.89 225.58"/>
  <path class="o" d="M447.58,205.08l2.91-2.75c-.69-.73-1.37-1.46-2.04-2.19l-2.95,2.71c.69,.75,1.38,1.5,2.08,2.23Z"/>
  <path class="o" d="M468.44,223.28c.93,.58,1.85,1.12,2.74,1.59l1.88-3.53c-.8-.43-1.64-.91-2.49-1.45l-2.12,3.39Z"/>
  <rect class="o" x="619.64" y="222.24" width="3.02" height="4" transform="translate(-11.05 33.38) rotate(-3.05)"/>
  <path class="o" d="M653.02,224.26l-.3-3.99c-.96,.07-1.96,.14-3.01,.22l.28,3.99c1.06-.07,2.07-.15,3.03-.22Z"/>
  <rect class="o" x="571.29" y="224.42" width="3.03" height="4" transform="translate(-7.61 20.28) rotate(-2.01)"/>
  <rect class="o" x="553.17" y="225" width="3.02" height="4" transform="translate(-5.9 14.98) rotate(-1.54)"/>
  <rect class="o" x="631.72" y="221.55" width="3.02" height="4" transform="translate(-12.01 37.49) rotate(-3.36)"/>
  <rect class="o" x="625.68" y="221.9" width="3.02" height="4" transform="translate(-11.49 35.26) rotate(-3.19)"/>
  <polygon class="o" points="646.96 224.69 646.69 220.7 643.68 220.9 643.94 224.89 646.96 224.69"/>
  <rect class="o" x="637.76" y="221.19" width="3.03" height="4" transform="translate(-12.88 41.03) rotate(-3.64)"/>
  <polygon class="o" points="528.96 225.52 529 229.52 532.03 229.48 531.97 225.48 528.96 225.52"/>
  <rect class="o" x="601.52" y="223.16" width="3.02" height="4" transform="translate(-9.89 28.51) rotate(-2.69)"/>
  <rect class="o" x="607.56" y="222.87" width="3.02" height="4" transform="translate(-10.3 30.16) rotate(-2.81)"/>
  <polygon class="o" points="522.92 225.57 522.94 229.57 525.97 229.55 525.94 225.55 522.92 225.57"/>
  <rect class="o" x="559.2" y="224.83" width="3.02" height="4" transform="translate(-6.51 16.8) rotate(-1.71)"/>
  <path class="o" d="M431.64,186.64l3.12-2.5c-.64-.8-1.27-1.59-1.88-2.36l-3.14,2.48c.62,.78,1.25,1.58,1.9,2.38Z"/>
  <rect class="o" x="541.07" y="225.3" width="3.02" height="4" transform="translate(-4.44 10.91) rotate(-1.15)"/>
  <polygon class="o" points="534.99 225.44 535.06 229.44 538.09 229.38 538.01 225.38 534.99 225.44"/>
  <rect class="o" x="613.6" y="222.56" width="3.02" height="4" transform="translate(-10.71 31.84) rotate(-2.94)"/>
  <path class="o" d="M659.08,223.77l-.35-3.98c-.91,.08-1.91,.16-3,.25l.32,3.99c1.1-.09,2.12-.17,3.04-.25Z"/>
  <polygon class="o" points="417 167.26 420.15 164.8 418.29 162.42 415.14 164.89 417 167.26"/>
  <path class="o" d="M686.19,218.66c.53-.16,1.02-.31,1.47-.46l.94,2.77c.62-.21,1.14-.4,1.51-.55,.44-.18,.93-.38,1.44-.61l-1.62-3.66c-.38,.17-.73,.32-1.07,.46l-1.18-2.69c-.12,.06-.25,.11-.37,.16-.57,.23-1.32,.48-2.25,.75l1.13,3.84Z"/>
  <path class="o" d="M402.77,105.86l3.53,1.88c.47-.89,.95-1.76,1.43-2.61l-3.49-1.96c-.5,.88-.99,1.78-1.48,2.7Z"/>
  <path class="o" d="M510.82,229.55c1,0,2.01,.02,3.03,.02l.02-4c-1.02,0-2.02-.01-3.01-.02l-.04,4Z"/>
  <path class="o" d="M692.87,215.59l1.47,2.88c1-.51,1.92-1.02,2.74-1.51l-2.05-3.43c-.15,.09-.32,.18-.48,.27l-2.12-2.78c-.72,.55-1.52,1.1-2.32,1.59l2.09,3.41c.23-.14,.45-.29,.68-.44Z"/>
  <path class="o" d="M402.76,147.41l3.47-1.98c-.48-.85-.95-1.7-1.4-2.58l-3.56,1.83c.46,.91,.96,1.83,1.48,2.73Z"/>
  <path class="o" d="M406.03,152.66l3.32-2.23c-.55-.82-1.08-1.64-1.6-2.48l-3.4,2.11c.54,.87,1.1,1.74,1.68,2.59Z"/>
  <path class="o" d="M400.03,111.38l3.64,1.66c.41-.89,.83-1.79,1.27-2.67l-3.58-1.78c-.46,.92-.91,1.86-1.33,2.79Z"/>
  <path class="o" d="M498.68,229.3c.99,.03,2,.06,3.04,.09l.1-4c-1.02-.03-2.03-.06-3.01-.09l-.13,4Z"/>
  <rect class="o" x="565.24" y="224.63" width="3.03" height="4" transform="translate(-7.11 18.66) rotate(-1.87)"/>
  <path class="o" d="M504.75,229.46c.99,.02,2,.04,3.03,.05l.06-4c-1.02-.01-2.03-.03-3.01-.05l-.08,4Z"/>
  <path class="o" d="M492.6,229.05c.98,.05,2,.1,3.04,.14l.17-4c-1.03-.04-2.03-.09-3-.14l-.21,3.99Z"/>
  <path class="o" d="M405.78,100.5l3.44,2.04c.52-.89,1.04-1.74,1.54-2.56l-3.41-2.1c-.51,.84-1.04,1.71-1.58,2.62Z"/>
  <path class="o" d="M412.36,97.45c.59-.92,1.14-1.76,1.64-2.5l-3.33-2.22c-.51,.76-1.07,1.62-1.68,2.56l3.37,2.16Z"/>
  <path class="o" d="M486.51,228.63c.97,.08,1.99,.16,3.05,.23l.27-3.99c-1.04-.07-2.03-.15-2.98-.23l-.34,3.99Z"/>
  <path class="o" d="M398.69,139.01c.38,.95,.79,1.91,1.23,2.86l3.64-1.66c-.41-.89-.79-1.8-1.15-2.69l-3.71,1.49Z"/>
  <path class="o" d="M420.53,172.14l3.23-2.36c-.7-.96-1.29-1.78-1.77-2.44l-3.25,2.33c.48,.67,1.08,1.5,1.79,2.47Z"/>
  <polygon class="o" points="547.07 225.2 547.17 229.2 550.2 229.12 550.1 225.12 547.07 225.2"/>
  <path class="o" d="M424.17,177.03l3.2-2.41c-.64-.85-1.25-1.66-1.81-2.42l-3.21,2.39c.57,.76,1.18,1.58,1.82,2.44Z"/>
  <path class="o" d="M427.87,181.86l3.16-2.45c-.64-.82-1.25-1.62-1.84-2.39l-3.17,2.43c.6,.78,1.22,1.58,1.86,2.41Z"/>
  <path class="o" d="M413.28,162.5l3.15-2.46c-.62-.8-1.24-1.59-1.84-2.38l-3.18,2.43c.61,.8,1.23,1.6,1.86,2.4Z"/>
  <path class="o" d="M402.5,115.75l-3.7-1.52c-.41,1.01-.79,1.99-1.12,2.92l3.77,1.33c.3-.87,.66-1.78,1.04-2.73Z"/>
  <path class="o" d="M395.6,127.35c0,.94,.08,1.83,.23,2.66l3.94-.72c-.11-.59-.16-1.24-.16-1.94,0-.21,0-.41,.01-.62l-4-.18c-.01,.27-.02,.54-.02,.8Z"/>
  <path class="o" d="M401.38,134.79c-.32-.92-.62-1.86-.9-2.79l-3.83,1.14c.29,.99,.62,1.98,.95,2.96l3.78-1.31Z"/>
  <path class="o" d="M396,123.28l3.94,.72c.16-.86,.38-1.79,.65-2.76l-3.85-1.08c-.3,1.09-.55,2.14-.73,3.12Z"/>
  <path class="o" d="M409.58,157.67l3.21-2.39c-.6-.8-1.18-1.6-1.75-2.41l-3.26,2.32c.59,.83,1.19,1.65,1.8,2.48Z"/>
  <path class="o" d="M694.23,209.46l2.82,2.69s-.05,.04-.08,.07l2.55,3.08c.51-.43,.89-.82,1.17-1.22,.15-.21,.28-.42,.37-.64l-1.85-.85-1.71-.79c.17-.2,.32-.39,.45-.58,.19-.27,.34-.53,.44-.78l-1.85-.8-1.82-.79s-.1,.2-.5,.62Z"/>
  <path class="o" d="M411.23,90.02c.53-.75,.83-1.17,.84-1.18l-3.22-2.36h0s0,0,0,0c0,0-.33,.45-.89,1.26l3.28,2.29Z"/>
  <rect class="o" x="593.24" y="227.97" width="2.99" height="4" transform="translate(-9.73 26.95) rotate(-2.57)"/>
  <path class="o" d="M442.86,202.96l-2.97,2.68c.67,.75,1.35,1.49,2.04,2.23l2.94-2.71c-.67-.73-1.34-1.46-2-2.2Z"/>
  <rect class="o" x="587.26" y="228.23" width="2.99" height="4" transform="translate(-9.35 25.51) rotate(-2.46)"/>
  <rect class="o" x="581.29" y="228.49" width="2.99" height="4" transform="translate(-8.96 24.1) rotate(-2.35)"/>
  <rect class="o" x="575.32" y="228.73" width="2.99" height="4" transform="translate(-8.47 22.42) rotate(-2.21)"/>
  <rect class="o" x="569.35" y="228.95" width="2.99" height="4" transform="translate(-7.97 20.78) rotate(-2.07)"/>
  <path class="o" d="M467.38,229.56c.99,.52,1.96,.97,2.88,1.35l1.5-3.71c-.81-.33-1.66-.72-2.53-1.18l-1.86,3.54Z"/>
  <path class="o" d="M473.37,231.93c.88,.22,1.92,.42,3.1,.61l.62-3.95c-1.06-.17-1.99-.35-2.76-.54l-.96,3.88Z"/>
  <path class="o" d="M479.52,232.94c.95,.11,1.96,.21,3.03,.3l.34-3.99c-1.03-.09-2.01-.18-2.92-.29l-.45,3.97Z"/>
  <path class="o" d="M462.08,226.29c.88,.62,1.75,1.19,2.59,1.71l2.11-3.4c-.77-.48-1.58-1.01-2.4-1.59l-2.29,3.28Z"/>
  <path class="o" d="M457.2,222.57c.8,.66,1.6,1.3,2.4,1.9l2.43-3.18c-.76-.58-1.52-1.19-2.29-1.82l-2.54,3.09Z"/>
  <path class="o" d="M485.56,233.46c.97,.07,1.97,.13,3.01,.18l.21-3.99c-1.02-.05-2.01-.11-2.96-.18l-.27,3.99Z"/>
  <path class="o" d="M503.58,234.11c.98,.01,1.98,.03,3,.04l.04-4c-1.01,0-2-.02-2.98-.04l-.06,4Z"/>
  <path class="o" d="M509.57,234.17c.99,0,1.98,0,3,.01v-4c-1,0-1.99,0-2.97-.01l-.02,4Z"/>
  <path class="o" d="M455.31,215.62l-2.7,2.95c.76,.69,1.51,1.37,2.27,2.03l2.62-3.02c-.73-.64-1.46-1.29-2.19-1.96Z"/>
  <path class="o" d="M497.58,233.99c.98,.03,1.98,.05,3,.07l.08-4c-1.01-.02-2-.04-2.97-.07l-.11,4Z"/>
  <rect class="o" x="563.36" y="229.17" width="2.99" height="4" transform="translate(-7.47 19.16) rotate(-1.93)"/>
  <path class="o" d="M491.58,233.79c.97,.04,1.98,.08,3,.11l.13-4c-1.02-.03-2-.07-2.97-.11l-.17,4Z"/>
  <rect class="o" x="539.47" y="229.85" width="2.99" height="4" transform="translate(-4.86 11.68) rotate(-1.23)"/>
  <rect class="o" x="545.44" y="229.71" width="2.99" height="4" transform="translate(-5.6 13.69) rotate(-1.43)"/>
  <polygon class="o" points="551.36 229.59 551.48 233.59 554.47 233.5 554.35 229.5 551.36 229.59"/>
  <rect class="o" x="557.39" y="229.36" width="2.99" height="4" transform="translate(-6.85 17.3) rotate(-1.76)"/>
  <polygon class="o" points="533.46 230 533.53 234 536.52 233.94 536.44 229.95 533.46 230"/>
  <rect class="o" x="527.51" y="230.07" width="2.99" height="4" transform="translate(-3.01 7) rotate(-.76)"/>
  <path class="o" d="M515.55,230.18v4c1,0,2,0,3-.01l-.02-4c-1,0-2,0-2.98,.01Z"/>
  <path class="o" d="M451.03,211.55l-2.81,2.84c.72,.72,1.45,1.42,2.17,2.11l2.76-2.9c-.71-.67-1.41-1.36-2.12-2.06Z"/>
  <path class="o" d="M446.89,207.32l-2.9,2.75c.7,.73,1.4,1.46,2.1,2.18l2.86-2.8c-.69-.7-1.37-1.41-2.05-2.13Z"/>
  <polygon class="o" points="521.52 230.15 521.55 234.15 524.55 234.13 524.5 230.13 521.52 230.15"/>
  <path class="o" d="M438.93,198.51l-3.03,2.62c.65,.76,1.31,1.51,1.98,2.27l3-2.65c-.66-.75-1.31-1.49-1.96-2.24Z"/>
  <rect class="o" x="605.18" y="227.39" width="2.99" height="4" transform="translate(-10.67 30.5) rotate(-2.85)"/>
  <rect class="o" x="611.15" y="227.09" width="2.99" height="4" transform="translate(-11.04 32.02) rotate(-2.97)"/>
  <rect class="o" x="617.12" y="226.77" width="2.99" height="4" transform="translate(-11.49 33.86) rotate(-3.11)"/>
  <rect class="o" x="629.06" y="226.08" width="2.99" height="4" transform="translate(-12.37 37.65) rotate(-3.39)"/>
  <rect class="o" x="623.09" y="226.43" width="2.99" height="4" transform="translate(-11.94 35.75) rotate(-3.25)"/>
  <path class="o" d="M400.78,107.75l-3.6-1.74c-.44,.91-.87,1.83-1.29,2.77l3.65,1.63c.4-.9,.81-1.78,1.24-2.65Z"/>
  <path class="o" d="M406.43,97.43l-3.42-2.07c-.5,.83-1.02,1.7-1.54,2.61l3.46,2c.51-.88,1.01-1.73,1.5-2.54Z"/>
  <path class="o" d="M409.58,92.45l-3.33-2.21c-.5,.75-1.05,1.61-1.65,2.54l3.38,2.14c.58-.91,1.12-1.74,1.6-2.48Z"/>
  <rect class="o" x="599.21" y="227.69" width="2.99" height="4" transform="translate(-10.21 28.71) rotate(-2.71)"/>
  <path class="o" d="M646.83,225.02l.29,3.99c1.05-.08,2.05-.15,2.99-.22l-.3-3.99c-.94,.07-1.94,.15-2.98,.22Z"/>
  <path class="o" d="M671.17,221.57l-.65-3.5c-.95,.18-1.94,.36-2.96,.54l.7,3.94c.7-.12,1.36-.25,2.03-.37l.8,3.52c.99-.23,1.97-.46,2.93-.69l-.94-3.89c-.63,.15-1.28,.3-1.92,.45Z"/>
  <path class="o" d="M677.08,220.12l-.67-3.21c-.93,.2-1.91,.4-2.94,.6l.77,3.92c.65-.13,1.27-.25,1.89-.38l.82,3.23c1.01-.26,1.98-.51,2.92-.76l-1.03-3.86c-.57,.15-1.16,.31-1.75,.46Z"/>
  <path class="o" d="M665.23,222.86l-.63-3.74-.56,.09c-.49,.08-1.27,.18-2.32,.29l.42,3.98c1-.1,1.75-.2,2.31-.28l.74,3.76c.99-.19,1.97-.4,2.96-.61l-.83-3.91c-.69,.15-1.39,.29-2.08,.43Z"/>
  <path class="o" d="M682.96,218.52l-.74-2.93c-.89,.22-1.85,.45-2.89,.69l.88,3.9c.6-.14,1.18-.27,1.73-.4l.83,2.95c1.05-.3,2.03-.58,2.91-.85l-1.15-3.83c-.49,.15-1.02,.3-1.57,.46Z"/>
  <path class="o" d="M398.4,113.09l-3.71-1.5c-.39,.95-.75,1.91-1.1,2.87l3.76,1.35c.33-.91,.67-1.81,1.04-2.72Z"/>
  <polygon class="o" points="634.91 225.81 635.16 229.81 638.14 229.62 637.89 225.62 634.91 225.81"/>
  <polygon class="o" points="640.87 225.43 641.13 229.42 644.12 229.22 643.85 225.23 640.87 225.43"/>
  <path class="o" d="M652.78,224.56l.33,3.99c1.1-.09,2.11-.18,3-.26l-.37-3.98c-.89,.08-1.88,.17-2.96,.26Z"/>
  <path class="o" d="M660.1,223.82c-.35,.06-.82,.12-1.42,.19l.46,3.97c.68-.08,1.22-.15,1.62-.22,.48-.08,.97-.16,1.46-.25l-.7-3.94c-.48,.08-.95,.17-1.42,.24Z"/>
  <path class="o" d="M403.48,102.53l-3.51-1.92c-.48,.87-.96,1.77-1.43,2.68l3.55,1.84c.46-.89,.92-1.75,1.38-2.6Z"/>
  <path class="o" d="M416.92,170.36l-3.27,2.31c.3,.43,.9,1.28,1.76,2.46l3.24-2.34c-.84-1.17-1.44-2-1.73-2.43Z"/>
  <path class="o" d="M420.41,175.2l-3.22,2.37c.55,.74,1.15,1.55,1.79,2.42l3.21-2.39c-.64-.86-1.24-1.66-1.78-2.4Z"/>
  <path class="o" d="M410.31,160.48l-3.34,2.21c.54,.81,1.09,1.64,1.66,2.49l3.33-2.22c-.56-.84-1.11-1.67-1.65-2.48Z"/>
  <path class="o" d="M423.98,179.97l-3.19,2.42c.58,.77,1.19,1.57,1.83,2.39l3.17-2.44c-.63-.82-1.23-1.61-1.81-2.37Z"/>
  <rect class="o" x="410.78" y="166.29" width="4" height="2.99" transform="translate(-23.57 258.01) rotate(-33.8)"/>
  <path class="o" d="M435.09,193.97l-3.07,2.56c.64,.76,1.28,1.53,1.94,2.31l3.05-2.59c-.65-.76-1.28-1.52-1.91-2.28Z"/>
  <path class="o" d="M427.62,184.7l-3.15,2.46c.6,.77,1.22,1.56,1.86,2.36l3.13-2.49c-.63-.8-1.25-1.58-1.84-2.34Z"/>
  <path class="o" d="M431.32,189.37l-3.12,2.51c.62,.77,1.25,1.55,1.9,2.34l3.09-2.54c-.64-.78-1.26-1.55-1.88-2.31Z"/>
  <path class="o" d="M401.15,145.32l-3.54,1.87c.48,.91,.96,1.79,1.44,2.66l3.5-1.94c-.47-.84-.94-1.7-1.4-2.59Z"/>
  <path class="o" d="M394.81,129.6l-3.99,.26c.07,1.15,.24,2.26,.48,3.29l3.89-.93c-.19-.81-.32-1.69-.38-2.62Z"/>
  <path class="o" d="M398.51,140.06l-3.61,1.72c.45,.93,.89,1.84,1.33,2.72l3.58-1.79c-.43-.86-.86-1.74-1.3-2.65Z"/>
  <path class="o" d="M407.08,155.5l-3.38,2.14c.53,.84,1.07,1.68,1.62,2.53l3.36-2.18c-.54-.84-1.08-1.67-1.6-2.49Z"/>
  <path class="o" d="M395.13,124.1l-3.95-.64c-.17,1.08-.3,2.14-.36,3.16l3.99,.26c.06-.89,.16-1.82,.32-2.78Z"/>
  <path class="o" d="M396.06,134.69l-3.66,1.6c.41,.95,.82,1.86,1.23,2.75l3.64-1.66c-.4-.87-.8-1.77-1.21-2.7Z"/>
  <path class="o" d="M396.45,118.55l-3.83-1.16c-.31,1.02-.59,2.03-.82,3l3.89,.94c.21-.89,.47-1.82,.76-2.77Z"/>
  <path class="o" d="M404.01,150.47l-3.45,2.02c.51,.87,1.03,1.73,1.55,2.59l3.41-2.08c-.51-.84-1.01-1.68-1.51-2.53Z"/>
  <path class="i" d="M419.01,90.28c.08,.42,.07,1.19,0,2.2-.35,4.65-2.09,14.41-2.63,18.19-.22,1.56-.29,4.04,.09,6.34,.75,4.48,3.21,8.34,9.62,3.68,0,0,.02-.01,.02-.02,9.04-6.58,9.84-13.73,8.41-19.34-.35-1.37-.83-2.65-1.36-3.81-.32-.71-.66-1.38-1-1.99-10.52-19.08-19.73-11.84-19.73-11.84,0,0,1.9,1.05,3.66,2.56,1.35,1.16,2.63,2.59,2.92,4.01Z"/>
  <path class="i" d="M439.35,104.09c1.95,7.84,4.37,27.07,5.97,30.27,1.63,3.25,5.3,5.16,6.54,5.72,.26,.12,.42,.18,.42,.18,4.34,4.59,6.74,1.6,6.74,1.6,0,0,1.14-.71,2.36-2.3,2.41-3.12,5.17-9.66,.37-20.99-.39-.91-.81-1.78-1.26-2.6-.08-.16-.16-.32-.25-.47-7.84-14-23.47-15.89-22.25-14.75,.02,.02,.04,.04,.08,.07,.39,.26,.81,1.46,1.26,3.28Z"/>
  <path class="i" d="M479.53,143.57c3.95,11.18,6.83,14.98,6.83,14.98,0,0,.24,.19,.64,.45,1.47,.95,5.25,2.89,8.59,.19,.01-.01,.03-.02,.04-.03,4.26-3.49,7.58-8.35,0-23.22-.02-.04-.04-.07-.06-.11-6.74-13.03-24.31-15.47-27.85-15.89-.31-.04-.51-.06-.59-.07,.85,.21,8.5,12.63,12.4,23.7Z"/>
  <path class="i" d="M467.12,119.87s-.02-.01-.03-.01c-.03,0-.01,0,.03,.01Z"/>
  <path class="i" d="M520.27,156.72c-.05,0-.05,0,0,0,.01,0,.02,0,.04,0,1.21,0,3.66,.99,5.2,1.66,.8,.35,1.36,.62,1.36,.62h0c-1.39,9.87-.51,14.14,1.49,16.71,.86,1.11,1.94,1.91,3.13,2.71,.7,.46,2.47,.77,4.55,.61,4.65-.34,10.83-2.95,9.97-11.11,0,0,0-.02,0-.03-1.03-9.62-18.57-10.99-24.12-11.17-.89-.03-1.46-.03-1.62-.02Z"/>
  <path class="i" d="M301.62,25.21c-.22,.39,.19,.84,.61,.68,.94-.35,1.94-.17,2.94,.41,2.06,1.18,4.13,4.06,5.76,7.6,1.36,2.96,2.4,6.39,2.84,9.68,1.17,8.76,3.44,8.87,5.72,10.02,.29,.15,.57,.31,.86,.5,.68,.47,1.21,1.67,1.97,1.97,.93,.37,3.95,0,3.95,0,0,0,.82-.49,1.96-1.15,1.15-.66,2.64-1.48,3.96-2.14,1.05-.53,2.62-5.36,2.88-11.1,.09-2.09,0-4.3-.34-6.47,5.03,3.46,10.06,8.89,12.28,14.01,1.06,2.43,1.48,4.8,.97,6.85-3.03,12.12,3.29,17.76,3.29,17.76,.52,1.73,1.42,2.67,2.47,3.13,2.76,1.2,6.51-.99,6.95-1.26,.03-.02,.05-.03,.05-.03,6.03-2.82,8.9-7.06,9.91-11.68,.53-2.38,.56-4.86,.27-7.3-1.01-8.5-5.9-16.46-7.16-17.72-7.7-7.7-22.45-7.65-29.8-7.07-1.68-5.41-5.47-9.94-12.95-10.69-8.72-.87-13.6,.06-16.33,1.38-1.75,.84-2.62,1.84-3.05,2.62Z"/>
  <path class="i" d="M384.78,77.19c.25,1.37,.47,2.75,.66,4.09,.32,2.23,.57,4.37,.76,6.27,.43,4.29,.57,7.34,.57,7.34,0,0,2.99,8.03,8.55,3.95,.24-.18,.46-.36,.69-.54,5.97-4.66,7.88-9.89,7.91-14.63,.01-2.13-.35-4.15-.9-5.98-1.36-4.56-3.85-7.88-4.42-8.45-12.28-12.28-20.68-8.64-20.68-8.64,.71,.44,1.37,1.11,1.97,1.96,1.56,2.18,2.78,5.53,3.72,9.27,.44,1.74,.82,3.55,1.15,5.38Z"/>
  <path class="p" d="M390.72,165.27c-13.81-25-36.84-33.55-36.84-33.55,0,0,.66,1.32,.66,16.44s-21.71,11.18-21.71,11.18l-94.53-14.81-2.09-.33-3-.47-2.99-.47-2.97-.47-1.5-.23-13.99-2.19-54.31-8.51h0c6.96,2.62,16.76,6.2,26.96,9.89,6.06,2.18,12.89,4.64,20.26,7.29,16.58,5.94,29.6,10.56,26.84,9.65-.05-.02-.08-.03-.1-.03,30.78,11.06,65.43,23.5,92.35,33.13,15.26,5.28,31.34,10.74,47.36,16.03,7.06-2.19,32.22-19.68,19.59-42.55Z"/>
  <path class="h" d="M380.85,342.88s-.02,.01-.04,.02l-3.91,1.3,4.34-1.32c-.26,0-.4,0-.4,0,0,0,0,0,0,0Z"/>
  <path class="v" d="M380.85,342.88s-.02,.01-.04,.02l-3.91,1.3,4.34-1.32c-.26,0-.4,0-.4,0,0,0,0,0,0,0Z"/>
  <path class="h" d="M450.8,197.15c.45,.56,.86,1.05,1.19,1.46-.33-.41-.74-.91-1.19-1.46Z"/>
  <path class="z" d="M450.8,197.15c.45,.56,.86,1.05,1.19,1.46-.33-.41-.74-.91-1.19-1.46Z"/>
  <path class="h" d="M446.86,192.3c.75,.93,1.45,1.78,2.08,2.57-.64-.79-1.33-1.64-2.08-2.57Z"/>
  <path class="s" d="M446.86,192.3c.75,.93,1.45,1.78,2.08,2.57-.64-.79-1.33-1.64-2.08-2.57Z"/>
  <path class="h" d="M189.07,143.44c5.31,1.91,10.62,3.82,15.62,5.61-7.37-2.65-14.2-5.11-20.26-7.29,1.54,.56,3.09,1.12,4.65,1.68Z"/>
  <path class="q" d="M189.07,143.44c5.31,1.91,10.62,3.82,15.62,5.61-7.37-2.65-14.2-5.11-20.26-7.29,1.54,.56,3.09,1.12,4.65,1.68Z"/>
  <path class="h" d="M323.78,191.79c-26.92-9.63-61.57-22.07-92.35-33.13-1.37-.4,40.79,15.29,92.35,33.13Z"/>
  <path class="k" d="M323.78,191.79c-26.92-9.63-61.57-22.07-92.35-33.13-1.37-.4,40.79,15.29,92.35,33.13Z"/>
</svg>